<?xml version="1.0" encoding="UTF-8"?>
<svg id="Layer_1" xmlns="http://www.w3.org/2000/svg" version="1.1" viewBox="0 0 186.77 120.79">
  <!-- Generator: Adobe Illustrator 30.0.0, SVG Export Plug-In . SVG Version: 2.1.1 Build 123)  -->
  <defs>
    <style>
      .st0 {
        fill: #be9b53;
      }
    </style>
  </defs>
  <g>
    <path class="st0" d="M133.76,53.16c-.13-6.15-1.92-12.22-5.18-17.47-3.34-5.38-8.21-9.85-13.92-12.74-.85-.43-1.71-.81-2.59-1.15V0s-1.75,1.87-1.75,1.87c-1.29,1.37-2,3.16-2,5.02v13.7c-4.89-1.22-10.07-1.36-15.09-.97-1.9.15-3.74.48-5.53.98V0s-2.13,2.33-2.13,2.33c-.99,1.08-1.54,2.48-1.54,3.93v15.63c-3.53,1.48-6.78,3.59-9.68,6.17-3.94,3.51-7.04,7.89-9.01,12.74-1.9,4.66-2.77,9.72-2.55,14.74.22,4.95,1.5,9.86,3.84,14.26.16.29.32.58.48.87,1.52,2.66,5.29,3.07,7.37.8.07-.07.11-.13.13-.16-1.73-.93-2.95-2-4.25-3.47-1.18-1.33-2.2-2.8-3.01-4.37-1.65-3.17-2.44-6.7-2.57-10.24-.13-3.57.37-7.16,1.48-10.56,1.82-5.58,5.26-10.6,9.82-14.38,2.37-1.96,5.09-3.65,7.96-4.84v40.65s1.57-1.76,1.57-1.76c1.35-1.5,2.09-3.42,2.09-5.42V22.26c2.3-.53,4.66-.73,7.02-.79,3.89-.09,7.79.08,11.64.66.66.1,1.31.21,1.97.33v3.29c0,1.42-.57,2.77-1.59,3.77l-2.64,2.59v-4.13s-2.12,2.16-2.12,2.16c-1.11,1.13-1.72,2.63-1.72,4.2v6.87c0,1.58-.64,3.1-1.77,4.22l-2.3,2.29v-3.78s-1.21,1.22-1.21,1.22c-1.64,1.65-2.56,3.87-2.56,6.18v6.52c0,1.3-.53,2.54-1.46,3.46l-5.06,4.97c-3.42,3.35-7.57,8.9-5.34,13.84.72,1.6,1.88,2.97,3.23,4.09,5.78,4.8,14.2,5.26,21.33,3.9,6.57-1.25,12.75-4.37,17.63-8.87,4.65-4.29,8.05-9.8,9.73-15.84.93-3.33,1.37-6.79,1.3-10.25ZM132.39,59.17c-.49,3.8-1.74,7.49-3.6,10.85-2.95,5.34-7.42,9.84-12.7,12.99-5.95,3.55-12.98,5.39-19.94,4.79-3.17-.27-5.93-1.41-8.57-3.13-3.48-2.26-7.24-5.71-5.08-10.15.61-1.26,1.54-2.34,2.53-3.34,1.71-1.75,3.45-3.46,5.19-5.18,1.26-1.24,2.57-2.42,3.8-3.69,1.18-1.22,2.16-2.4,2.16-4.17v-6.27s6.13-6.08,6.13-6.08c1.14-1.13,1.77-2.65,1.77-4.23v-5.36s6.48-6.63,6.48-6.63c.97-.99,1.51-2.32,1.51-3.69v-2.53c1.42.43,2.79.97,4.1,1.69,6.03,3.3,11.16,9.05,13.9,15.23,2.63,5.94,3.14,12.53,2.32,18.9Z"/>
    <path class="st0" d="M104.31,49.09v2.93s-2.97,0-2.97,0c-.59,0-1.07.48-1.07,1.07v3.09s4.24,0,4.24,0v-4s4.05,0,4.05,0v-4.16s-3.16,0-3.16,0c-.59,0-1.07.48-1.07,1.07Z"/>
    <path class="st0" d="M93.55,39.79c-.89,0-1.6.7-1.61,1.57v2.58s4.24-4.16,4.24-4.16h-2.63Z"/>
  </g>
  <g>
    <path class="st0" d="M.29,99.17h4.5v17.65h10.21v1.93H.29v-19.58Z"/>
    <path class="st0" d="M18.08,99.17h4.5v19.58h-4.5v-19.58Z"/>
    <path class="st0" d="M25.7,118.75v-1.93l11.38-15.72h-11.11v-1.93h16.31v1.93l-11.36,15.72h11.36v1.93h-16.59Z"/>
    <path class="st0" d="M43.77,118.75l8.87-19.58h2.38l8.84,19.58h-4.67l-2.1-4.65h-8.84l-2.1,4.65h-2.38ZM56.42,112.62l-3.75-8.25-3.78,8.25h7.53Z"/>
    <path class="st0" d="M74.24,99.17h8.53c5.09,0,8.48,2.32,8.48,5.79,0,2.41-1.6,4.22-4.22,5.15l5.01,8.64h-4.9l-4.65-8h-3.75v8h-4.5v-19.58ZM82.41,108.82c2.49,0,4.11-1.48,4.11-3.86s-1.62-3.86-4.08-3.86h-3.69v7.72h3.67Z"/>
    <path class="st0" d="M103.85,98.92c6.02,0,10.04,4,10.04,10.04s-4.03,10.04-10.04,10.04-10.04-4.03-10.04-10.04,4-10.04,10.04-10.04ZM103.85,117.52c3.19,0,5.31-3.41,5.31-8.56s-2.13-8.56-5.31-8.56-5.34,3.41-5.34,8.56,2.13,8.56,5.34,8.56Z"/>
    <path class="st0" d="M114.01,99.17h5.04l5.82,9.06,5.87-9.06h2.55l-7.02,10.94v8.64h-4.5v-7.47l-7.75-12.11Z"/>
    <path class="st0" d="M131.39,118.75l8.87-19.58h2.38l8.84,19.58h-4.67l-2.1-4.65h-8.84l-2.1,4.65h-2.38ZM144.03,112.62l-3.75-8.25-3.78,8.25h7.53Z"/>
    <path class="st0" d="M153.91,99.17h4.5v17.65h10.21v1.93h-14.72v-19.58Z"/>
    <path class="st0" d="M171.71,118.75v-19.58h15.02v1.93h-10.52v6.74h9.07v1.93h-9.07v7.05h10.52v1.93h-15.02Z"/>
  </g>
</svg>