<?xml version="1.0" encoding="UTF-8"?>
<svg id="Layer_1" xmlns="http://www.w3.org/2000/svg" version="1.1" viewBox="0 0 64.76 12.05">
  <!-- Generator: Adobe Illustrator 30.0.0, SVG Export Plug-In . SVG Version: 2.1.1 Build 123)  -->
  <defs>
    <style>
      .st0 {
        isolation: isolate;
      }
    </style>
  </defs>
  <g id="w-full1">
    <g id="reversed-link1">
      <g class="st0" text-rendering="auto">
        <g class="st0">
          <path d="M6.3,0c1.06,0,2.01.19,2.85.57.84.38,1.65.93,2.42,1.66l-.88.83c-.65-.64-1.35-1.12-2.1-1.45-.75-.33-1.5-.49-2.25-.49s-1.4.13-2.03.38c-.63.25-1.17.59-1.63,1.03-.46.44-.82.95-1.08,1.54-.26.59-.39,1.24-.39,1.93s.13,1.29.39,1.89c.26.6.63,1.12,1.1,1.57.47.45,1.04.81,1.69,1.07s1.36.4,2.13.4c.54,0,1.07-.08,1.57-.23.5-.15.95-.38,1.35-.68.4-.3.74-.67,1.01-1.11.27-.44.45-.95.52-1.53h-3.66v-1.12h4.96v.03c0,.91-.14,1.72-.42,2.43-.28.71-.68,1.32-1.18,1.81-.51.49-1.11.87-1.82,1.13-.71.26-1.49.39-2.34.39-.99,0-1.89-.17-2.69-.5-.8-.33-1.48-.77-2.04-1.33-.56-.55-.99-1.19-1.3-1.92-.3-.72-.46-1.48-.46-2.27s.15-1.58.46-2.31c.3-.73.73-1.37,1.28-1.92.55-.55,1.21-.99,1.99-1.31.78-.33,1.64-.49,2.58-.49Z"/>
          <path d="M18.18.29h.27l5.33,11.49h-1.2l-1.76-3.78h-5.04l-1.76,3.78h-1.2L18.18.29ZM16.3,6.91h4.02l-2-4.3-2.02,4.3Z"/>
          <path d="M24.14.29h6.3v1.12h-2.56v10.37h-1.15V1.41h-2.59V.29Z"/>
          <path d="M35.29.29h.27l5.33,11.49h-1.2l-1.76-3.78h-5.04l-1.76,3.78h-1.2L35.29.29ZM33.4,6.91h4.02l-2-4.3-2.02,4.3Z"/>
          <path d="M41.89,5.97c0-.85.15-1.64.46-2.37.31-.73.74-1.35,1.3-1.89.55-.53,1.21-.95,1.96-1.26.75-.3,1.58-.46,2.47-.46,1.04,0,1.99.2,2.84.61.85.41,1.55,1.01,2.12,1.81l-.91.69c-.5-.67-1.1-1.17-1.78-1.5-.69-.33-1.44-.49-2.25-.49-.68,0-1.33.12-1.93.36-.6.24-1.13.58-1.59,1.02s-.82.96-1.09,1.56c-.27.6-.4,1.27-.4,2.01s.13,1.37.38,1.98c.26.6.61,1.12,1.06,1.56s.99.78,1.61,1.02c.62.25,1.29.37,2.02.37,1.6,0,2.94-.63,4.03-1.9l.91.69c-.6.75-1.32,1.31-2.17,1.7-.85.38-1.8.58-2.86.58-.96,0-1.82-.16-2.58-.47s-1.41-.75-1.95-1.3c-.54-.55-.95-1.19-1.23-1.94-.28-.74-.42-1.53-.42-2.38Z"/>
          <path d="M59.16.29h.27l5.33,11.49h-1.2l-1.76-3.78h-5.04l-1.76,3.78h-1.2L59.16.29ZM57.27,6.91h4.02l-2-4.3-2.02,4.3Z"/>
        </g>
      </g>
    </g>
  </g>
</svg>