<?xml version="1.0" encoding="UTF-8"?>
<svg id="Layer_1" xmlns="http://www.w3.org/2000/svg" version="1.1" viewBox="0 0 331.51 213.36">
  <!-- Generator: Adobe Illustrator 30.0.0, SVG Export Plug-In . SVG Version: 2.1.1 Build 123)  -->
  <defs>
    <style>
      .st0 {
        fill: #396d63;
      }

      .st1 {
        fill: #ffb9b8;
      }

      .st2 {
        fill: #387771;
      }

      .st3 {
        fill: #1c2731;
      }

      .st4 {
        fill: #212421;
      }

      .st5 {
        fill: #f5ebe2;
      }

      .st6 {
        fill: none;
        stroke: #f5ebe2;
        stroke-linecap: round;
        stroke-miterlimit: 10;
        stroke-width: .98px;
      }
    </style>
  </defs>
  <g>
    <path class="st3" d="M117.17,116.98h-.02s.02,0,.02,0h0Z"/>
    <path class="st3" d="M189.9,172.46c-4.04,6.21-10.15,12.89-15.59,17.94-23.57,21.91-54.81,28.96-85.35,17.55-18.14-6.77-31.52-21.36-50.65-27.16-12.34-3.74-24.06-2.66-36.29.82-.97.16-2.35-1.36-1.96-2.21.26-.58,3.56-2.41,4.42-3.18,2.96-2.68,3.95-6.53,4.28-10.4l-.02-100.34c-.37-2.24-1.37-5.14-3.34-6.45-1.49-.98-3.99-.78-3.87-3.01.16-.75,1.31-1.26,2.01-1.37,2.93-.49,6.31-.34,9.41-.86,8.81-1.51,13.57-5.35,21.19-8.67,1.12-.5,2.77-1.39,3.73-.2,1.69,2.09-1.86,3.34-3.1,4.62-2.17,2.24-3.24,5.27-3.52,8.34-.18,33.52.38,67.16-.24,100.58-.06,2.97.25,6.03-.24,8.94,1.97.35,3.97.27,5.97.52,17.41,2.23,40.45,18.56,57.59,8.82,5.95-3.39,15.63-14.13,14.94-21.39-.47-4.99-5.12-7.84-5.33-11.32-.2-3.5,2.23-3.05,2.83-4.28.21-.44.06-1.02.24-1.48.17-.45.79-1.18.82-1.39.02-.12-.67-2.02-.8-2.29-1.11-2.31-4.67-4.61-2.69-7.81.26-.41.54-.66.83-.85.59-.49,1.27-.96,1.43-1.29.01-.02.02-.03.02-.05.2-.48.47-2.39.52-3.02,0-.02,0-.04,0-.06,0-.08,0-.15,0-.22,0-.56-.1-1.6-.18-2.51h10.11c-.18,1.98-.48,4.39.35,5.67,1.49,2.29,3.66,1.86,2.39,5.82-.58,1.8-1.89,2.48-2.49,3.62-.13.25-1.17,3.09-1.14,3.26.04.23.61.2.72.55.18.54-.15,1.29.16,1.81.47.79,2.83,1.01,2.98,3.09.39,5.14-6.61,8.62-4.89,15.7,2.36,9.7,11.82,18.09,20.71,21.87,17.62,7.49,35.87,2.27,49.96-9.59,1.51-1.28,2.62-3.51,4.88-3.16,2.59.4-.02,3.87-.79,5.06h0Z"/>
    <path class="st3" d="M129.14,76.39c-3.23-4.47-5.88-10.14-7.62-16.25-3.1-15.56-1.43-30.46-11.98-45.04-16.99-23.49-55.73-19.11-63.57,10.01-3.92,14.57,2.42,32.27,18.04,36.25,13.25,3.38,29.22-7.55,24.04-22.08-2.18-6.12-9.92-10.89-16.08-7.5-2.13,1.17-1.95,2.88-4.72,1.37-5.59-3.05-4.63-10.57-.87-14.79,6.07-6.81,16.2-6.76,23.86-2.82,15.74,8.1,17.86,28.15,13.14,44.89-1.74,6.17-4.4,11.89-7.66,16.39-.8,1.11-3.84,4.15-3.77,5.27.06,1.07,3,2.85,3.92,3.68,6.15,5.61,10.26,14.02,11.12,22.34h-4.31v4.32c.01,1.38,1.21,2.47,2.59,2.47h13.87c1.62,0,3.02-1.27,3.03-2.9v-4.33h-4.31c.86-8.32,4.97-16.73,11.12-22.34.91-.83,3.85-2.61,3.92-3.68.07-1.11-2.97-4.16-3.77-5.27h.01ZM73.13,35.73c3.13,1.88,3.88,7.4,1.91,10.36-3.62,5.44-11.51,1.63-12.68-3.75,5.34,3.46,11.49-.34,10.77-6.61h0Z"/>
    <path class="st3" d="M331.44,161.75c-.4-1.31-1.87-1.22-2.91-1.75-2.71-1.37-3.79-4.87-4.05-7.69-1.08-11.81.65-25.17-.02-37.17-.41-7.2-3.92-13.39-10.37-16.79-9.61-5.07-18.39-.37-25,6.89-.55.1-.34-.24-.37-.61-.08-1.11-.22-2.37-.26-3.43-.06-1.42.8-3.06-.72-4.16-1.59-.72-7.11,2.3-8.99,2.99-2.62.97-5.52,1.82-8.29,2.23-1.39.2-4.93.06-5.73.88-1.68,1.72,1.11,2.89,2.1,3.8,2.27,2.07,2.65,4.52,2.82,7.46.55,9.53-.1,19.59-.26,29.12-.06,3.54.61,11.38-.41,14.27-.9,2.53-5.97,2.74-3.2,5.74l27.34.06c.92-.64,1.2-1.41.94-2.53-1.84-.85-3.85-1.47-4.73-3.47-.84-1.92-.5-3.53-.61-5.51-.6-10.42-.79-23.35-.25-33.78.05-.91.14-2.31.25-3.18.37-2.95,5.12-6.99,8.02-7.4,5.71-.79,7.11,3.02,7.41,7.88.77,12.61-.39,26.22-.29,38.89-.38,1.91-.55,4.12-2.33,5.25-1.19.76-4.44.99-3.23,3.07.32.55.93.87,1.56.89,9.53-.67,20.24.87,29.63,0,1.12-.1,2.37-.67,1.97-1.98h0Z"/>
    <path class="st3" d="M99.7,159.42s-.05-.05-.08-.08c-.06-.06-.14-.12-.22-.18-.08-.06-.17-.12-.26-.17-.07-.04-.15-.09-.23-.12-.12-.06-.24-.12-.37-.18s-.26-.12-.38-.17c-.17-.07-.34-.14-.5-.2-.09-.04-.17-.07-.24-.11s-.16-.06-.23-.1c-.11-.05-.21-.1-.3-.16-3.22-1.86-4.45-5.78-4.67-9.27-.73-11.46.7-23.28-.24-34.75-1.31-16.02-21.07-20.49-33.89-16.04-6.96,2.41-14.66,10.25-11.06,18.16,3.9,8.59,17.21,5.55,15.29-3.79-.41-2-3.25-3.79-5.2-3.87-1.01-.04-3.39.8-3.98.2-.99-.99.45-2.9,1.69-4.1.09-.08.17-.16.26-.24.2-.19.4-.36.58-.5.1-.08.2-.15.28-.2.15-.1.3-.2.46-.29.38-.24.78-.46,1.19-.66.08-.04.16-.08.24-.12.22-.1.44-.2.66-.29.46-.19,1.23-.45,1.71-.58.05-.01.09-.03.14-.03.6-.16,1.2-.27,1.81-.35.17-.02.35-.04.52-.06,3.48-.32,6.93.65,9.27,2.92l.18.18c.16.16.32.33.47.51.07.09.14.18.22.26.07.09.14.18.2.28.09.12.18.26.26.38.15.23.29.47.42.72.04.07.08.14.12.22.03.06.06.13.09.2.05.1.09.2.14.3.02.06.05.12.08.18.01.03.03.07.04.1.03.08.06.16.09.24.04.12.08.23.12.34,0,.01,0,.02.01.03.04.12.07.23.1.36.09.31.17.63.22.96.01.03.02.06.02.1,0,.04.01.07.02.1.03.17.06.34.08.51.02.16.04.33.06.5,0,.08.01.16.02.23.02.29.03.58.03.89s-.01.64-.03.94c0,.08,0,.15-.02.23s-.01.15-.02.22c-.03.3-.06.58-.1.87,0,.04-.02.08-.02.12,0,.05-.02.1-.03.15-.03.18-.07.36-.11.54l-.1.39c-.04.15-.08.29-.12.44-.08.24-.16.48-.25.72-.06.15-.12.3-.19.45-.03.08-.06.15-.1.22-.06.12-.12.23-.17.34-.04.08-.08.16-.13.24-.04.07-.08.15-.12.22,0,0,0,.01,0,.02-.04.06-.08.12-.12.18-.02.03-.04.06-.06.1-.02.04-.04.07-.06.1-.1.14-.2.28-.29.42-.02.02-.04.05-.06.08-.02.03-.05.06-.07.09-.04.06-.09.12-.14.17-.06.06-.1.13-.16.2-.1.12-.2.23-.31.34-5,5.29-15.53,5.29-22.02,8.52-1.15.57-2.21,1.23-3.2,1.98-.2.15-.38.3-.58.46-.23.18-.45.38-.68.58l-.52.5c-.05.05-.1.1-.15.15-7.57,7.52-8.41,20.43-1.15,27.72.17.17.34.33.51.49.11.1.22.2.32.29.18.16.49.41.67.56.22.17.44.34.67.5.2.14.4.28.61.41.42.27.85.52,1.3.76.23.12.46.23.69.34.23.12.47.22.72.32.45.19.92.37,1.41.53.16.06.32.11.49.16.39.12.78.23,1.17.32.26.06.52.12.77.18.12.02.26.05.38.08.26.05.51.09.76.13,2.45.38,4.84.28,7.14-.2.25-.06.5-.11.74-.17.25-.06.5-.13.75-.2.22-.06.44-.13.66-.2,3.09-1,6-2.7,8.73-4.89.78-.62,2.37-3.03,3.29-1.81.31.42.58.86.82,1.31.06.12.12.23.18.34.09.17.18.34.27.52.06.12.12.23.18.35.49.92,1.02,1.85,1.83,2.68.05.05.1.1.16.15.12.12.24.23.38.34.12.11.26.22.4.32.2.15.42.29.64.42.67.4,1.43.71,2.23.95.17.06.35.11.54.15,5.2,1.32,12.29-.24,15.76-3.04,1.18-.95,1.22-1.6.76-2.09h-.02ZM74.23,124.63c-.02.29-.04.57-.06.86-.03.43-.05.86-.06,1.3-.13,3.22-.04,6.48.04,9.73.06,2.18.1,4.35.06,6.51,0,.36-.01.72-.03,1.08h0c-.01.37-.02.73-.04,1.09-.01.18-.02.36-.03.54-.02.32-.04.64-.06.96l-.03.31c-.02.2-.04.42-.07.62-.02.11-.03.21-.04.32-.4,2.68-1.37,5.23-3.88,6.67-4.8,2.76-8.97-.28-10.18-5.15-.15-.61-.26-1.21-.35-1.81-.02-.1-.03-.21-.04-.32-.02-.18-.04-.36-.06-.54-.02-.17-.03-.35-.04-.52,0-.12-.01-.22-.02-.33h0c0-.11,0-.2,0-.29,0-.23,0-.46,0-.68,0-.14,0-.29.01-.43,0-.09.01-.18.02-.28,0-.12.02-.24.03-.37h0c.01-.12.02-.24.04-.36.03-.24.06-.49.1-.73,0-.06.02-.12.03-.18,0-.06.02-.12.03-.18.04-.24.09-.48.15-.72.02-.08.03-.16.06-.24.04-.17.08-.34.13-.51.04-.15.09-.31.13-.47l.23-.72c.1-.28.2-.55.3-.83.03-.08.06-.16.1-.24.03-.08.07-.16.1-.24h0c.14-.33.29-.65.44-.97.1-.21.21-.42.32-.64s.22-.42.34-.62c.17-.32.36-.62.55-.93.18-.3.38-.61.58-.91.13-.2.27-.4.41-.6.5-.69,1.02-1.36,1.56-2.01.39-.47.79-.93,1.21-1.38.17-.18.33-.36.5-.53.34-.36.68-.7,1.03-1.05.17-.17.35-.34.53-.51.79-.76,1.6-1.49,2.42-2.18l3.67-2.81c-.04.42-.08.85-.12,1.28v.02Z"/>
    <path class="st3" d="M266.08,144.14c-.32-.74-1.09-1.31-1.95-1.23-1.51.16-1.43,3.29-1.72,4.42-2.01,7.74-10.78,12.63-18.32,9.26-7.54-3.36-11.01-12.53-11.06-20.29,2.75-.5,5.67-.57,8.5-1.04,11.38-1.89,23.17-9.41,21.21-22.52-2.65-17.75-27.12-19.36-39-9.69-14,11.39-15.78,39.63-3.68,52.85,10.03,10.96,30.66,11.53,41.15.89,2.48-2.52,6.39-9.13,4.86-12.64h0ZM233.24,114.48c.74-4.42,2.63-12.23,8.38-11.95,3.46.17,5.25,2.73,6.24,5.76,3.43,10.49-3.84,23.36-15.18,24.35-.46-5.99-.44-12.22.56-18.16h0Z"/>
    <path class="st3" d="M211.22,142.48c-3.06-.94-2.35,3.62-2.94,5.53-1.28,4.15-5.97,8.8-10.33,9.49-11.86,1.87-18.57-11.37-18.86-21.43,7.31-.5,14.81-.56,21.12-4.69,15.68-10.27,8.39-32.59-9.77-34.18-40.84-3.58-43.38,65.14-4.61,67.26,9.93.54,22.27-3.9,25.45-14.19.44-1.44,1.79-7.22-.05-7.78h0ZM178.58,131.8c-.67-6.21.29-19.23,3.1-24.82,1.23-2.45,2.48-4.19,5.43-4.37,4.68-.27,7.08,4.84,7.4,8.86.7,8.83-4.07,17.83-12.79,20.51-1.06.33-2.99,1.18-3.14-.17h0Z"/>
    <path class="st3" d="M123.68,97.14c1.1,1.65,5.45.15,7.2.5.34,3.32-.05,6.58,0,9.92.1,9.47-.06,19.14,0,28.61.04,6.03-.79,14.18,2,19.55,4.29,8.28,12.68,8.82,21.15,8.24,1.87-.13,5.65-.63,5.73-3.09.08-2.26-2.69-1.36-4.17-1.67-3.06-.65-4.35-4.15-4.6-6.9-.65-7.09-.02-14.9-.04-21.98-.03-10.89.05-21.79,0-32.68h13.34c1.98,0,4.23-3.28,1.84-4.55l-14.09.16-.97-.5-.12-18.48c-.12-1.46-1.13-1.92-2.47-1.48-.96.32-1.91,3.78-2.46,4.88-2.59,5.16-7.41,8.78-12.23,11.75-2.66,1.65-7.22,3.37-9.36,5.08-.93.75-1.54,1.46-.76,2.63h0Z"/>
  </g>
  <g>
    <path class="st5" d="M278.57,109.57s2.55-.08,2.83.66c.28.73-.51,2.21-1.19,2.14-.68-.07-2.02-1.6-2.02-1.6,0,0,1.16,2.04.6,2.54-.55.5-2.47-.05-2.7-.57-.22-.52.76-2.02.76-2.02,0,0-2.49,1.87-3.18.91s-.23-2.35.27-2.6c.51-.25,2.62.39,2.62.39,0,0-1.89-1.45-1.75-2.06s1.48-1.54,2.01-1.21.85,2.45.85,2.45c0,0,.26-2.47,1.08-2.49.82-.03,2.4.67,2.26,1.35-.15.68-2.45,2.1-2.45,2.1h0Z"/>
    <path class="st4" d="M276.67,109.24s.27-.86,1.3-.44c1.03.43.71,1.68-.27,1.94s-1.31-.99-1.03-1.5h0Z"/>
  </g>
  <g>
    <path class="st5" d="M316.6,153.57s2.55-.08,2.83.66c.28.73-.51,2.21-1.19,2.14-.68-.07-2.02-1.6-2.02-1.6,0,0,1.16,2.04.6,2.54-.55.5-2.47-.05-2.7-.57-.22-.52.76-2.02.76-2.02,0,0-2.49,1.87-3.18.91s-.23-2.35.27-2.6,2.62.39,2.62.39c0,0-1.89-1.45-1.75-2.06s1.48-1.54,2.01-1.21c.54.33.85,2.45.85,2.45,0,0,.26-2.47,1.08-2.49.82-.03,2.4.67,2.26,1.35-.15.68-2.45,2.1-2.45,2.1h0Z"/>
    <path class="st4" d="M314.7,153.24s.27-.86,1.3-.44c1.03.43.71,1.68-.27,1.94s-1.31-.99-1.03-1.5h0Z"/>
  </g>
  <g>
    <path class="st0" d="M111.31,72.01c.55.39,1.16.61,1.78.67.84.16,1.77.03,2.58-.47.95-.58,1.56-1.51,1.75-2.51-.91-.24-1.94-.12-2.84.44-.39.24-.72.53-.99.87-.23-.32-.52-.6-.87-.84-.91-.64-2-.81-2.97-.57.16.93.69,1.81,1.55,2.42h0Z"/>
    <path class="st0" d="M111.3,67.64c.55.38,1.17.59,1.78.64.84.15,1.77,0,2.58-.5.95-.59,1.54-1.53,1.72-2.53-.92-.23-1.94-.09-2.83.47-.39.24-.71.55-.98.88-.24-.31-.53-.6-.87-.83-.92-.62-2.01-.78-2.97-.53.17.93.72,1.81,1.58,2.4h0Z"/>
    <path class="st0" d="M111.23,63.26c.56.37,1.18.58,1.79.62.85.14,1.77-.02,2.57-.53.94-.6,1.52-1.55,1.68-2.56-.92-.22-1.94-.06-2.83.51-.38.25-.7.55-.96.9-.24-.31-.54-.59-.89-.82-.93-.61-2.01-.76-2.98-.5.18.93.74,1.8,1.61,2.38h0Z"/>
    <path class="st0" d="M111.1,58.88c.56.37,1.19.56,1.8.6.85.13,1.77-.04,2.56-.57.93-.61,1.5-1.57,1.65-2.57-.92-.2-1.94-.04-2.82.54-.38.25-.7.56-.96.91-.25-.31-.55-.58-.9-.81-.93-.6-2.03-.74-2.98-.46.19.93.76,1.79,1.64,2.36h0Z"/>
    <path class="st0" d="M110.93,54.49c.57.36,1.19.55,1.81.59.85.12,1.76-.06,2.56-.58.93-.61,1.5-1.57,1.64-2.57-.92-.2-1.94-.03-2.82.55-.38.25-.7.56-.95.91-.25-.31-.55-.58-.9-.81-.94-.6-2.03-.73-2.99-.45.2.93.77,1.8,1.65,2.37Z"/>
    <path class="st0" d="M110.74,50.1c.57.36,1.19.55,1.81.58.85.12,1.76-.07,2.56-.6.92-.62,1.48-1.59,1.61-2.61-.93-.2-1.94,0-2.81.59-.38.26-.69.57-.94.92-.25-.3-.55-.58-.91-.79-.95-.58-2.04-.7-2.99-.41.21.91.79,1.77,1.67,2.33h0Z"/>
    <path class="st0" d="M110.49,45.75c.58.34,1.2.51,1.82.53.85.1,1.76-.1,2.54-.66.91-.65,1.45-1.65,1.53-2.7-.93-.17-1.94.07-2.79.7-.36.27-.67.6-.91.95-.26-.29-.57-.56-.93-.76-.96-.55-2.06-.61-3-.29.24.87.84,1.69,1.74,2.23h0Z"/>
    <path class="st0" d="M110.08,41.48c.6.3,1.22.44,1.84.43.86.06,1.76-.18,2.51-.79.87-.7,1.34-1.77,1.34-2.86-.95-.11-1.93.22-2.72.91-.35.3-.63.65-.84,1.02-.28-.28-.61-.52-.98-.7-1-.47-2.1-.43-3.02-.05.31.82.94,1.56,1.87,2.03h0Z"/>
    <path class="st0" d="M109.37,37.37c.62.23,1.26.31,1.87.24.86-.02,1.73-.34,2.42-1.02.39-.4.68-.88.86-1.4.17-.51.22-1.11.17-1.6-.94.01-1.9.41-2.62,1.18-.31.34-.55.72-.73,1.11-.31-.25-.66-.45-1.05-.58-1.05-.37-2.14-.24-3.01.25.1.21.23.43.36.6.14.17.29.34.47.49.35.3.76.56,1.25.74h0Z"/>
    <path class="st0" d="M108.25,33.25c.64.21,1.28.25,1.89.14.86-.08,1.7-.47,2.35-1.18.75-.83,1.06-1.92.92-2.97-.95.03-1.88.48-2.57,1.28-.3.35-.52.73-.69,1.13-.32-.23-.68-.42-1.08-.55-1.06-.33-2.14-.15-2.99.36.42.8,1.18,1.47,2.17,1.8h0Z"/>
    <path class="st0" d="M106.94,29.19c.65.16,1.3.16,1.89.01.84-.13,1.68-.56,2.27-1.31.35-.44.58-.95.69-1.48.1-.53.1-1.09-.02-1.63-.95.11-1.82.64-2.45,1.5-.27.37-.47.77-.59,1.18-.34-.21-.71-.37-1.11-.46-1.08-.24-2.14.06-2.94.63.47.72,1.26,1.3,2.27,1.55h0Z"/>
    <path class="st0" d="M105.33,25.35c.65.08,1.3.01,1.88-.2.83-.22,1.61-.72,2.12-1.55.6-.96.67-2.16.26-3.22-.93.22-1.73.88-2.23,1.81-.22.41-.37.83-.45,1.25-.36-.17-.74-.28-1.15-.32-1.11-.09-2.11.35-2.84,1.02.28.31.62.58,1.03.79.41.2.87.35,1.38.42h0Z"/>
    <path class="st0" d="M103.29,21.82c.65-.01,1.28-.17,1.83-.46.79-.33,1.5-.94,1.88-1.84.23-.52.31-1.08.26-1.64-.04-.56-.2-1.12-.5-1.6-.88.36-1.58,1.14-1.93,2.13-.15.43-.24.88-.26,1.3-.38-.12-.77-.17-1.19-.14-1.11.08-2.03.67-2.65,1.43.16.13.34.25.53.35.19.1.38.2.6.26.42.15.92.2,1.42.2h0Z"/>
    <path class="st0" d="M100.75,18.66c.64-.11,1.24-.37,1.74-.73.73-.45,1.34-1.16,1.58-2.1.07-.28.11-.55.11-.84,0-.27-.04-.55-.1-.82-.13-.53-.38-1.08-.71-1.5-.81.49-1.4,1.35-1.6,2.39-.09.46-.11.9-.06,1.33-.39-.06-.79-.05-1.19.04-1.08.23-1.92.94-2.42,1.8.38.23.78.39,1.22.47.44.08.94.06,1.44-.02h0Z"/>
    <path class="st0" d="M97.75,15.88c.62-.2,1.18-.54,1.62-.97.66-.54,1.17-1.34,1.27-2.3.14-1.13-.32-2.24-1.13-3.03-.75.6-1.19,1.53-1.26,2.59-.03.46.03.9.13,1.32-.39,0-.8.06-1.18.2-1.03.38-1.77,1.21-2.14,2.12.76.34,1.72.39,2.69.08h0Z"/>
    <path class="st0" d="M94.41,13.54c.59-.29,1.09-.7,1.47-1.19.58-.64.96-1.48.93-2.45-.01-.57-.17-1.11-.44-1.6-.14-.24-.3-.47-.48-.69-.19-.21-.4-.39-.63-.56-.65.7-.96,1.69-.87,2.74.04.45.15.89.31,1.29-.39.06-.77.16-1.14.37-.97.53-1.57,1.45-1.81,2.41.4.11.84.13,1.29.09.45-.05.92-.19,1.38-.41h0Z"/>
    <path class="st0" d="M90.77,11.71c.54-.37.97-.84,1.27-1.38.48-.71.73-1.6.57-2.57-.09-.57-.34-1.06-.68-1.51-.17-.22-.37-.43-.58-.61-.22-.17-.46-.33-.71-.46-.54.79-.7,1.81-.45,2.84.11.44.28.85.5,1.23-.38.11-.74.28-1.07.54-.88.67-1.33,1.67-1.43,2.65.83.08,1.73-.12,2.58-.72h0Z"/>
    <path class="st0" d="M86.91,10.47c.47-.45.83-.99,1.05-1.57.37-.78.48-1.7.16-2.62-.09-.27-.22-.52-.37-.76-.15-.23-.33-.44-.54-.63-.41-.37-.9-.7-1.45-.86-.41.87-.41,1.89,0,2.87.17.43.41.82.68,1.14-.36.17-.69.4-.97.69-.77.79-1.06,1.86-1,2.85.42-.04.83-.11,1.25-.3.41-.18.82-.47,1.19-.81h0Z"/>
    <path class="st0" d="M82.91,9.84c.4-.52.67-1.13.79-1.72.24-.82.21-1.76-.25-2.61-.27-.5-.65-.91-1.11-1.24-.46-.32-1-.51-1.56-.62-.27.91-.11,1.94.44,2.85.24.4.53.72.85,1-.33.22-.62.51-.86.85-.63.9-.76,1.98-.55,2.96.41-.07.81-.24,1.19-.5.38-.23.73-.55,1.05-.96h0Z"/>
    <path class="st0" d="M78.87,9.82c.31-.58.49-1.19.51-1.81.11-.85-.06-1.76-.65-2.55-.68-.89-1.79-1.42-2.93-1.41-.13.94.2,1.93.88,2.74.3.35.64.63,1,.87-.29.26-.53.59-.71.96-.49.99-.44,2.08-.08,3.01.78-.29,1.49-.89,1.98-1.8h0Z"/>
    <path class="st0" d="M74.86,10.45c.22-.62.3-1.25.23-1.87-.02-.86-.34-1.73-1.04-2.42-.41-.39-.9-.67-1.43-.84-.54-.17-1.1-.19-1.67-.12.01.95.48,1.88,1.28,2.58.35.31.73.53,1.12.7-.24.31-.44.67-.56,1.06-.33,1.05-.12,2.13.37,2.98.37-.19.7-.47.99-.83.29-.34.53-.76.7-1.25h0Z"/>
    <path class="st0" d="M70.97,11.67c.13-.64.12-1.29-.04-1.89-.15-.85-.58-1.66-1.37-2.24-.92-.67-2.11-.83-3.18-.52.15.94.73,1.8,1.62,2.38.38.25.79.42,1.21.54-.2.34-.34.72-.41,1.13-.18,1.08.17,2.13.78,2.91.68-.5,1.19-1.3,1.41-2.3h0Z"/>
    <path class="st0" d="M67.26,13.43c.06-.66-.05-1.3-.29-1.87-.26-.82-.81-1.57-1.66-2.04-.49-.27-1.04-.42-1.57-.45-.53-.03-1.05.03-1.55.23.24.92.89,1.72,1.82,2.22.41.21.82.35,1.25.42-.15.36-.26.76-.29,1.17-.09,1.11.34,2.12,1.02,2.84.33-.29.63-.66.86-1.1.22-.43.35-.9.39-1.42h0Z"/>
    <path class="st0" d="M63.64,15.59c0-.66-.16-1.28-.44-1.84-.32-.8-.93-1.5-1.82-1.89-1.03-.46-2.25-.36-3.26.23.35.89,1.13,1.57,2.13,1.93.44.16.87.23,1.3.26-.12.37-.17.78-.15,1.19.07,1.1.67,2.02,1.43,2.65.51-.61.82-1.49.81-2.52h0Z"/>
    <path class="st0" d="M60.54,18.09c-.14-.63-.41-1.22-.78-1.72-.46-.73-1.17-1.32-2.13-1.54-1.11-.26-2.32.12-3.21.91.52.8,1.44,1.31,2.48,1.45.46.07.91.06,1.33,0-.04.4,0,.8.1,1.19.31,1.07,1.08,1.83,1.96,2.29.35-.7.47-1.58.25-2.58h0Z"/>
    <path class="st0" d="M58.06,21.11c-.27-.59-.66-1.11-1.13-1.51-.6-.61-1.43-1.05-2.41-1.05-.29,0-.57.03-.85.11-.27.08-.53.18-.78.32-.5.28-.98.66-1.31,1.16.69.67,1.69.97,2.73.88.47-.03.91-.13,1.31-.29.04.39.15.78.34,1.14.53.98,1.46,1.56,2.41,1.82.05-.19.07-.39.09-.59.02-.2.02-.41,0-.63-.05-.43-.19-.9-.4-1.36h.01Z"/>
    <path class="st0" d="M56.28,24.59c-.38-.52-.87-.94-1.42-1.24-.72-.47-1.61-.72-2.58-.51-.56.12-1.09.38-1.51.76-.43.38-.81.85-1.03,1.4.81.51,1.85.6,2.85.29.44-.13.86-.32,1.21-.55.13.38.31.73.58,1.04.73.84,1.75,1.23,2.73,1.28.01-.2,0-.4-.04-.61-.02-.2-.07-.41-.14-.61-.14-.41-.37-.84-.67-1.24h0Z"/>
    <path class="st0" d="M55.25,28.4c-.48-.43-1.04-.75-1.63-.93-.8-.32-1.73-.37-2.63.02-1.05.45-1.8,1.43-2.07,2.56.89.34,1.92.24,2.87-.24.41-.21.76-.48,1.08-.78.19.34.45.65.77.91.86.7,1.93.89,2.91.75-.1-.81-.53-1.62-1.3-2.3Z"/>
    <path class="st0" d="M54.96,32.4c-.55-.35-1.17-.57-1.78-.64-.84-.17-1.78-.06-2.58.47-.95.61-1.54,1.68-1.63,2.8.93.2,1.94-.04,2.8-.66.37-.27.69-.59.94-.93.25.31.55.58.9.79.96.56,2.05.61,3,.32-.12-.41-.32-.81-.58-1.17-.28-.36-.63-.69-1.06-.96h0Z"/>
    <path class="st0" d="M55.26,36.5c-.59-.29-1.23-.43-1.85-.41-.86-.06-1.76.19-2.5.81-.87.73-1.32,1.79-1.34,2.8.94.1,1.93-.19,2.74-.87.35-.29.63-.64.84-1.01.28.28.61.52.99.7,1,.49,2.1.49,3.02.1-.31-.9-.96-1.66-1.89-2.11h0Z"/>
    <path class="st0" d="M55.95,40.76c-.61-.27-1.25-.38-1.86-.33-.86-.01-1.75.28-2.46.92-.83.75-1.25,1.82-1.19,2.93.95.06,1.92-.32,2.67-1.05.33-.32.6-.68.79-1.06.29.26.63.49,1.01.64,1.03.42,2.12.31,3.01-.11-.35-.79-1.02-1.51-1.98-1.93h0Z"/>
    <path class="st0" d="M56.87,44.81c-.64-.18-1.27-.23-1.88-.12-.85.07-1.72.44-2.36,1.17-.37.43-.62.94-.75,1.49-.11.55-.13,1.14.02,1.72.96-.08,1.83-.63,2.47-1.48.28-.37.49-.77.63-1.17.33.22.7.39,1.1.49,1.07.25,2.13-.07,2.94-.61-.44-.64-1.18-1.19-2.16-1.49Z"/>
    <path class="st0" d="M58.33,48.44c-.64-.03-1.28.06-1.85.28-.82.24-1.6.76-2.07,1.63-.27.51-.38,1.08-.36,1.69.02.6.22,1.2.52,1.77.93-.32,1.58-1.1,1.98-2.11.17-.44.26-.87.3-1.29.37.14.78.2,1.18.19.54-.02,1.04-.19,1.49-.44s.83-.59,1.16-.96c-.27-.21-.59-.4-1-.51-.38-.14-.84-.23-1.35-.24h0Z"/>
    <path class="st0" d="M60.56,51.34c-.6.18-1.18.47-1.66.86-.71.48-1.3,1.19-1.45,2.19-.1.59,0,1.17.24,1.74.23.58.63,1.09,1.13,1.51.75-.6,1.11-1.59,1.13-2.65,0-.46-.06-.9-.15-1.33.2,0,.39,0,.58-.04.2-.04.39-.1.58-.18,1.01-.43,1.63-1.31,2-2.23-.64-.21-1.44-.17-2.4.12h0Z"/>
    <path class="st0" d="M63.61,53.29c-.52.38-.96.84-1.28,1.37-.5.69-.82,1.58-.63,2.55.2,1.14,1.07,2.13,2.2,2.62.52-.81.6-1.84.3-2.87-.13-.44-.32-.85-.55-1.22.38-.12.73-.3,1.05-.57.84-.7,1.22-1.74,1.28-2.72-.75-.03-1.56.24-2.37.82h0Z"/>
    <path class="st0" d="M67.26,54.31c-.41.49-.72,1.06-.89,1.66-.3.81-.35,1.73.06,2.63.48,1.04,1.54,1.78,2.74,1.98.31-.91.14-1.93-.4-2.85-.23-.4-.52-.74-.83-1.04.34-.2.64-.48.88-.81.65-.89.76-1.98.58-2.95-.74.15-1.49.61-2.14,1.39h0Z"/>
    <path class="st0" d="M71.1,54.39c-.28.59-.44,1.2-.46,1.82-.1.85.08,1.77.7,2.53.73.88,1.94,1.34,3.19,1.22.07-.96-.37-1.9-1.13-2.65-.33-.33-.69-.58-1.07-.8.27-.28.49-.63.64-1,.39-1.03.2-2.1-.21-3-.64.32-1.23.97-1.67,1.87h0Z"/>
    <path class="st0" d="M74.73,53.49c-.09.64-.07,1.28.09,1.87.14.84.56,1.69,1.39,2.24.96.65,2.32.7,3.53.14-.23-.95-.97-1.67-1.94-2.14-.42-.19-.85-.35-1.27-.42.17-.36.28-.74.29-1.15.04-1.09-.53-2.04-1.19-2.75-.43.48-.76,1.23-.9,2.22h0Z"/>
    <path class="st0" d="M77.7,51.59c.16.6.41,1.2.77,1.7.44.74,1.11,1.38,2.1,1.58,1.14.23,2.48-.28,3.38-1.34-.59-.79-1.57-1.13-2.64-1.16-.47-.02-.91.04-1.34.11.03-.39-.04-.79-.18-1.17-.41-1.01-1.31-1.63-2.21-2.03-.17.58-.14,1.34.12,2.3h0Z"/>
    <path class="st0" d="M79.57,48.74c.42.49.89.92,1.41,1.22.35.24.74.44,1.18.55.43.11.92.14,1.4,0,.55-.15,1.11-.46,1.55-.9.21-.23.4-.49.57-.77.17-.28.32-.59.4-.9-.86-.47-1.89-.4-2.88,0-.44.17-.84.4-1.17.65-.15-.37-.37-.71-.65-.99-.79-.76-1.87-.99-2.85-.97.07.65.42,1.33,1.05,2.09h0Z"/>
    <path class="st0" d="M80.17,45.28c.56.32,1.15.54,1.76.62.84.19,1.76.12,2.6-.45.47-.33.84-.79,1.11-1.34.23-.53.39-1.16.37-1.77-.96-.15-1.92.21-2.73.9-.36.3-.65.64-.88,1-.27-.29-.58-.54-.95-.72-.99-.48-2.09-.39-3.01-.04.15.35.34.67.64.97.29.3.63.58,1.08.83h0Z"/>
    <path class="st0" d="M79.59,41.54c.63.17,1.27.22,1.88.13.85-.05,1.73-.39,2.37-1.14.75-.87,1-2.11.71-3.28-.96.09-1.83.65-2.45,1.51-.28.38-.47.77-.62,1.18-.32-.23-.7-.38-1.1-.48-1.08-.23-2.12.1-2.94.65.43.63,1.18,1.14,2.14,1.42h0Z"/>
  </g>
  <g>
    <g>
      <g>
        <path class="st5" d="M111.77,82.86s-1.68-4.6-.52-5.54c1.16-.94,4.32-.41,4.61.87.29,1.27-1.68,4.63-1.68,4.63,0,0,3.02-3.33,4.26-2.62s1.4,4.52.58,5.24-4.13-.17-4.13-.17c0,0,4.89,3.39,3.58,5.24s-4.13,1.84-4.89,1.07-.87-5.01-.87-5.01c0,0-1.49,4.31-2.68,4.43-1.2.12-3.7-1.75-3.42-2.93.28-1.18,3.94-3.02,3.94-3.02,0,0-4.64,1.01-5.18-.45-.54-1.46-.23-4.77,1.1-4.92,1.33-.15,5.3,3.18,5.3,3.18h0Z"/>
        <path class="st5" d="M112.32,86.52s-1.73.03-1.58-2.1c.15-2.14,2.62-2.31,3.68-.68,1.07,1.63-1.02,2.99-2.1,2.78h0Z"/>
      </g>
      <g>
        <path class="st5" d="M111.77,82.86s-1.68-4.6-.52-5.54c1.16-.94,4.32-.41,4.61.87.29,1.27-1.68,4.63-1.68,4.63,0,0,3.02-3.33,4.26-2.62s1.4,4.52.58,5.24-4.13-.17-4.13-.17c0,0,4.89,3.39,3.58,5.24s-4.13,1.84-4.89,1.07-.87-5.01-.87-5.01c0,0-1.49,4.31-2.68,4.43-1.2.12-3.7-1.75-3.42-2.93.28-1.18,3.94-3.02,3.94-3.02,0,0-4.64,1.01-5.18-.45-.54-1.46-.23-4.77,1.1-4.92,1.33-.15,5.3,3.18,5.3,3.18h0Z"/>
        <path class="st5" d="M112.32,86.52s-1.73.03-1.58-2.1c.15-2.14,2.62-2.31,3.68-.68,1.07,1.63-1.02,2.99-2.1,2.78h0Z"/>
      </g>
      <g>
        <path class="st5" d="M111.77,82.86s-1.68-4.6-.52-5.54c1.16-.94,4.32-.41,4.61.87.29,1.27-1.68,4.63-1.68,4.63,0,0,3.02-3.33,4.26-2.62s1.4,4.52.58,5.24-4.13-.17-4.13-.17c0,0,4.89,3.39,3.58,5.24s-4.13,1.84-4.89,1.07-.87-5.01-.87-5.01c0,0-1.49,4.31-2.68,4.43-1.2.12-3.7-1.75-3.42-2.93.28-1.18,3.94-3.02,3.94-3.02,0,0-4.64,1.01-5.18-.45-.54-1.46-.23-4.77,1.1-4.92,1.33-.15,5.3,3.18,5.3,3.18h0Z"/>
        <path class="st5" d="M112.32,86.52s-1.73.03-1.58-2.1c.15-2.14,2.62-2.31,3.68-.68,1.07,1.63-1.02,2.99-2.1,2.78h0Z"/>
      </g>
    </g>
    <g>
      <g>
        <path class="st1" d="M111.77,82.86s-1.68-4.6-.52-5.54c1.16-.94,4.32-.41,4.61.87.29,1.27-1.68,4.63-1.68,4.63,0,0,3.02-3.33,4.26-2.62s1.4,4.52.58,5.24-4.13-.17-4.13-.17c0,0,4.89,3.39,3.58,5.24s-4.13,1.84-4.89,1.07-.87-5.01-.87-5.01c0,0-1.49,4.31-2.68,4.43-1.2.12-3.7-1.75-3.42-2.93.28-1.18,3.94-3.02,3.94-3.02,0,0-4.64,1.01-5.18-.45-.54-1.46-.23-4.77,1.1-4.92,1.33-.15,5.3,3.18,5.3,3.18h0Z"/>
        <path class="st1" d="M112.32,86.52s-1.73.03-1.58-2.1c.15-2.14,2.62-2.31,3.68-.68,1.07,1.63-1.02,2.99-2.1,2.78h0Z"/>
      </g>
      <g>
        <path class="st5" d="M111.77,82.86s-1.68-4.6-.52-5.54c1.16-.94,4.32-.41,4.61.87.29,1.27-1.68,4.63-1.68,4.63,0,0,3.02-3.33,4.26-2.62s1.4,4.52.58,5.24-4.13-.17-4.13-.17c0,0,4.89,3.39,3.58,5.24s-4.13,1.84-4.89,1.07-.87-5.01-.87-5.01c0,0-1.49,4.31-2.68,4.43-1.2.12-3.7-1.75-3.42-2.93.28-1.18,3.94-3.02,3.94-3.02,0,0-4.64,1.01-5.18-.45-.54-1.46-.23-4.77,1.1-4.92,1.33-.15,5.3,3.18,5.3,3.18h0Z"/>
        <path class="st4" d="M112.32,86.52s-1.73.03-1.58-2.1c.15-2.14,2.62-2.31,3.68-.68,1.07,1.63-1.02,2.99-2.1,2.78h0Z"/>
      </g>
    </g>
  </g>
  <g>
    <path class="st0" d="M85.96,130.36c-.55-.36-1.17-.58-1.79-.65-.85-.17-1.79-.07-2.63.34-.98.48-1.63,1.28-1.85,2.16.92.25,1.97.17,2.9-.28.41-.2.75-.45,1.03-.74.23.29.51.55.85.78.9.6,2,.8,2.99.62-.13-.84-.64-1.66-1.5-2.23h0Z"/>
    <path class="st0" d="M85.83,134.15c-.55-.36-1.17-.58-1.79-.65-.85-.17-1.79-.07-2.63.34-.98.48-1.63,1.28-1.85,2.16.92.25,1.97.17,2.9-.28.41-.2.75-.45,1.03-.74.23.29.51.55.85.78.9.6,2,.8,2.99.62-.13-.84-.64-1.66-1.5-2.23h0Z"/>
    <path class="st0" d="M85.7,137.94c-.55-.36-1.17-.58-1.79-.65-.85-.17-1.79-.07-2.63.34-.98.48-1.63,1.28-1.85,2.16.92.25,1.97.17,2.9-.28.41-.2.75-.45,1.03-.74.23.29.51.55.85.78.9.6,2,.8,2.99.62-.13-.84-.64-1.66-1.5-2.23h0Z"/>
    <path class="st0" d="M85.57,141.73c-.55-.36-1.17-.58-1.79-.65-.85-.17-1.79-.07-2.63.34-.98.48-1.63,1.28-1.85,2.16.92.25,1.97.17,2.9-.28.41-.2.75-.45,1.03-.74.23.29.51.55.85.78.9.6,2,.8,2.99.62-.13-.84-.64-1.66-1.5-2.23h0Z"/>
  </g>
  <g>
    <path class="st0" d="M143.93,102.79c-.56-.35-1.19-.53-1.81-.58-.86-.14-1.79,0-2.62.44-.96.52-1.57,1.36-1.76,2.24.93.21,1.97.1,2.88-.4.4-.21.73-.48,1-.79.24.28.53.54.88.75.93.57,2.03.72,3.01.51-.16-.84-.71-1.65-1.59-2.18h0Z"/>
    <path class="st0" d="M143.95,106.6c-.56-.35-1.19-.53-1.81-.58-.86-.14-1.79,0-2.62.44-.96.52-1.57,1.36-1.76,2.24.93.21,1.97.1,2.88-.4.4-.21.73-.48,1-.79.24.28.53.54.88.75.93.57,2.03.72,3.01.51-.16-.84-.71-1.65-1.59-2.18h0Z"/>
    <path class="st0" d="M143.97,110.41c-.56-.35-1.19-.53-1.81-.58-.86-.14-1.79,0-2.62.44-.96.52-1.57,1.36-1.76,2.24.93.21,1.97.1,2.88-.4.4-.21.73-.48,1-.79.24.28.53.54.88.75.93.57,2.03.72,3.01.51-.16-.84-.71-1.65-1.59-2.18h0Z"/>
  </g>
  <path class="st0" d="M60.04,160.02c0,.26-.04.53,0,.79.01.06-.05.12-.12.14-.19.04-.36.02-.53-.04-.26-.09-.52-.14-.79-.18-.26-.03-.51-.1-.73-.23-.28-.16-.56-.33-.79-.54-.13-.12-.24-.25-.35-.39-.15-.2-.28-.41-.41-.61-.14-.2-.26-.41-.35-.64-.04-.1-.09-.2-.13-.3-.06-.17-.19-.28-.37-.35-.17-.07-.34-.15-.51-.21-.31-.11-.57-.26-.81-.47-.04-.03-.09-.06-.13-.08l-.95-.59s-.04-.03-.06-.03-.06.01-.07.03c-.17.27-.25.57-.3.87-.03.21,0,.54.05.74.06.18.11.36.19.53.41.9.49,1.86.24,2.84-.05.21-.14.41-.27.59-.08.11-.22.28-.3.38-.13.17-.29.33-.53.45-.2-.13-.36-.27-.52-.42-.07-.07-.15-.14-.23-.2-.2-.15-.35-.32-.5-.5-.09-.11-.16-.22-.25-.32-.2-.22-.35-.46-.47-.72-.15-.31-.19-.84-.07-1.17.17-.47.48-.86.84-1.22.44-.44.89-.88,1.3-1.35.09-.1.16-.2.22-.32.09-.2.16-.4.2-.6.02-.07,0-.15,0-.22-.02-.15-.06-.29-.06-.43,0-.23-.07-.45-.13-.67-.02-.07-.03-.15-.05-.22-.05-.27-.1-.54-.15-.82-.03-.19-.05-.38-.14-.56-.03-.07-.03-.16-.05-.25-.05-.29-.09-.57-.14-.86,0-.02-.03-.04-.05-.05-.02,0-.06,0-.07.02-.09.08-.17.17-.26.25-.18.15-.3.33-.41.52-.17.33-.29.67-.32,1.03-.03.22-.03.44-.05.65,0,.06-.02.12-.03.18-.02.09-.04.17-.05.25-.03.22-.14.43-.29.61-.13.15-.27.29-.44.41-.23.18-.48.36-.73.52-.26.16-.47.36-.74.5-.09.11-.22.15-.34.22-.14.08-.27.05-.35-.08-.03-.05-.06-.11-.08-.16-.03-.07-.04-.14-.07-.2-.12-.34-.2-.69-.26-1.05-.03-.24-.02-.48.03-.73.06-.32.26-.6.5-.85.14-.15.31-.3.48-.43.47-.33.92-.67,1.39-1,.23-.16.48-.29.76-.37.29-.08.53-.21.76-.38.2-.15.36-.32.5-.51.12-.15.16-.32.15-.49,0-.12-.02-.24-.03-.36-.03-.25,0-.51.03-.76.02-.13.06-.26.08-.4h0s.53-.14.53-.14c0,.03,0,.07,0,.11.05.12.09.25.15.37.13.29.36.52.54.79,0,0,0,0,0,0,.13.11.27.22.39.34.19.19.42.27.71.31.34.04.68.09.99.2.07.03.16.04.24.05.32.06.58.18.79.39.14.15.26.3.35.47.14.26.27.52.41.77.02.04.05.11.06.15.12.4.2.81.18,1.23,0,.33-.06.65-.09.98,0,.03-.02.07-.03.11,0,.03-.07.06-.1.06-.07-.03-.15-.06-.22-.09-.35-.15-.74-.23-1.08-.42h-.04c-.44-.14-.84-.35-1.19-.61-.47-.34-.81-.75-.95-1.28-.03-.11-.05-.21-.09-.31-.12-.33-.15-.66-.05-1.01.04-.14,0-.29-.1-.39-.06-.05-.1-.11-.15-.17-.06-.08-.14-.15-.18-.23-.09-.17-.23-.32-.34-.48-.02-.03-.05-.06-.08-.07-.02-.01-.05,0-.08,0,0,0-.02.02-.02.03-.04.1-.04.2-.02.29.03.16.03.33.03.5,0,.28.03.55.05.83.02.25.06.5.08.74.04.39.15,1.02.23,1.4.02.1.05.2.1.3.03.07.06.14.06.22.03.27.14.52.26.76.11.22.23.43.42.6.18.16.36.32.57.45.23.15.45.29.67.46.22.17.48.26.76.33.19.05.38.05.57,0,.24-.06.49-.11.74-.17.26-.06.5-.02.73.06.64.21,1.2.54,1.67.97.07.07.13.15.18.23.29.52.44,1.07.43,1.66h0Z"/>
  <path class="st0" d="M146.1,148.31c.02-.4.03-.8.05-1.19l-.06-1.01v-1.28c-2.03,1.57-4.05,3.13-6.07,4.7.03.54.03,1.13-.03,1.77-.2,2.16-.93,3.87-1.57,5.03-.07.18-.14.36-.21.53.27-.17.55-.35.82-.53.54-.39,1.25-.99,1.96-1.84.31-.37.84-1.05,1.51-2.36.55-1.08,1.26-2.71,1.78-4.86-.18,1.28-.58,3.02-1.5,4.92-1.33,2.75-3.12,4.54-4.28,5.53,0,0,.08.08.08.08,0,.02,0,.04,0,.07,0-.03,0-.06,0-.07.74-.47,1.35-.8,1.78-1.03.32-.17.64-.32,1.13-.61.43-.25.77-.48.99-.64.29-.22.57-.44.85-.67.21-.16.47-.39.72-.7.24-.29.41-.58.53-.81.2-.36.39-.72.59-1.08.12-.28.23-.59.34-.92.13-.4.24-.78.32-1.14.09-.64.19-1.28.28-1.92h0Z"/>
  <g>
    <path class="st0" d="M23.57,78.92c-.75-.47-1.58-.73-2.41-.8-1.14-.19-2.39-.02-3.5.58-1.29.7-2.11,1.81-2.36,3.01,1.24.29,2.63.15,3.85-.51.53-.29.97-.64,1.34-1.05.32.38.71.73,1.17,1.02,1.23.77,2.7.99,4.01.7-.21-1.14-.93-2.22-2.1-2.95h0Z"/>
    <path class="st0" d="M23.57,84.05c-.75-.47-1.58-.73-2.41-.8-1.14-.19-2.39-.02-3.5.58-1.29.7-2.11,1.81-2.36,3.01,1.24.29,2.63.15,3.85-.51.53-.29.97-.64,1.34-1.05.32.38.71.73,1.17,1.02,1.23.77,2.7.99,4.01.7-.21-1.14-.93-2.22-2.1-2.95h0Z"/>
    <path class="st0" d="M23.57,89.17c-.75-.47-1.58-.73-2.41-.8-1.14-.19-2.39-.02-3.5.58-1.29.7-2.11,1.81-2.36,3.01,1.24.29,2.63.15,3.85-.51.53-.29.97-.64,1.34-1.05.32.38.71.73,1.17,1.02,1.23.77,2.7.99,4.01.7-.21-1.14-.93-2.22-2.1-2.95h0Z"/>
  </g>
  <g>
    <path class="st5" d="M19.04,67.96s-2.46-4.68-1.35-5.85,4.57-1.06,5.06.26c.49,1.32-1.13,5.2-1.13,5.2,0,0,2.75-4,4.18-3.42,1.43.58,2.15,4.63,1.38,5.53-.77.89-4.44.41-4.44.41,0,0,5.73,2.92,4.59,5.08-1.14,2.16-4.16,2.56-5.08,1.85-.92-.71-1.66-5.23-1.66-5.23,0,0-.97,4.83-2.24,5.12-1.27.3-4.21-1.34-4.08-2.64s3.78-3.8,3.78-3.8c0,0-4.82,1.75-5.6.26-.79-1.49-.93-5.07.47-5.42,1.4-.35,6.13,2.65,6.13,2.65h0Z"/>
    <path class="st4" d="M20.15,71.78s-1.85.29-1.99-2.02,2.47-2.85,3.85-1.26c1.37,1.59-.66,3.35-1.85,3.28h0Z"/>
  </g>
  <g>
    <path class="st5" d="M19.58,124.46s-2.46-4.68-1.35-5.85c1.11-1.18,4.57-1.06,5.06.26.49,1.32-1.13,5.2-1.13,5.2,0,0,2.75-4,4.18-3.42,1.43.58,2.15,4.63,1.38,5.53-.77.89-4.44.41-4.44.41,0,0,5.73,2.92,4.59,5.08-1.14,2.16-4.16,2.56-5.08,1.85-.92-.71-1.66-5.23-1.66-5.23,0,0-.97,4.83-2.24,5.12-1.27.3-4.21-1.34-4.08-2.64s3.78-3.8,3.78-3.8c0,0-4.82,1.75-5.6.26-.79-1.49-.93-5.07.47-5.42,1.4-.35,6.13,2.65,6.13,2.65h0Z"/>
    <path class="st4" d="M20.69,128.29s-1.85.29-1.99-2.02,2.47-2.85,3.85-1.26c1.37,1.59-.66,3.35-1.85,3.28h0Z"/>
  </g>
  <path class="st0" d="M26.09,135.94c-.07-.26-.17-.51-.17-.78,0-.06-.07-.11-.14-.11-.19,0-.35.07-.5.16-.23.14-.47.26-.73.35-.24.09-.47.22-.65.39-.23.22-.47.45-.65.71-.1.15-.18.3-.25.46-.09.23-.18.46-.26.69s-.15.47-.19.7c-.02.11-.04.21-.06.32-.02.18-.12.32-.28.43-.15.11-.29.23-.45.32-.28.17-.5.39-.68.64-.03.04-.07.08-.11.11l-.79.79s-.03.04-.06.05-.06,0-.07-.01c-.23-.23-.37-.5-.49-.78-.08-.2-.13-.52-.12-.73.01-.19.03-.38.06-.56.19-.98.05-1.92-.41-2.83-.1-.19-.23-.36-.4-.51-.1-.09-.27-.22-.38-.31-.17-.14-.35-.25-.62-.32-.17.17-.29.35-.41.52-.06.09-.11.17-.17.25-.16.19-.27.39-.38.6-.06.12-.11.25-.17.37-.15.26-.23.52-.29.8-.07.34,0,.86.2,1.15.27.41.66.73,1.1.99.53.33,1.07.65,1.57,1.02.11.08.2.16.28.26.13.17.24.35.33.54.03.06.04.14.05.21.02.15,0,.29.04.43.05.23.03.45.03.68v.22c.01.28.03.55.04.82.01.19.04.38,0,.58-.02.08,0,.17,0,.25.02.29.04.58.06.87,0,.02-.02.05-.04.06-.02,0-.06.01-.08,0-.11-.06-.2-.12-.31-.18-.21-.11-.37-.25-.52-.42-.25-.28-.43-.59-.55-.93-.07-.2-.13-.42-.2-.63-.02-.06-.05-.11-.07-.17-.03-.08-.08-.15-.11-.23-.08-.21-.23-.38-.43-.52-.16-.12-.33-.22-.52-.3-.27-.12-.55-.24-.83-.34-.29-.09-.54-.25-.84-.32-.11-.08-.25-.1-.38-.14-.15-.05-.27.02-.32.15-.02.06-.03.12-.04.17,0,.07-.01.15-.02.21-.03.36-.04.72-.01,1.08.02.24.09.48.19.7.14.3.39.52.68.72.17.12.37.22.57.3.53.22,1.05.45,1.58.66.26.11.54.18.82.19.29,0,.56.08.82.2.23.1.42.23.6.38.15.12.23.27.26.44.02.12.04.24.05.36.03.25.11.5.2.73.05.12.12.24.17.37,0,0,0,0,0,.01h.54s-.02-.07-.03-.1c.02-.13.03-.26.06-.39.06-.31.23-.59.34-.89,0,0,0,0,0-.01.1-.14.21-.27.3-.42.14-.23.35-.36.62-.46.32-.12.64-.24.92-.43.07-.04.15-.07.22-.1.3-.13.53-.31.68-.57.1-.17.19-.35.24-.54.08-.28.15-.56.22-.84.01-.04.02-.12.03-.16.02-.42,0-.83-.1-1.24-.09-.32-.2-.62-.31-.93-.01-.03-.03-.06-.05-.1-.02-.03-.08-.05-.11-.03-.06.04-.13.09-.2.14-.32.22-.67.4-.95.65,0,0-.02.01-.03.02-.41.23-.74.52-1.02.85-.38.44-.61.92-.63,1.47,0,.11,0,.22-.01.32-.05.35,0,.68.18.99.07.13.07.28,0,.41-.04.06-.07.13-.11.2-.04.09-.1.17-.13.26-.05.19-.15.36-.22.55-.01.03-.03.06-.06.09-.02.02-.05.02-.08.03,0,0-.02-.01-.03-.02-.06-.09-.09-.18-.09-.28,0-.17-.05-.33-.09-.49-.07-.27-.1-.55-.14-.82-.03-.25-.06-.5-.09-.74-.05-.39-.09-1.02-.09-1.41,0-.11,0-.21.03-.32.02-.07.02-.15.01-.23-.03-.27.02-.53.08-.79.06-.23.12-.47.27-.68.14-.19.28-.39.45-.56.19-.19.38-.39.55-.6.17-.21.41-.36.66-.49.17-.09.35-.14.56-.13.25,0,.5,0,.76,0,.26,0,.49-.09.7-.22.58-.35,1.05-.8,1.4-1.33.06-.09.09-.17.12-.27.17-.57.19-1.14.04-1.72v.02Z"/>
  <path class="st5" d="M21.64,96.46s3.48,1.53,2.9,2.91-2.33,1.76-2.9,1.37c-.57-.4-1.19-3.13-1.19-3.13"/>
  <path class="st0" d="M28.52,114.58c-.28-.05-.55-.09-.82-.15-.09-.02-.18-.07-.27-.12-.37-.2-.64-.51-.87-.85-.37-.54-.56-1.15-.69-1.78-.03-.15-.02-.29.05-.44.23-.48.34-.99.44-1.51.03-.16.04-.32.03-.49-.03-.26-.03-.52-.04-.79,0-.08,0-.17-.02-.24-.09-.41-.16-.84-.33-1.23-.21-.5-.37-1.02-.74-1.43-.03-.03-.05-.08-.07-.13-.06-.12-.15-.21-.23-.32-.23-.27-.5-.47-.79-.66-.39-.25-.78-.48-1.17-.73-.32-.2-.66-.36-1.02-.49-.19-.07-.38-.07-.58-.04-.11.02-.18.08-.24.15-.04.05-.07.11-.1.17-.36.7-.56,1.43-.61,2.21-.05.76.05,1.51.3,2.23.15.42.31.83.47,1.24.05.12.11.23.18.35.23.4.55.73.93,1,.15.1.3.2.44.32.36.32.79.46,1.25.55.31.06.62.06.92-.07.03-.01.06-.02.09-.03.12-.03.27.06.31.18.02.08.03.16.05.24.03.13.03.26.08.38.14.35.27.7.49,1.02.14.2.26.42.38.63,0,.02,0,.06-.03.09s-.06.04-.08.03c-.05,0-.09-.02-.14-.04-.65-.23-1.27-.53-1.9-.81-.33-.15-.64-.33-.93-.55-.35-.27-.71-.53-1.06-.8-.37-.28-.72-.57-1.03-.91-.14-.16-.3-.3-.47-.43-.3-.25-.61-.5-.89-.78-.06-.06-.12-.12-.18-.17-.52-.4-.94-.9-1.37-1.41-.17-.2-.3-.43-.46-.64-.19-.25-.38-.5-.57-.74-.12-.16-.18-.26.02-.41.04-.03.07-.07.09-.12.04-.11.08-.22-.02-.32-.06-.06-.07-.15-.06-.23.07-.5.12-1.01.28-1.5.08-.25.14-.51.18-.76.06-.37.11-.75.12-1.12.02-.36,0-.72-.03-1.08-.04-.39-.12-.78-.2-1.16-.03-.17-.09-.35-.17-.51-.26-.49-.5-.99-.87-1.43-.12-.14-.21-.29-.32-.44-.1-.13-.19-.26-.31-.38-.23-.23-.45-.47-.64-.74-.06-.09-.14-.14-.23-.17-.08-.03-.15-.06-.23-.09-.15-.07-.29-.03-.41.06-.16.12-.29.26-.41.42-.23.3-.46.6-.67.91-.17.24-.32.5-.47.75-.24.41-.43.85-.54,1.31-.06.24-.1.48-.12.73-.01.15-.04.29-.07.44-.05.26-.09.52-.08.78.02.49.11.97.21,1.46.02.08.04.16.07.23.31.81.74,1.54,1.36,2.15.57.56,1.21,1,1.99,1.22.48.14.48.15.96.06.14.14.28.27.41.41.13.13.24.26.34.42.26.44.53.87.88,1.24.28.3.57.59.86.88.26.26.52.5.78.76.05.05.09.1.12.15.01.02.01.07,0,.09-.02.02-.06.03-.09.03-.1,0-.2-.03-.27-.09-.08-.06-.15-.13-.21-.2-.34-.42-.81-.67-1.26-.93-.29-.16-.59-.29-.87-.45-.38-.22-.79-.33-1.22-.36-.49-.03-.98-.05-1.47-.03-.38.01-.75.08-1.11.22-.55.22-1.09.46-1.58.79-.11.07-.22.14-.34.2-.24.12-.38.32-.39.58-.01.19-.1.3-.28.36-.03,0-.06.03-.09.04-.06.03-.1.16-.07.22.03.06.06.12.1.17.17.22.36.43.53.65.28.37.61.68.99.95.13.09.26.2.41.27.49.23,1,.43,1.53.52.41.07.81.12,1.22.13.23,0,.47.01.68-.05.41-.12.83-.21,1.21-.41.17-.09.36-.16.52-.28.26-.19.51-.41.77-.61.12-.1.19-.22.2-.38.03-.33.22-.58.44-.8.12-.12.26-.18.45-.12.09.03.19.03.29.04.12.01.23.02.34.03.17.01.32.07.45.18.12.11.25.21.38.32.32.29.65.55,1.01.79.38.26.76.52,1.14.78.23.16.48.29.74.39.71.29,1.43.59,2.14.87.29.12.58.24.88.3.5.11,1.02.19,1.53.26l-.2-.44h-.02Z"/>
  <path class="st0" d="M8.15,176.34c-.27-.33,2.05-1.85,3.93-5.56,1.05-2.08,1.46-3.89,2.24-7.43,1.17-5.37,1-7.24,1.39-7.26.81-.04,4.05,7.97.53,14.22-2.55,4.52-7.71,6.49-8.08,6.03h0Z"/>
  <path class="st0" d="M26.26,153.86c-.1-.55-.19-1.1-.29-1.65l-.39-1.36-.39-1.75c-2.3,2.75-4.59,5.49-6.88,8.24.2.73.38,1.54.49,2.42.38,3.01-.12,5.58-.65,7.35-.04.26-.09.53-.13.79.32-.32.64-.64.97-.97.62-.7,1.42-1.73,2.13-3.1.31-.59.83-1.69,1.36-3.68.44-1.65.91-4.08.97-7.17.13,1.8.11,4.3-.58,7.17-.99,4.15-2.91,7.14-4.2,8.84.01,0,.13.08.13.08,0,.02.01.05.03.09-.01-.04-.02-.07-.03-.09.87-.86,1.6-1.5,2.13-1.94.39-.32.78-.63,1.36-1.17.51-.47.91-.89,1.17-1.17.32-.39.64-.78.97-1.17.24-.29.52-.67.78-1.17.24-.47.39-.91.49-1.26.16-.55.32-1.1.49-1.65.08-.42.15-.87.19-1.36.06-.59.09-1.14.1-1.65-.06-.9-.13-1.81-.19-2.71h0Z"/>
  <path class="st2" d="M19.71,170.8c.19.24,1.97-1.67,5.59-2.6,2.47-.64,4.19-.4,4.21-.71.03-.35-2.04-1.18-4.16-.88-3.53.49-5.88,3.9-5.64,4.19h0Z"/>
  <path class="st0" d="M15.88,174.39c.2.51,6.93-1.28,9.06-.76,1.54.38,3,1,3,1,0,0,.01,0,.02,0,.11.19.27.46.5.76.29.37.46.58.76.76.58.34,1.17.26,1.26.25.23-.03.7-.1,1.01-.5.06-.08.26-.37.25-.76-.01-.34-.17-.54-.76-1.26-.35-.44-.78-.99-.76-1.01.02-.02.5.45,1.01,1.01,1.06,1.15,1.17,1.47,1.76,1.76.58.29,1.05.27,1.26.25.19-.02.47-.05.76-.25.09-.06.51-.37.5-.76-.01-.5-.74-.94-1.26-1.26-.15-.09-.39-.23-.5-.5-.06-.14-.12-.39,0-.5.13-.12.34.06.76,0,.14-.02.39-.06.5-.25.12-.2.02-.46,0-.5-.13-.32-.44-.46-1.26-.76-.79-.28-1.17-.42-1.51-.5-.14-.03-.79-.19-1.76-.25-.64-.04-.87-.01-2.27,0-.84,0-1.39,0-1.51,0-2.47,0-11.06,3.44-10.82,4.03h0Z"/>
  <path class="st0" d="M37.36,174.62c-.53,1.31,5.85,5.68,12.17,6.27.96.09,2.43.21,2.65-.33.37-.91-2.91-3.32-5.97-4.65-3.52-1.53-8.42-2.34-8.85-1.29h0Z"/>
  <path class="st0" d="M70.15,187.83c-1.61-.52-2.88-.72-3.43-.81l-.13-.02c-3.17-.52-7.14-2.67-11.79-6.41l.19-.23c4.61,3.7,8.53,5.84,11.65,6.35l.13.02c.55.09,1.84.29,3.47.82,1.85.59,3.62,1.44,5.29,2.51.29-.97.09-2.07.06-2.28-.26-1.46-1.14-2.38-1.55-2.8-1.4-1.45-3.11-1.88-5.09-2.36-1.3-.31-1.62-.25-4.28-.66-1.7-.26-3.08-.52-3.98-.7l-3.98-.7c-2.22-.41-2.86-.21-2.99.07-.29.66,1.94,2.24,4.72,4.2,2.73,1.93,4.74,3.07,5.53,3.5,1.85,1.02,2.93,1.47,5.09,2.36.59.25,1.66.67,3.1.81,1.14.11,1.98.19,2.65-.33.29-.22.48-.51.61-.83-1.66-1.07-3.43-1.92-5.27-2.51h0Z"/>
  <polygon class="st5" points="78.64 191.45 78.82 192.91 80.84 195.01 83.78 194.94 83.78 192.58 81.24 191.13 78.64 191.45"/>
  <path class="st5" d="M78.06,186.8c-.12.16.36.45.44,1.13.07.64-.3.93-.11,1.49.09.28.27.45.36.55.56.55,1.61.77,2.39.29.12-.07.59-.38.76-.98.17-.63-.05-1.34-.51-1.71-.43-.34-.72-.1-1.81-.36-.92-.22-1.4-.56-1.52-.4h0Z"/>
  <path class="st5" d="M83.88,188.05l-1.37.5c-.07.82-.13,1.63-.2,2.44.66.53,1.32,1.06,1.98,1.58l1.1-.4c.12-.81.23-1.63.35-2.44-.61-.56-1.23-1.13-1.85-1.69h0Z"/>
  <g>
    <path class="st0" d="M89.84,191.2c-.69.17-1.37.45-1.96.84-.85.48-1.61,1.23-1.89,2.33-.34,1.27.12,2.74,1.17,3.78.91-.63,1.4-1.71,1.54-2.91.06-.52.05-1.02,0-1.5.44.04.88-.01,1.31-.17,1.16-.41,1.94-1.4,2.45-2.39-.64-.24-1.52-.24-2.61.02h0Z"/>
    <path class="st0" d="M92.74,193.42c-.58.4-1.12.92-1.53,1.49-.63.75-1.07,1.72-.94,2.85.14,1.31,1.11,2.53,2.47,3.11.62-.93.68-2.1.38-3.27-.14-.5-.33-.98-.55-1.4.42-.13.82-.33,1.17-.64.93-.79,1.31-2.01,1.42-3.11-.69,0-1.5.33-2.42.97Z"/>
    <path class="st0" d="M96.26,194.45c-.41.59-.73,1.24-.9,1.93-.32.93-.38,1.98.14,3,.59,1.17,1.89,1.96,3.32,2.06.27-1.08-.06-2.21-.74-3.21-.3-.44-.64-.81-.99-1.12.35-.26.65-.6.88-.99.61-1.07.57-2.33.3-3.41-.68.24-1.37.82-2.01,1.74h0Z"/>
  </g>
  <g>
    <path class="st0" d="M127.82,196.51c-.37.49-.61,1.05-.72,1.64-.21.79-.18,1.69.2,2.5.44.94,1.24,1.55,2.14,1.73.27-.84.2-1.8-.23-2.65-.19-.37-.43-.7-.7-.97.29-.2.56-.45.79-.76.6-.82.8-1.8.65-2.72-.78.07-1.55.48-2.13,1.24h0Z"/>
    <path class="st0" d="M131.67,196.83c-.34.48-.55,1.03-.62,1.59-.17.77-.08,1.62.35,2.37.49.87,1.33,1.4,2.24,1.52.22-.82.1-1.72-.38-2.51-.21-.34-.47-.64-.76-.89.28-.2.53-.46.74-.76.55-.81.69-1.75.49-2.62-.78.11-1.52.53-2.06,1.3h0Z"/>
    <path class="st0" d="M135.54,196.92c-.31.47-.49,1.01-.52,1.54-.12.74.02,1.54.48,2.23.27.4.62.71,1.02.93s.84.35,1.3.38c.17-.79,0-1.63-.52-2.36-.23-.31-.5-.58-.8-.8.26-.21.5-.47.7-.76.51-.8.59-1.7.35-2.51-.77.15-1.5.59-1.98,1.35h0Z"/>
    <path class="st0" d="M139.41,196.78c-.29.47-.43.99-.44,1.5-.08.71.1,1.46.6,2.08.29.36.66.64,1.07.82.41.18.86.27,1.31.28.13-.76-.09-1.54-.64-2.2-.24-.29-.53-.52-.84-.7.26-.22.48-.48.65-.77.47-.78.5-1.65.21-2.39-.77.17-1.46.66-1.91,1.39h0Z"/>
    <path class="st0" d="M143.27,196.41c-.26.47-.38.96-.36,1.44-.04.67.18,1.37.71,1.92.61.63,1.52.95,2.42.87.09-.73-.16-1.45-.75-2.03-.26-.25-.55-.45-.87-.61.24-.22.45-.47.61-.77.42-.77.42-1.59.09-2.27-.38.11-.73.3-1.05.53-.32.24-.58.54-.79.9h0Z"/>
    <path class="st0" d="M147.11,195.81c-.24.45-.33.93-.29,1.39,0,.64.25,1.28.8,1.76.32.28.71.48,1.13.59.42.1.87.12,1.31.06.06-.69-.23-1.35-.84-1.86-.26-.22-.57-.38-.9-.5.23-.23.43-.49.57-.77.39-.76.35-1.52-.01-2.15-.37.13-.72.32-1.02.58-.3.25-.56.55-.75.9h0Z"/>
    <path class="st0" d="M150.9,194.98c-.22.44-.29.9-.23,1.33.02.6.3,1.19.87,1.6.33.24.73.39,1.15.47.42.07.87.07,1.31-.03.03-.65-.28-1.25-.91-1.68-.27-.19-.59-.33-.92-.42.22-.23.41-.48.54-.76.35-.74.28-1.46-.1-2.02-.36.16-.71.35-1,.61-.29.25-.53.55-.7.9h0Z"/>
    <path class="st0" d="M154.66,193.93c-.2.43-.25.86-.18,1.25.04.56.35,1.09.93,1.44.34.21.73.31,1.15.35.42.03.86-.02,1.29-.13,0-.61-.32-1.15-.97-1.51-.28-.15-.59-.26-.93-.32.21-.23.38-.49.5-.76.32-.72.23-1.37-.17-1.87-.72.32-1.33.87-1.64,1.55h0Z"/>
    <path class="st0" d="M158.34,192.64c-.18.42-.22.83-.13,1.19.06.52.38.99.97,1.27.34.16.74.25,1.15.23.41,0,.84-.09,1.27-.24-.02-.58-.36-1.05-1-1.33-.28-.12-.59-.19-.92-.22.2-.24.36-.49.47-.76.3-.7.18-1.31-.23-1.74-.7.36-1.28.94-1.57,1.58h0Z"/>
    <path class="st0" d="M161.95,191.13c-.17.41-.19.8-.09,1.13.08.48.41.9.99,1.11.34.12.73.16,1.14.12.41-.04.83-.16,1.24-.34-.03-.54-.38-.95-1.02-1.16-.28-.09-.59-.12-.91-.12.19-.24.34-.49.44-.75.27-.68.15-1.24-.27-1.61-.34.2-.65.45-.91.72-.26.28-.47.57-.6.89Z"/>
    <path class="st0" d="M165.47,189.42c-.16.4-.17.76-.07,1.06.09.44.42.81,1,.95.34.08.73.09,1.12,0,.39-.08.81-.23,1.2-.43-.04-.5-.39-.85-1.02-.99-.27-.06-.58-.06-.9-.03.18-.24.32-.49.42-.73.26-.66.12-1.17-.29-1.48-.33.22-.64.47-.88.76-.25.28-.45.58-.57.89h0Z"/>
    <path class="st0" d="M168.9,187.5c-.15.38-.16.72-.05.99.09.41.43.71.99.79.33.05.7,0,1.08-.1.38-.11.78-.28,1.16-.51-.05-.47-.39-.76-1.01-.82-.27-.03-.57,0-.87.05.17-.24.31-.48.4-.72.24-.64.1-1.11-.31-1.35-.32.24-.61.5-.85.79-.24.28-.43.58-.55.88h0Z"/>
    <path class="st0" d="M172.2,185.38c-.14.38-.14.7-.03.93.09.37.42.62.97.64.64.02,1.43-.29,2.16-.8-.05-.42-.38-.67-.97-.66-.26,0-.54.06-.84.14.16-.24.29-.49.38-.72.23-.62.09-1.04-.3-1.22-.62.5-1.13,1.11-1.35,1.69h0Z"/>
  </g>
  <g>
    <path class="st5" d="M113.56,190.34s.91-8.22,3.38-8.77c2.47-.55,6.85,2.63,6.33,4.77-.52,2.14-6.02,5.75-6.02,5.75,0,0,7.06-2.78,8.41-.77,1.34,2.01-1.27,7.89-3.05,8.37-1.78.48-6.12-3.35-6.12-3.35,0,0,4.86,8.81,1.49,10.61-3.37,1.8-7.63-.32-8.2-2.05s2.43-8.24,2.43-8.24c0,0-5.48,5.41-7.39,4.68-1.9-.73-4.28-5.42-2.97-7,1.31-1.58,8.23-1.61,8.23-1.61,0,0-7.78-1.95-7.49-4.57s3.24-7.39,5.35-6.61c2.12.78,5.62,8.8,5.62,8.8h0Z"/>
    <path class="st4" d="M111.65,196.28s-2.65-1.25-.82-4.37,5.69-1.53,6.09,1.73-3.79,3.76-5.27,2.63Z"/>
  </g>
  <g>
    <path class="st5" d="M84.23,150.76s.35-3.16,1.3-3.37,2.63,1.01,2.43,1.84-2.31,2.21-2.31,2.21c0,0,2.71-1.07,3.23-.29.52.77-.49,3.03-1.17,3.22s-2.35-1.29-2.35-1.29c0,0,1.87,3.38.57,4.08-1.3.69-2.94-.12-3.15-.79s.93-3.17.93-3.17c0,0-2.11,2.08-2.84,1.8-.73-.28-1.65-2.09-1.14-2.69s3.16-.62,3.16-.62c0,0-2.99-.75-2.88-1.76s1.25-2.84,2.06-2.54c.82.3,2.16,3.38,2.16,3.38h0Z"/>
    <path class="st4" d="M83.49,153.05s-1.02-.48-.31-1.68,2.19-.59,2.34.67-1.46,1.45-2.03,1.01Z"/>
  </g>
  <g>
    <path class="st5" d="M141.43,136.91s.4-3.62,1.49-3.87c1.09-.24,3.02,1.16,2.79,2.1s-2.65,2.54-2.65,2.54c0,0,3.12-1.22,3.71-.34.59.89-.56,3.48-1.34,3.7-.79.21-2.7-1.48-2.7-1.48,0,0,2.15,3.89.66,4.68-1.49.79-3.37-.14-3.62-.9-.25-.76,1.08-3.64,1.08-3.64,0,0-2.42,2.39-3.26,2.07-.84-.32-1.89-2.39-1.31-3.09s3.63-.71,3.63-.71c0,0-3.44-.86-3.31-2.02.13-1.16,1.43-3.26,2.36-2.92s2.48,3.88,2.48,3.88h0Z"/>
    <path class="st4" d="M140.59,139.53s-1.17-.55-.36-1.92c.81-1.38,2.51-.67,2.68.76.17,1.44-1.67,1.66-2.33,1.16h0Z"/>
  </g>
  <g>
    <path class="st5" d="M147.83,82.24s.15-1.3.53-1.38,1.08.41,1,.75-.95.91-.95.91c0,0,1.11-.44,1.33-.12.21.32-.2,1.25-.48,1.32-.28.08-.96-.53-.96-.53,0,0,.77,1.39.23,1.67-.53.29-1.2-.05-1.29-.32s.38-1.3.38-1.3c0,0-.87.85-1.17.74-.3-.12-.67-.86-.47-1.11s1.3-.26,1.3-.26c0,0-1.23-.31-1.18-.72.05-.41.51-1.17.84-1.05.33.12.89,1.39.89,1.39h0Z"/>
    <path class="st4" d="M147.52,83.17s-.42-.2-.13-.69c.29-.49.9-.24.96.27s-.6.59-.83.41Z"/>
  </g>
  <g>
    <g>
      <path class="st5" d="M51.12,141.41s.38-3.42,1.41-3.65,2.85,1.1,2.64,1.99c-.22.89-2.51,2.39-2.51,2.39,0,0,2.94-1.16,3.5-.32.56.84-.53,3.29-1.27,3.49-.74.2-2.55-1.4-2.55-1.4,0,0,2.03,3.67.62,4.42-1.4.75-3.18-.13-3.41-.85-.24-.72,1.02-3.43,1.02-3.43,0,0-2.28,2.25-3.08,1.95s-1.78-2.26-1.24-2.91c.55-.66,3.43-.67,3.43-.67,0,0-3.24-.82-3.12-1.9.12-1.09,1.35-3.08,2.23-2.75s2.34,3.66,2.34,3.66h-.01Z"/>
      <path class="st5" d="M50.32,143.89s-1.1-.52-.34-1.82c.76-1.3,2.37-.64,2.53.72s-1.57,1.57-2.19,1.1Z"/>
    </g>
    <g>
      <path class="st5" d="M51.12,141.41s.38-3.42,1.41-3.65,2.85,1.1,2.64,1.99c-.22.89-2.51,2.39-2.51,2.39,0,0,2.94-1.16,3.5-.32.56.84-.53,3.29-1.27,3.49-.74.2-2.55-1.4-2.55-1.4,0,0,2.03,3.67.62,4.42-1.4.75-3.18-.13-3.41-.85-.24-.72,1.02-3.43,1.02-3.43,0,0-2.28,2.25-3.08,1.95s-1.78-2.26-1.24-2.91c.55-.66,3.43-.67,3.43-.67,0,0-3.24-.82-3.12-1.9.12-1.09,1.35-3.08,2.23-2.75s2.34,3.66,2.34,3.66h-.01Z"/>
      <path class="st4" d="M50.32,143.89s-1.1-.52-.34-1.82c.76-1.3,2.37-.64,2.53.72s-1.57,1.57-2.19,1.1Z"/>
    </g>
  </g>
  <path class="st5" d="M82.49,121.33s.23-1.46-.38-3.25c-.48-1.41-3.39.96-2.85,1.78s2.16,2.1,2.16,2.1"/>
  <path class="st5" d="M84.38,120.97s1.36-.59,2.53-2.07c.93-1.17-2.64-2.34-3.04-1.45s-.61,2.95-.61,2.95"/>
  <path class="st5" d="M85.03,122.65s1.15.93,3.01,1.28c1.46.28.85-3.42-.13-3.37s-2.89.82-2.89.82"/>
  <path class="st5" d="M83.51,123.84s-.55,1.3-.37,3.12c.15,1.44,3.47,0,3.14-.9s-1.59-2.53-1.59-2.53"/>
  <path class="st5" d="M81.94,122.66s-1.4.17-2.89,1.24c-1.17.84,1.72,3.01,2.35,2.27s1.4-2.64,1.4-2.64"/>
  <ellipse class="st5" cx="83.5" cy="122.22" rx="1.09" ry="1.07" transform="translate(-63.57 105.54) rotate(-49.19)"/>
  <ellipse class="st5" cx="141.92" cy="98.04" rx="1.09" ry="1.07" transform="translate(-25.04 141.38) rotate(-49.19)"/>
  <path class="st5" d="M142.35,95.91s.99-1.17,1.4-3.09c.33-1.51-3.52-.97-3.49.05s.78,3.02.78,3.02"/>
  <path class="st5" d="M143.82,97.42s1.52.2,3.36-.48c1.45-.54-1.08-3.49-1.92-2.91-.84.58-2.12,2.29-2.12,2.29"/>
  <path class="st5" d="M143.2,99.75s.52,1.44,1.98,2.75c1.15,1.04,2.59-2.58,1.69-3.06s-3.01-.82-3.01-.82"/>
  <g>
    <path class="st0" d="M82.15,113.61c.38.16.78.25,1.18.24.55.04,1.14-.08,1.63-.45.57-.44.87-1.13.84-1.84-.61-.04-1.23.21-1.74.66-.22.19-.39.41-.53.63-.18-.16-.39-.29-.64-.38-.65-.24-1.35-.14-1.93.11.2.41.6.78,1.19,1.03h0Z"/>
    <path class="st0" d="M81.63,111.29c.4.08.82.08,1.2,0,.55-.07,1.1-.31,1.5-.78.47-.54.62-1.3.43-1.98-.61.09-1.17.47-1.55,1-.17.23-.3.48-.39.73-.21-.12-.45-.2-.7-.23-.69-.09-1.36.15-1.87.52.29.35.76.63,1.39.75h0Z"/>
    <path class="st0" d="M80.63,109.14c.41,0,.82-.1,1.18-.26.52-.19,1.01-.53,1.3-1.08.17-.32.25-.67.26-1.02,0-.34-.1-.69-.25-1.01-.57.21-1.04.7-1.31,1.31-.12.26-.19.53-.22.79-.23-.07-.48-.1-.74-.08-.69.05-1.28.42-1.71.89.17.15.38.26.64.34.26.07.53.12.86.11h0Z"/>
    <path class="st0" d="M79.21,107.23c.41-.1.78-.26,1.1-.5.47-.29.88-.74,1.05-1.33.2-.68.04-1.43-.4-1.97-.52.33-.88.89-1.03,1.54-.06.29-.07.55-.06.82-.23-.03-.49,0-.74.07-.67.19-1.18.67-1.51,1.21.2.12.44.18.71.21.26.03.55.01.87-.06h0Z"/>
    <path class="st0" d="M77.41,105.63c.38-.17.72-.41.99-.69.41-.37.72-.89.78-1.5.03-.35-.02-.7-.14-1.02-.13-.31-.33-.6-.58-.83-.45.42-.71,1.03-.74,1.7-.01.29.02.57.09.82-.24.03-.48.09-.72.2-.62.29-1.05.87-1.28,1.46.45.16,1.01.12,1.6-.12h0Z"/>
    <path class="st0" d="M75.33,104.34c.35-.22.64-.51.86-.84.34-.44.56-.99.52-1.61-.04-.71-.43-1.34-1.01-1.71-.38.48-.53,1.14-.46,1.8.03.29.11.55.21.79-.23.06-.46.16-.67.31-.57.4-.9,1.02-1.02,1.65.47.08,1.02-.03,1.57-.38h0Z"/>
  </g>
  <circle class="st5" cx="54.36" cy="115.72" r="1.63"/>
  <path class="st6" d="M50.83,112.74c.1.32.26.7.54,1.09.89,1.24,2.28,1.55,2.72,1.63"/>
  <path class="st5" d="M139.77,115.75c0-.19,0-.9.52-1.53.41-.5.91-.67,1.12-.73.16.04.79.2,1.25.82.46.62.42,1.28.41,1.45-.55.67-1.1,1.34-1.65,2.01-.55-.67-1.1-1.34-1.65-2.01h0Z"/>
  <path class="st5" d="M139.12,119.94c-.19,0-.9,0-1.52-.54-.49-.41-.66-.92-.72-1.13.04-.16.21-.79.83-1.24.63-.45,1.28-.41,1.45-.39.67.56,1.33,1.11,1.99,1.67-.68.54-1.36,1.08-2.03,1.62h0Z"/>
  <path class="st5" d="M143.68,119.94c.19,0,.9,0,1.52-.54.49-.41.66-.92.72-1.13-.04-.16-.21-.79-.83-1.24-.63-.45-1.28-.41-1.45-.39-.67.56-1.33,1.11-1.99,1.67.68.54,1.36,1.08,2.03,1.62h0Z"/>
  <path class="st5" d="M141.42,118.91c-.66.92-1.32,1.84-1.98,2.76l1.77,3.22,2.09-3.06c-.63-.97-1.25-1.95-1.88-2.92h0Z"/>
  <path class="st0" d="M143.4,124.54c-1.17,1.37-1.98,3-2.4,4.68-.42-1.67-1.23-3.31-2.4-4.68-1.51-1.77-3.33-2.73-5.04-2.84.13,2.36,1.07,4.86,2.73,6.8,1.32,1.54,2.88,2.47,4.39,2.76,0,.03,0,.06,0,.09.11,0,.22-.02.33-.03.11.01.22.03.33.03,0-.03,0-.06,0-.09,1.51-.29,3.06-1.22,4.39-2.76,1.66-1.94,2.6-4.44,2.73-6.8-1.7.12-3.52,1.08-5.04,2.84h0Z"/>
  <path class="st5" d="M126.43,95.58c6.73-2.19,12.88-6,17.86-11.04-.56.68-1.17,1.33-1.79,1.97-4.4,4.4-10.01,7.62-16.06,9.07h0Z"/>
  <g>
    <g>
      <path class="st5" d="M166.49,134.42s.4-3.62,1.49-3.87c1.09-.24,3.02,1.16,2.79,2.1s-2.65,2.54-2.65,2.54c0,0,3.12-1.22,3.71-.34.59.89-.56,3.48-1.34,3.7-.79.21-2.7-1.48-2.7-1.48,0,0,2.15,3.89.66,4.68-1.49.79-3.37-.14-3.62-.9-.25-.76,1.08-3.64,1.08-3.64,0,0-2.42,2.39-3.26,2.07-.84-.32-1.89-2.39-1.31-3.09s3.63-.71,3.63-.71c0,0-3.44-.86-3.31-2.02.13-1.16,1.43-3.26,2.36-2.92s2.48,3.88,2.48,3.88h0Z"/>
      <path class="st4" d="M165.65,137.04s-1.17-.55-.36-1.92c.81-1.38,2.51-.67,2.68.76.17,1.44-1.67,1.66-2.33,1.16h0Z"/>
    </g>
    <g>
      <path class="st5" d="M190.54,160.83s.11-.98.4-1.05.82.31.76.57-.72.69-.72.69c0,0,.84-.33,1-.09.16.24-.15.94-.36,1-.21.06-.73-.4-.73-.4,0,0,.58,1.05.18,1.26s-.91-.04-.98-.24.29-.98.29-.98c0,0-.65.64-.88.56-.23-.09-.51-.64-.35-.83s.98-.19.98-.19c0,0-.93-.23-.89-.55.03-.31.38-.88.64-.79.25.09.67,1.05.67,1.05h0Z"/>
      <path class="st4" d="M190.31,161.54s-.32-.15-.1-.52.68-.18.73.2-.45.45-.63.31h0Z"/>
    </g>
    <path class="st0" d="M170.06,121.54c-.56.38-1.02.9-1.34,1.48,0-.65-.13-1.34-.42-1.95-.38-.8-.95-1.33-1.57-1.54-.18.87-.09,1.88.33,2.76.33.7.81,1.19,1.34,1.44,0,0,0,.02-.01.03.04,0,.08.01.12.02.04.02.08.03.12.04,0,0,0-.02,0-.03.58.04,1.24-.15,1.88-.58.8-.55,1.39-1.37,1.67-2.22-.64-.12-1.4.05-2.13.55h0Z"/>
    <path class="st0" d="M168.55,124.81c-.6.32-1.12.78-1.5,1.31.09-.65.03-1.34-.19-1.98-.29-.84-.79-1.43-1.37-1.71-.29.85-.3,1.86,0,2.78.25.73.67,1.28,1.16,1.59,0,0,0,.02-.01.03.04.01.08.03.12.03.04.02.07.04.11.06,0,0,0-.02,0-.03.57.11,1.25,0,1.93-.35.86-.45,1.54-1.2,1.92-2.01-.61-.2-1.39-.12-2.17.29h0Z"/>
    <path class="st5" d="M169,118.21c.68-.55.15-2.15.06-2.4-1.02-2.94-4.95-4.31-5.15-4.03-.06.09.34.3.88,1.13.61.92.58,1.35,1.2,2.88.84,2.04,1.36,2.34,1.62,2.45.37.16.99.28,1.37-.03Z"/>
    <path class="st5" d="M177.25,103.49c-.43-.43-6.87,3.25-7.69,8.74-.07.48-.47,3.45.9,4.19l3.26-8.68c-.19,1.27-.54,2.85-1.2,4.58-.64,1.67-1.39,3.04-2.06,4.09.76.41,1.81,0,2.41-.41.42-.28,1.22-.97,2.04-4.83.6-2.87.39-3.61,1.17-5.43.69-1.62,1.32-2.12,1.18-2.26h0Z"/>
    <path class="st0" d="M170.34,116.7c-.3,1.83-.79,3.98-1.62,6.32-.99,2.82-2.2,5.13-3.29,6.94"/>
    <path class="st5" d="M174.65,154.94s.12-.73-.19-1.63c-.24-.7-1.7.48-1.43.89.27.41,1.08,1.05,1.08,1.05"/>
    <path class="st5" d="M175.6,154.76s.68-.29,1.27-1.04c.47-.58-1.32-1.17-1.52-.72-.2.45-.31,1.47-.31,1.47"/>
    <path class="st5" d="M175.92,155.59s.58.47,1.51.64c.73.14.43-1.71-.06-1.68s-1.45.41-1.45.41"/>
    <path class="st5" d="M175.16,156.19s-.27.65-.18,1.56c.07.72,1.73,0,1.57-.45-.17-.46-.79-1.26-.79-1.26"/>
    <path class="st5" d="M174.37,155.6s-.7.09-1.45.62c-.59.42.86,1.5,1.17,1.14.31-.37.7-1.32.7-1.32"/>
    <ellipse class="st5" cx="175.16" cy="155.37" rx=".55" ry=".53" transform="translate(-56.92 186.4) rotate(-49.19)"/>
    <path class="st0" d="M171.5,147.76c-1.33-1.53-1.82-1.71-2.5-2.9-.6-1.05-.61-1.62-.75-1.6-.41.06-1.09,5.19,1.58,7.91.23.24,1.7,1.69,2.68,1.23.03-.02.06-.04.09-.06-.65-.59-1.42-1.38-2.14-2.44-.59-.86-1-1.68-1.3-2.37l3.47,4.79c.45-.31.63-.98.66-1.44.02-.35-.02-1.08-1.8-3.13h0Z"/>
    <path class="st0" d="M182.82,158.44c1.6,1.24,1.81,1.73,3.03,2.33,1.09.54,1.65.52,1.63.66-.04.42-5.12,1.37-7.98-1.15-.25-.22-1.78-1.6-1.37-2.61.01-.03.03-.06.06-.1.62.62,1.46,1.34,2.55,2.01.89.54,1.73.91,2.44,1.17l-4.97-3.21c.28-.47.94-.69,1.4-.74.35-.04,1.08-.04,3.23,1.63h0Z"/>
  </g>
  <g>
    <path class="st5" d="M196.64,121.42s.12-.73-.19-1.63c-.24-.7-1.7.48-1.43.89.27.41,1.08,1.05,1.08,1.05"/>
    <path class="st5" d="M198.35,121.09s.68-.29,1.27-1.04c.47-.58-1.32-1.17-1.52-.72-.2.45-.31,1.47-.31,1.47"/>
    <path class="st5" d="M199.06,122.85s.58.47,1.51.64c.73.14.43-1.71-.06-1.68s-1.45.41-1.45.41"/>
    <path class="st0" d="M186.74,131.89c4.34-.54,8.1-3.51,9.94-7.43.28-.55.52-1.13.74-1.72-.12.61-.32,1.22-.53,1.81-1.54,4.16-5.63,7.39-10.14,7.34h0Z"/>
    <ellipse class="st5" cx="197.61" cy="122.64" rx="1.07" ry="1.04" transform="translate(-24.36 192.05) rotate(-49.19)"/>
    <path class="st5" d="M197.82,124.32s-.27.65-.18,1.56c.07.72,1.73,0,1.57-.45-.17-.46-.79-1.26-.79-1.26"/>
    <path class="st5" d="M195.72,123.07s-.7.09-1.45.62c-.59.42.86,1.5,1.17,1.14.31-.37.7-1.32.7-1.32"/>
  </g>
  <g>
    <g>
      <path class="st5" d="M221.19,134.09s.4-3.62,1.49-3.87c1.09-.24,3.02,1.16,2.79,2.1-.23.94-2.65,2.54-2.65,2.54,0,0,3.12-1.22,3.71-.34.59.89-.56,3.48-1.34,3.7-.79.21-2.7-1.48-2.7-1.48,0,0,2.15,3.89.66,4.68-1.49.79-3.37-.14-3.62-.9s1.08-3.64,1.08-3.64c0,0-2.42,2.39-3.26,2.07-.84-.32-1.89-2.39-1.31-3.09s3.63-.71,3.63-.71c0,0-3.44-.86-3.31-2.02.13-1.16,1.43-3.26,2.36-2.92s2.48,3.88,2.48,3.88h0Z"/>
      <path class="st4" d="M220.35,136.72s-1.17-.55-.36-1.92c.81-1.38,2.51-.67,2.68.76.17,1.44-1.67,1.66-2.33,1.16h0Z"/>
    </g>
    <g>
      <path class="st5" d="M245.24,160.51s.11-.98.4-1.05.82.31.76.57-.72.69-.72.69c0,0,.84-.33,1-.09.16.24-.15.94-.36,1-.21.06-.73-.4-.73-.4,0,0,.58,1.05.18,1.26s-.91-.04-.98-.24.29-.98.29-.98c0,0-.65.64-.88.56-.23-.09-.51-.64-.35-.83s.98-.19.98-.19c0,0-.93-.23-.89-.55.03-.31.38-.88.64-.79.25.09.67,1.05.67,1.05h0Z"/>
      <path class="st4" d="M245.01,161.22s-.32-.15-.1-.52.68-.18.73.2-.45.45-.63.31h0Z"/>
    </g>
    <path class="st0" d="M224.76,121.22c-.56.38-1.02.9-1.34,1.48,0-.65-.13-1.34-.42-1.95-.38-.8-.95-1.33-1.57-1.54-.18.87-.09,1.88.33,2.76.33.7.81,1.19,1.34,1.44,0,0,0,.02-.01.03.04,0,.08.01.12.02.04.02.08.03.12.04,0,0,0-.02,0-.03.58.04,1.24-.15,1.88-.58.8-.55,1.39-1.37,1.67-2.22-.64-.12-1.4.05-2.13.55h0Z"/>
    <path class="st0" d="M223.25,124.49c-.6.32-1.12.78-1.5,1.31.09-.65.03-1.34-.19-1.98-.29-.84-.79-1.43-1.37-1.71-.29.85-.3,1.86,0,2.78.25.73.67,1.28,1.16,1.59,0,0,0,.02-.01.03.04.01.08.03.12.03.04.02.07.04.11.06,0,0,0-.02,0-.03.57.11,1.25,0,1.93-.35.86-.45,1.54-1.2,1.92-2.01-.61-.2-1.39-.12-2.17.29h0Z"/>
    <path class="st5" d="M223.7,117.89c.68-.55.15-2.15.06-2.4-1.02-2.94-4.95-4.31-5.15-4.03-.06.09.34.3.88,1.13.61.92.58,1.35,1.2,2.88.84,2.04,1.36,2.34,1.62,2.45.37.16.99.28,1.37-.03Z"/>
    <path class="st5" d="M231.94,103.17c-.43-.43-6.87,3.25-7.69,8.74-.07.48-.47,3.45.9,4.19l3.26-8.68c-.19,1.27-.54,2.85-1.2,4.58-.64,1.67-1.39,3.04-2.06,4.09.76.41,1.81,0,2.41-.41.42-.28,1.22-.97,2.04-4.83.6-2.87.39-3.61,1.17-5.43.69-1.62,1.32-2.12,1.18-2.26h0Z"/>
    <path class="st0" d="M225.04,116.38c-.3,1.83-.79,3.98-1.62,6.32-.99,2.82-2.2,5.13-3.29,6.94"/>
    <path class="st5" d="M229.35,154.61s.12-.73-.19-1.63c-.24-.7-1.7.48-1.43.89.27.41,1.08,1.05,1.08,1.05"/>
    <path class="st5" d="M230.3,154.44s.68-.29,1.27-1.04c.47-.58-1.32-1.17-1.52-.72-.2.45-.31,1.47-.31,1.47"/>
    <path class="st5" d="M230.62,155.27s.58.47,1.51.64c.73.14.43-1.71-.06-1.68s-1.45.41-1.45.41"/>
    <path class="st5" d="M229.86,155.87s-.27.65-.18,1.56c.07.72,1.73,0,1.57-.45-.17-.46-.79-1.26-.79-1.26"/>
    <path class="st5" d="M229.07,155.28s-.7.09-1.45.62c-.59.42.86,1.5,1.17,1.14.31-.37.7-1.32.7-1.32"/>
    <ellipse class="st5" cx="229.86" cy="155.05" rx=".55" ry=".53" transform="translate(-37.72 227.69) rotate(-49.19)"/>
    <path class="st0" d="M226.2,147.44c-1.33-1.53-1.82-1.71-2.5-2.9-.6-1.05-.61-1.62-.75-1.6-.41.06-1.09,5.19,1.58,7.91.23.24,1.7,1.69,2.68,1.23.03-.02.06-.04.09-.06-.65-.59-1.42-1.38-2.14-2.44-.59-.86-1-1.68-1.3-2.37l3.47,4.79c.45-.31.63-.98.66-1.44.02-.35-.02-1.08-1.8-3.13h0Z"/>
    <path class="st0" d="M237.52,158.12c1.6,1.24,1.81,1.73,3.03,2.33,1.09.54,1.65.52,1.63.66-.04.42-5.12,1.37-7.98-1.15-.25-.22-1.78-1.6-1.37-2.61.01-.03.03-.06.06-.1.62.62,1.46,1.34,2.55,2.01.89.54,1.73.91,2.44,1.17l-4.97-3.21c.28-.47.94-.69,1.4-.74.35-.04,1.08-.04,3.23,1.63h0Z"/>
  </g>
  <g>
    <path class="st5" d="M251.34,121.1s.12-.73-.19-1.63c-.24-.7-1.7.48-1.43.89.27.41,1.08,1.05,1.08,1.05"/>
    <path class="st5" d="M253.05,120.77s.68-.29,1.27-1.04c.47-.58-1.32-1.17-1.52-.72-.2.45-.31,1.47-.31,1.47"/>
    <path class="st5" d="M253.76,122.52s.58.47,1.51.64c.73.14.43-1.71-.06-1.68s-1.45.41-1.45.41"/>
    <path class="st0" d="M241.44,131.57c4.34-.54,8.1-3.51,9.94-7.43.28-.55.52-1.13.74-1.72-.12.61-.32,1.22-.53,1.81-1.54,4.16-5.63,7.39-10.14,7.34h0Z"/>
    <ellipse class="st5" cx="252.31" cy="122.31" rx="1.07" ry="1.04" transform="translate(-5.16 233.34) rotate(-49.19)"/>
    <path class="st5" d="M252.52,123.99s-.27.65-.18,1.56c.07.72,1.73,0,1.57-.45-.17-.46-.79-1.26-.79-1.26"/>
    <path class="st5" d="M250.42,122.75s-.7.09-1.45.62c-.59.42.86,1.5,1.17,1.14.31-.37.7-1.32.7-1.32"/>
  </g>
  <g>
    <path class="st0" d="M280.16,118.2c-.47-.54-.96-.84-1.43-.92-.66-.22-1.36-.02-2.04.67-.79.8-1.39,2.08-1.66,3.46.76.34,1.69.16,2.48-.59.34-.33.62-.74.84-1.2.2.44.44.84.74,1.17.79.89,1.78,1.13,2.6.81-.25-1.31-.79-2.55-1.52-3.38h0Z"/>
    <path class="st0" d="M280.46,124.09c-.54-.54-1.1-.83-1.66-.92-.77-.22-1.59-.02-2.36.67-.9.8-1.58,2.08-1.88,3.46.88.34,1.94.16,2.83-.59.39-.33.71-.74.97-1.2.23.44.51.84.85,1.17.91.88,2.03,1.13,2.97.8-.27-1.31-.88-2.55-1.72-3.38h0Z"/>
    <path class="st0" d="M280.76,129.98c-.61-.54-1.25-.83-1.88-.92-.87-.22-1.81-.02-2.69.67-1.02.8-1.78,2.08-2.1,3.46.99.34,2.18.16,3.19-.59.44-.33.8-.74,1.09-1.2.26.44.57.84.96,1.17,1.02.88,2.28,1.13,3.35.8-.29-1.31-.97-2.55-1.91-3.38h0Z"/>
    <path class="st0" d="M281.05,135.87c-.67-.54-1.4-.83-2.11-.92-.98-.22-2.03-.02-3.02.67-1.14.8-1.98,2.08-2.32,3.46,1.11.34,2.42.16,3.55-.59.49-.33.89-.74,1.22-1.2.29.44.64.84,1.07,1.17,1.14.88,2.53,1.13,3.72.8-.31-1.31-1.05-2.55-2.11-3.38h0Z"/>
    <path class="st0" d="M281.35,141.75c-.75-.53-1.54-.83-2.33-.91-1.09-.22-2.25-.02-3.34.67-1.26.8-2.17,2.09-2.54,3.46,1.22.34,2.67.16,3.9-.59.54-.33.98-.74,1.34-1.2.32.44.7.84,1.18,1.17,1.25.88,2.79,1.13,4.09.8-.32-1.31-1.14-2.55-2.3-3.38h0Z"/>
    <path class="st0" d="M281.65,147.64c-.82-.53-1.69-.83-2.56-.91-1.19-.22-2.48-.02-3.67.67-1.38.8-2.37,2.09-2.76,3.46,1.34.34,2.91.16,4.26-.6.58-.33,1.08-.74,1.46-1.21.35.44.77.84,1.28,1.17,1.37.88,3.04,1.13,4.46.8-.35-1.31-1.23-2.55-2.5-3.38h0Z"/>
    <path class="st0" d="M281.94,153.52c-.88-.53-1.84-.83-2.78-.91-1.3-.22-2.7-.02-3.99.67-1.5.8-2.56,2.09-2.98,3.46,1.46.33,3.16.16,4.62-.6.64-.33,1.17-.74,1.59-1.21.38.44.84.84,1.4,1.17,1.48.88,3.29,1.13,4.84.8-.37-1.31-1.31-2.54-2.69-3.38h0Z"/>
  </g>
  <g>
    <path class="st0" d="M294.1,104c-.21.52-.24,1.02-.12,1.45.09.63.47,1.19,1.12,1.57.76.45,1.7.59,2.59.46,0-.7-.34-1.4-1.05-1.87-.31-.2-.66-.33-1.03-.41.23-.26.42-.56.56-.87.37-.84.31-1.67-.15-2.27-.88.43-1.6,1.14-1.93,1.95h0Z"/>
    <path class="st0" d="M298.43,102.5c-.27.51-.34,1.01-.27,1.47.03.65.36,1.27.97,1.74.71.55,1.62.81,2.49.8.07-.72-.17-1.49-.82-2.05-.28-.24-.61-.43-.97-.55.25-.25.48-.52.65-.83.47-.81.52-1.67.13-2.34-.96.33-1.77.96-2.18,1.76h0Z"/>
    <path class="st0" d="M303,101.54c-.35.47-.5.98-.49,1.46-.06.67.19,1.35.71,1.92.3.34.66.61,1.04.82.38.2.78.35,1.17.44.19-.71.12-1.54-.4-2.24-.23-.3-.52-.55-.86-.73.29-.21.56-.44.79-.72.31-.38.52-.76.63-1.16.1-.4.1-.81-.03-1.19-.27.03-.53.09-.78.17-.25.08-.49.17-.7.3-.44.24-.81.55-1.08.93h0Z"/>
    <path class="st0" d="M307.86,101.5c-.49.37-.75.86-.85,1.34-.22.66-.12,1.4.21,2.1.19.42.44.77.7,1.08.13.15.26.29.4.42.14.12.28.23.41.33.2-.32.36-.68.45-1.07s.09-.81-.03-1.23c-.11-.35-.3-.7-.57-.98.34-.13.67-.26.99-.47.21-.14.41-.26.58-.42.17-.15.32-.32.45-.49.25-.35.39-.74.38-1.16-.29-.06-.59-.12-.88-.12s-.57,0-.84.06c-.27.06-.52.13-.76.23-.23.11-.44.23-.64.38h0Z"/>
    <path class="st0" d="M312.77,103.24c-.64.12-1.09.45-1.39.86-.49.53-.68,1.25-.73,2.04-.02.23-.01.44,0,.64,0,.21.01.41.04.58.02.18.03.35.07.5.03.15.04.29.09.4.34-.19.67-.41.97-.69.29-.28.53-.62.67-1.05.12-.38.1-.75.02-1.14.35.07.74.08,1.11.09.5,0,1-.07,1.41-.22.41-.15.76-.41.98-.79-.23-.25-.5-.47-.77-.66-.27-.18-.55-.31-.83-.42-.28-.11-.56-.15-.83-.19-.27-.03-.53-.02-.79.03h0Z"/>
    <path class="st0" d="M316.21,107.53c-.62-.26-1.19-.26-1.68-.09-.71.15-1.34.65-1.84,1.25-.14.17-.28.35-.4.54-.12.19-.21.36-.29.55-.09.2-.15.39-.19.58-.04.18-.08.41-.09.6.8.05,1.66-.18,2.33-.83.29-.28.49-.61.64-.99.26.24.58.46.92.64.88.47,1.85.53,2.62.12-.09-.26-.19-.5-.32-.73-.14-.24-.29-.47-.47-.68-.16-.2-.36-.4-.58-.56-.21-.16-.43-.3-.66-.4h0Z"/>
    <path class="st0" d="M317.24,112.31c-.52-.34-1.08-.49-1.61-.48-.75-.06-1.51.18-2.18.71-.39.31-.69.67-.93,1.09s-.38.85-.45,1.32c.81.17,1.72,0,2.48-.56.33-.25.59-.55.81-.9.23.29.5.55.82.76.84.57,1.81.7,2.65.41-.1-.46-.3-.93-.57-1.33-.26-.4-.61-.76-1.02-1.02h0Z"/>
    <path class="st0" d="M317.59,116.83c-.51-.36-1.07-.54-1.62-.58-.76-.12-1.57.06-2.29.56-.83.58-1.37,1.48-1.52,2.42.83.2,1.77.06,2.56-.48.35-.24.64-.53.87-.87.22.3.49.57.81.79.84.59,1.84.74,2.71.49-.19-.92-.71-1.78-1.52-2.34h0Z"/>
    <path class="st0" d="M317.78,121.28c-.52-.36-1.09-.56-1.66-.6-.78-.13-1.61.03-2.36.52-.87.57-1.43,1.48-1.6,2.43.85.22,1.81.08,2.64-.46.36-.23.66-.53.9-.85.22.3.5.57.82.8.86.6,1.88.76,2.77.51-.18-.91-.71-1.77-1.52-2.33h0Z"/>
    <path class="st0" d="M317.9,125.7c-.53-.37-1.11-.56-1.69-.61-.8-.14-1.66.02-2.43.51-.9.57-1.48,1.47-1.67,2.42.87.22,1.86.09,2.71-.45.37-.23.68-.52.93-.85.23.3.5.58.83.8.87.6,1.92.76,2.84.52-.17-.91-.71-1.77-1.53-2.34h0Z"/>
    <path class="st0" d="M317.99,130.12c-.54-.37-1.14-.57-1.73-.61-.82-.14-1.7,0-2.49.5-.92.57-1.52,1.46-1.72,2.42.89.22,1.9.09,2.78-.44.38-.23.7-.52.96-.85.23.3.52.58.85.8.9.61,1.97.77,2.91.53-.18-.91-.73-1.77-1.57-2.34h0Z"/>
    <path class="st0" d="M318.08,134.54c-.55-.37-1.17-.57-1.77-.62-.84-.15-1.74,0-2.55.49-.94.56-1.56,1.46-1.75,2.41.91.23,1.95.1,2.85-.43.39-.23.72-.52.98-.84.24.3.53.58.87.81.92.61,2.01.78,2.98.54-.18-.91-.74-1.77-1.6-2.35h0Z"/>
    <path class="st0" d="M318.18,138.96c-.57-.37-1.19-.58-1.81-.63-.86-.15-1.78,0-2.61.48-.96.56-1.59,1.45-1.8,2.4.93.23,1.99.11,2.91-.42.4-.23.73-.52,1.01-.84.24.3.54.58.89.81.94.61,2.06.79,3.05.55-.19-.91-.76-1.78-1.64-2.36h0Z"/>
    <path class="st0" d="M318.27,143.38c-.58-.38-1.22-.58-1.86-.64-.87-.15-1.82,0-2.67.47-.99.55-1.63,1.45-1.84,2.39.96.23,2.04.12,2.98-.41.41-.23.75-.51,1.03-.84.25.31.55.58.91.82.96.62,2.11.79,3.12.57-.19-.91-.77-1.78-1.68-2.36h0Z"/>
  </g>
</svg>