<?xml version="1.0" encoding="UTF-8"?>
<svg id="Layer_1" xmlns="http://www.w3.org/2000/svg" version="1.1" viewBox="0 0 587.06 666.85">
  <!-- Generator: Adobe Illustrator 30.0.0, SVG Export Plug-In . SVG Version: 2.1.1 Build 123)  -->
  <defs>
    <style>
      .st0 {
        fill: #e8000c;
      }

      .st1 {
        fill: #cc0514;
      }

      .st2 {
        fill: #fff;
      }

      .st3 {
        fill: #751114;
      }

      .st4 {
        fill: #700d28;
      }

      .st5 {
        fill: #751113;
      }

      .st6 {
        fill: #c42126;
      }

      .st7 {
        fill: #be2141;
      }
    </style>
  </defs>
  <path class="st2" d="M355.31,132.96c-.42-19.04,1.83-32.99-14.62-46.53-7.92-6.51-18.79-8.39-28.72-8.75-11.44-.41-25.44-.29-36.87.31-10.6.56-21.42,2.86-29.59,10.16-13.92,12.44-12.5,24.26-12.64,41.1-.14,17.14-.21,35.46.65,52.54,1.11,21.75,8.62,35.75,28.02,46.83,5.7,3.25,12.13,5.76,17.59,9.44,3.48,2.34,1.86,2.15,1.69,5.55-.19,3.83.16,7.34,3.2,10.06l.19,35.92.13,24.27.03,6.12h-.08c-2.69,0-3.22,1.64-3.41,3.99-.08.98-.19,2.43-.12,3.89.12,2.29.68,4.59,2.47,5.1h1.69s18.56-.12,18.56-.12l4.68-.03c1.68.32,2.35-2.22,2.52-4.95.18-2.65-.1-5.47-.37-5.99-.78-1.56-1.95-1.97-3.51-2.23l-.03-5.78-.1-19.94-.02-4.33-.19-36.51c3.31-2.7,2.93-7.72,2.57-11.56-.04-.52-.6-1.1-.43-1.64.23-.73,1.23-1.44,1.85-1.89,11.76-8.67,24.46-10.77,34.36-23.56,11.49-14.85,10.67-29.92,10.79-47.48.07-11.3-.04-22.69-.29-33.99Z"/>
  <g>
    <path class="st2" d="M282.01,332.31c-.06-1.73-.13-3.42-.2-5.09-.13-2.71-.27-5.34-.43-7.88-.13-2.1-.28-4.13-.43-6.12-.72-9.19-1.68-17.24-2.77-24.27-5.33-34.27-13.91-44.24-13.91-44.24-5.74-8.72-14.01-6.35-23.18-4.64-43.89,8.19-75.9-20.23-80.34-43.26-2.62-13.61,4.86-28.77,22.66-29.87,14.95-.92,18.76.21,21.01-2.82,3.89-5.25.78-15.71-19.64-20.87-26.86-6.79-48.75-37.08-48.75-37.08-.05,14.75,7.02,25.41,7.02,25.41-40.09-6.58-75.69-59.83-75.69-59.83-4.12,11.33,3.78,32.88,3.78,32.88-39.66-11.85-49.44-61.29-49.44-61.29-16.48,56.65,33.47,90.13,33.47,90.13-20.81,2.03-38.63-7.95-39.13-8.23,12.88,36.04,48.4,48.4,48.4,48.4-14.42,10.81-35.53,11.33-35.53,11.33,15.45,26.78,51.91,32.18,51.91,32.18-16.94,11.63-22.74,22.73-22.74,22.73,8.24,6.18,35.2,1.74,35.2,1.74-8.24,6.18-10.81,23.69-10.81,23.69,5.66,5.66,25.75-3.61,25.75-3.61-5.15,8.24-5.67,21.64-5.67,21.64,10.67,2.53,28.36-6.45,28.84-6.69-2.49,3.04-3.51,7.61-3.77,12.3-.48,8.84,1.72,18.08,1.72,18.08,9.13-.51,23.73-13.49,24.19-13.9-3.2,8.55-3.08,15.44-2.22,20.09.8,4.3,2.23,6.68,2.23,6.68,5.67-1.42,10.38-4.03,14.02-6.68,5.61-4.08,8.64-8.25,8.64-8.25-.52,2.81-.66,5.59-.56,8.25.22,5.54,1.51,10.52,2.67,14,1.06,3.13,2.01,5.04,2.01,5.04,3.59-.9,6.66-2.8,9.21-5.04,6.22-5.47,9.33-12.98,9.33-12.98-.43,5.14-.1,9.44.59,12.98,1.8,9.24,6.11,13.28,6.11,13.28.63-.43,1.24-.9,1.83-1.39.78-.65,1.52-1.36,2.22-2.09,2.9-3.05,5.1-6.65,6.68-9.8,2.17-4.34,3.17-7.83,3.17-7.83.59,3.16,1.33,5.74,2.14,7.83,2.72,7.11,6.1,8.65,6.1,8.65l2.58-.52c1.8-2.52,2.93-5.32,3.6-8.13,1.24-5.18.93-10.41.42-14-.36-2.52-.82-4.24-.91-4.59.65,2.07,1.89,3.54,3.29,4.59,3.1,2.32,6.99,2.56,6.99,2.56,0,0-.52-.97-1.11-2.56-1.1-2.91-2.46-7.9-1.47-12.89,1.55-7.72,11.85-11.33,11.85-11.33l.72,24.22.42,14,.29,9.47.11,3.81c.02.31.04.63.07.94.13,1.87.28,3.7.45,5.49.13,1.41.27,2.79.42,4.15.46,4.19,1.01,8.15,1.64,11.88.11.67.22,1.33.34,1.99.03.17.06.34.09.51.28,1.57.57,3.1.88,4.59.29,1.41.59,2.78.9,4.12.36,1.59.74,3.13,1.13,4.62.45,1.71.91,3.36,1.38,4.94.48,1.63.97,3.19,1.48,4.68,1.87,5.58,3.86,10.29,5.79,14.21.38.76.75,1.49,1.12,2.19,0,.01.01.02.02.03h0c.38.73.76,1.43,1.14,2.09,0,.02,0,.03.03.05.38.7.77,1.36,1.15,1.99,4.6,7.63,8.24,10.64,8.24,10.64l.61-24.25.04-1.51.04-1.5.14-5.82.04-1.51.04-1.5v-.46s.13-4.65.13-4.65l.12-4.79.36-14.46.02-.63c.02-1.47.03-2.92.03-4.36.04-7.8-.07-15.07-.31-21.86Z"/>
    <path class="st2" d="M572.11,131.06c-.5.28-18.32,10.26-39.13,8.23,0,0,49.95-33.48,33.47-90.13,0,0-9.78,49.44-49.44,61.29,0,0,7.91-21.55,3.78-32.88,0,0-35.6,53.25-75.69,59.83,0,0,7.07-10.66,7.02-25.41,0,0-21.89,30.29-48.75,37.08-20.42,5.16-23.52,15.62-19.63,20.87,2.24,3.03,6.05,1.9,21,2.82,17.81,1.1,25.29,16.26,22.66,29.87-4.44,23.03-36.45,51.45-80.34,43.26-9.17-1.71-17.44-4.08-23.18,4.64,0,0-8.58,9.97-13.91,44.24-.22,1.4-.43,2.85-.64,4.33-.83,5.96-1.55,12.58-2.13,19.94-.34,4.4-.63,9.06-.86,14-.07,1.63-.14,3.29-.2,4.98-.14,4.18-.24,8.54-.29,13.1,0,1.53-.02,3.08-.03,4.66-.01,2.79.01,5.64.04,8.57l.38,15.09.12,4.79.13,5.12.14,5.47.08,3.35.12,4.53.57,22.73s3.83-3.17,8.58-11.23c.83-1.38,1.67-2.91,2.53-4.59.11-.2.21-.41.32-.63.42-.84.85-1.72,1.28-2.64.71-1.55,1.43-3.2,2.14-4.97.4-.97.8-1.98,1.19-3.03.68-1.82,1.35-3.74,2-5.78.16-.49.32-.99.47-1.5.16-.49.31-.98.45-1.49.05-.16.1-.32.15-.48.46-1.56.91-3.18,1.34-4.86.4-1.55.78-3.14,1.16-4.79.43-1.88.83-3.83,1.22-5.85.19-.96.37-1.94.54-2.94,1.28-7.23,2.29-15.31,2.9-24.33l.4-13.28.42-14,.72-24.22s10.3,3.61,11.85,11.33c.99,4.99-.37,9.98-1.47,12.89-.59,1.59-1.11,2.56-1.11,2.56,0,0,3.89-.24,6.99-2.56,1.4-1.05,2.64-2.52,3.29-4.59-.09.35-.55,2.07-.91,4.59-.51,3.6-.82,8.82.43,14,.67,2.81,1.8,5.61,3.6,8.13l2.57.52s3.38-1.54,6.11-8.65c.8-2.09,1.54-4.67,2.13-7.83,0,0,1,3.49,3.17,7.83,2.13,4.25,5.4,9.32,9.98,12.73.25.19.5.37.76.55,0,0,1.18-1.1,2.56-3.48,1.26-2.17,2.69-5.39,3.54-9.8.7-3.54,1.02-7.84.59-12.98,0,0,3.11,7.51,9.33,12.98,2.55,2.24,5.62,4.14,9.21,5.04,0,0,.95-1.91,2.01-5.04,1.16-3.48,2.45-8.46,2.67-14,.1-2.66-.04-5.44-.56-8.25,0,0,3.03,4.17,8.64,8.25,3.64,2.65,8.35,5.26,14.02,6.68,0,0,1.43-2.38,2.23-6.68.86-4.65.98-11.54-2.22-20.09.46.41,15.07,13.39,24.2,13.9,0,0,2.2-9.24,1.71-18.08-.26-4.68-1.27-9.26-3.76-12.3.48.24,18.16,9.22,28.83,6.69,0,0-.52-13.4-5.67-21.64,0,0,20.09,9.27,25.75,3.61,0,0-2.57-17.51-10.81-23.69,0,0,26.96,4.44,35.2-1.74,0,0-5.8-11.1-22.74-22.73,0,0,36.46-5.4,51.91-32.18,0,0-21.11-.52-35.53-11.33,0,0,35.52-12.36,48.4-48.4Z"/>
  </g>
  <g>
    <path class="st5" d="M587.06,102.82l-24.49,13.99s-1.71.95-4.58,2.14c12.71-17.54,23.93-44.13,14.11-77.88L560.16,0l-8.31,41.95c-.05.28-5.67,26.83-23.98,43.04.49-6.38-.05-11.81-1.64-16.17l-7.03-19.31-11.44,17.07c-.23.35-22.7,33.47-50.17,48.57.4-2.8.6-5.61.59-8.37l-.1-32.06-18.78,25.98c-.2.28-20.01,27.3-42.86,33.08-18.78,4.75-25.49,13.5-27.81,20-2.14,6.01-1.28,12.27,2.35,17.19,4.62,6.22,10.79,6.39,18.71,6.61,2.6.07,5.87.16,10.04.41,4.63.29,8.14,1.95,10.46,4.94,2.52,3.24,3.49,7.93,2.6,12.55-3.18,16.54-28.69,42.38-68.18,34.98l-2.04-.39c-.28-.05-.55-.1-.83-.16,13.99-11.49,20.77-26.35,21.85-47.59.88-17.36.81-35.77.67-53.16,0-1.37,0-2.71,0-4.01v-.44c0-15.39,0-29.94-16.12-44.34-8.73-7.8-20.5-11.99-35.99-12.8-4.85-.25-10.41-.42-16.16-.5v-.04h-3.16l-1.74.02v.02c-5.75.08-11.31.25-16.16.5-15.49.81-27.26,5-35.99,12.8-16.12,14.4-16.12,28.95-16.11,44.34v.44c0,1.3,0,2.64-.01,4.02-.15,17.38-.22,35.79.66,53.15,1.08,21.24,7.86,36.1,21.86,47.59-.32.06-.63.12-.94.18l-1.93.37c-39.5,7.38-65-18.44-68.19-34.98-.89-4.62.09-9.31,2.6-12.55,4.89-6.31,16.64-5.24,20.6-5.35,7.82-.22,14-.39,18.61-6.61,3.64-4.92,4.49-11.18,2.35-17.19-2.32-6.5-9.03-15.25-27.81-20-30.45-7.7-61.63-59.06-61.63-59.06,0,0,.04,37.36.48,40.43-33.82-18.6-61.61-65.64-61.61-65.64,0,0-9.87,20-8.66,35.48C32.73,61.57,26.91,0,26.91,0c0,0-33.36,69.95,2.17,118.95C21.37,115.77,0,102.82,0,102.82c0,0,10.41,47.32,44.13,70.59-7.93,1.86-29.76,2.2-29.76,2.2,0,0,12.8,32.88,48.01,46.77-9.55,9.82-14.36,21.17-14.36,21.17,0,0,8.9,10.57,29.75,10.71-2.37,7.69-3.11,15.36-3.11,15.36,0,0,6.38,10.08,21.25,8.35-.05.42-.1.81-.14,1.19h-22.7v42.76h-21.69v264.34l2.9-2.61c.29-.25,27.99-25.01,51.08-34.99,54.54,82.58,186.4,117.73,187.73,118.07l.42.12.42-.11c1.27-.3,126.86-31.1,187.74-118.09,23.09,9.96,50.83,34.75,51.11,35l2.9,2.61v-264.34h-21.68v-42.76h-22.7c-.05-.38-.09-.77-.15-1.19,14.82,1.72,21.25-8.35,21.25-8.35,0,0-.66-7.44-3.1-15.36,20.89-.14,29.75-10.71,29.75-10.71,0,0-4.78-11.31-14.37-21.17,35.14-13.86,48.01-46.77,48.01-46.77,0,0-20.96-.14-29.76-2.2,33.86-23.34,44.13-70.59,44.13-70.59ZM235.08,107.15c.01-2.67,2-4.01,4.07-4.11,1.78-4.39,5.21-7.32,9.39-9.2,3.75-3.57,8.67-6.19,14.95-7.09l.5-.15c4.1-1.93,8.28-2.91,12.45-2.91h34.18c4.17,0,8.36.98,12.45,2.91l.5.15c5.68.81,10.27,3.02,13.88,6.08.15.06.3.06.45.13,6.94,3.42,10.22,11.91,11.47,19.07.67,3.83,1.03,7.98.72,12.04.38,1.92.58,3.88.54,5.87-.04,1.62-.11,3.24-.2,4.86.59,2.9.75,5.91.59,8.92,1.67,9.69,1.35,19.63.25,29.4-.26,2.33-.57,4.66-.94,6.99-.03,1.21-.08,2.42-.19,3.62.06.3.09.6.06.91-.55,6.63-2.79,13.16-5.57,19.17-2.4,5.21-5.92,11.1-11.28,13.73-1.17,1.11-2.51,1.98-3.95,2.69-1.23,1.29-2.61,2.49-4.12,3.43-1.03.64-2.11,1.1-3.23,1.45-2.83,2.24-5.94,4.1-9.36,5.45-2.23,1.37-4.72,2.23-7.35,2.62-1.73.25-3.43.39-5.13.38-2.12.8-4.36,1.31-6.59,1.42-2.66-.13-5.19-.68-7.51-1.65l-.5-.13c-6.17-.59-11.73-2.47-16.61-5.38-.91-.29-1.79-.64-2.66-1.05-6.41.17-11.2-6.76-15.3-10.9-5.74-5.81-10.14-12.68-12.51-20.51-.21-.69-.19-1.39-.03-2.06-3.98-6.94-4.66-19.02-5.04-23.95-1.62-20.68,1.56-41.49,1.62-62.2Z"/>
    <polygon class="st2" points="423.01 142.48 500.83 120.16 530.76 150.82 509.47 182.08 510.8 205.2 491.52 231.48 458.26 267.88 420.35 289.59 369.55 301.61 328.85 282.51 325.87 265.88 362.49 253.25 409.1 232.11 440.13 201.94 421.68 159.08 423.01 142.48"/>
    <polygon class="st2" points="166.36 145.37 88.55 123.05 58.62 153.71 79.9 184.97 78.57 208.09 97.86 234.37 131.11 270.77 169.02 292.48 219.82 304.5 260.52 285.4 263.5 268.77 226.88 256.13 180.27 235 149.24 204.83 167.69 161.97 166.36 145.37"/>
    <path class="st0" d="M284.25,332.95c-.06-1.73-.13-3.42-.2-5.09-.13-2.71-.27-5.34-.43-7.88-.13-2.1-.28-4.13-.43-6.12-.72-9.19-1.68-17.24-2.77-24.27-5.33-34.27-13.91-44.24-13.91-44.24-5.74-8.72-14.01-6.35-23.18-4.64-43.89,8.19-75.9-20.23-80.34-43.26-2.62-13.61,4.86-28.77,22.66-29.87,14.95-.92,18.76.21,21.01-2.82,3.89-5.25.78-15.71-19.64-20.87-26.86-6.79-48.75-37.08-48.75-37.08-.05,14.75,7.02,25.41,7.02,25.41-40.09-6.58-75.69-59.83-75.69-59.83-4.12,11.33,3.78,32.88,3.78,32.88-39.66-11.85-49.44-61.29-49.44-61.29-16.48,56.65,33.47,90.13,33.47,90.13-20.81,2.03-38.63-7.95-39.13-8.23,12.88,36.04,48.4,48.4,48.4,48.4-14.42,10.81-35.53,11.33-35.53,11.33,15.45,26.78,51.91,32.18,51.91,32.18-16.94,11.63-22.74,22.73-22.74,22.73,8.24,6.18,35.2,1.74,35.2,1.74-8.24,6.18-10.81,23.69-10.81,23.69,5.66,5.66,25.75-3.61,25.75-3.61-5.15,8.24-5.67,21.64-5.67,21.64,10.67,2.53,28.36-6.45,28.84-6.69-2.49,3.04-3.51,7.61-3.77,12.3-.48,8.84,1.72,18.08,1.72,18.08,9.13-.51,23.73-13.49,24.19-13.9-3.2,8.55-3.08,15.44-2.22,20.09.8,4.3,2.23,6.68,2.23,6.68,5.67-1.42,10.38-4.03,14.02-6.68,5.61-4.08,8.64-8.25,8.64-8.25-.52,2.81-.66,5.59-.56,8.25.22,5.54,1.51,10.52,2.67,14,1.06,3.13,2.01,5.04,2.01,5.04,3.59-.9,6.66-2.8,9.21-5.04,6.22-5.47,9.33-12.98,9.33-12.98-.43,5.14-.1,9.44.59,12.98,1.8,9.24,6.11,13.28,6.11,13.28.63-.43,1.24-.9,1.83-1.39.78-.65,1.52-1.36,2.22-2.09,2.9-3.05,5.1-6.65,6.68-9.8,2.17-4.34,3.17-7.83,3.17-7.83.59,3.16,1.33,5.74,2.14,7.83,2.72,7.11,6.1,8.65,6.1,8.65l2.58-.52c1.8-2.52,2.93-5.32,3.6-8.13,1.24-5.18.93-10.41.42-14-.36-2.52-.82-4.24-.91-4.59.65,2.07,1.89,3.54,3.29,4.59,3.1,2.32,6.99,2.56,6.99,2.56,0,0-.52-.97-1.11-2.56-1.1-2.91-2.46-7.9-1.47-12.89,1.55-7.72,11.85-11.33,11.85-11.33l.72,24.22.42,14,.29,9.47.11,3.81c.02.31.04.63.07.94.13,1.87.28,3.7.45,5.49.13,1.41.27,2.79.42,4.15.46,4.19,1.01,8.15,1.64,11.88.11.67.22,1.33.34,1.99.03.17.06.34.09.51.28,1.57.57,3.1.88,4.59.29,1.41.59,2.78.9,4.12.36,1.59.74,3.13,1.13,4.62.45,1.71.91,3.36,1.38,4.94.48,1.63.97,3.19,1.48,4.68,1.87,5.58,3.86,10.29,5.79,14.21.38.76.75,1.49,1.12,2.19,0,.01.01.02.02.03h0c.38.73.76,1.43,1.14,2.09,0,.02,0,.03.03.05.38.7.77,1.36,1.15,1.99,4.6,7.63,8.24,10.64,8.24,10.64l.61-24.25.04-1.51.04-1.5.14-5.82.04-1.51.04-1.5v-.46s.13-4.65.13-4.65l.12-4.79.36-14.46.02-.63c.02-1.47.03-2.92.03-4.36.04-7.8-.07-15.07-.31-21.86ZM225.19,300.26c-4.18,3.91-7.24,5.76-7.24,5.76,0,0-.95-9.04-1.4-16.03,0-.13-.02-.27-.03-.4-.16-2.56-.25-4.82-.19-6.19-1.42,2.32-2.96,4.38-4.48,6.19-5.74,6.8-11.47,10.1-11.47,10.1l-2.19-6.96c-.23-1.12-.4-2.16-.51-3.14-.51-4.29-.02-7.43.01-11.68-6.26,8.46-11.87,11.27-12.25,11.45l-.48.23-4.14,2-.27-2-.41-3.08c-.96-7.25-.9-14.15-.37-20.19-5.16,8.61-17.07,13.98-17.07,13.98,0,0-3.95-15.24-2.15-23.62-6.44,7.48-17.49,10.09-17.49,10.09,0,0-1.81-13.98,2.42-20.15-9.69,6.08-23.12,5.49-23.12,5.49,0,0,1.84-13.98,8.89-20.21-12.8,6.17-26.88,2.9-26.88,2.9,0,0,7.11-17.91,19.25-23.01-26.71,4.48-41.49-8.48-41.49-8.48,0,0,12.75-11.7,30.25-13.95-30.52-8.37-45.35-35.64-45.35-35.64,0,0,32.34-3.25,48.81,5.13-22.31-13.46-29.6-30.95-29.6-30.95l8.06.15c26.81.49,62.33,23.01,64.11,23.94-.7-.25-23.41-8.49-47.17-12.09,12.61,18.65,38.34,34.93,39.14,35.44-3.07-.84-34.14-11.69-50.64-6.57,8.03,7.9,16.5,13.89,45.25,21.19,0,.05-25.17,1.53-36.74,11.5,6.99,2.45,14.6,6.75,38.68.48,0,0-18.4,7.47-25.63,23.84,6.46-.88,13.73.03,29.04-11.55-.61.67-10.43,11.65-12.99,25.92,5.6-1.51,12.72-1.95,22.3-13.69,0-.01.02-.02.02-.02-.25.41-9.81,13.76-7.83,27,5.16-2.55,9.7-4.19,16.77-14.49.41-.6-4.98,15.58-.96,26.23,6.11-1.76,18.54-17.54,19.05-18.2-.18.73-4.58,18.28.11,27.66,10.3-5.03,16.56-20.37,16.65-20.6,0,0-2.87,18.81,1.08,29.23,15.09-11.26,18.15-20.46,18.21-20.6,0,0,.45,14.03.91,26.92.03.6.05,1.2.07,1.79.5-.57,1.01-1.17,1.51-1.79,2.23-2.79,4.36-6,6.04-8.59,10.68-16.42,23.57-4.61,24.07-4.58l-1.03.35c-.08-.02-9.1-4.81-16.4,7.55-1.11,1.89-2.26,3.64-3.42,5.27-3.22,4.52-6.52,8.05-9.31,10.67Z"/>
    <path class="st0" d="M568.78,125.88c-.5.28-18.32,10.26-39.13,8.23,0,0,49.95-33.48,33.47-90.13,0,0-9.78,49.44-49.44,61.29,0,0,7.91-21.55,3.78-32.88,0,0-35.6,53.25-75.69,59.83,0,0,7.07-10.66,7.02-25.41,0,0-21.89,30.29-48.75,37.08-20.42,5.16-23.52,15.62-19.63,20.87,2.24,3.03,6.05,1.9,21,2.82,17.81,1.1,25.29,16.26,22.66,29.87-4.44,23.03-36.45,51.45-80.34,43.26-9.17-1.71-17.44-4.08-23.18,4.64,0,0-8.58,9.97-13.91,44.24-.22,1.4-.43,2.85-.64,4.33-.83,5.96-1.55,12.58-2.13,19.94-.34,4.4-.63,9.06-.86,14-.07,1.63-.14,3.29-.2,4.98-.14,4.18-.24,8.54-.29,13.1,0,1.53-.02,3.08-.03,4.66-.01,2.79.01,5.64.04,8.57l.38,15.09.12,4.79.13,5.12.14,5.47.08,3.35.12,4.53.57,22.73s3.83-3.17,8.58-11.23c.83-1.38,1.67-2.91,2.53-4.59.11-.2.21-.41.32-.63.42-.84.85-1.72,1.28-2.64.71-1.55,1.43-3.2,2.14-4.97.4-.97.8-1.98,1.19-3.03.68-1.82,1.35-3.74,2-5.78.16-.49.32-.99.47-1.5.16-.49.31-.98.45-1.49.05-.16.1-.32.15-.48.46-1.56.91-3.18,1.34-4.86.4-1.55.78-3.14,1.16-4.79.43-1.88.83-3.83,1.22-5.85.19-.96.37-1.94.54-2.94,1.28-7.23,2.29-15.31,2.9-24.33l.4-13.28.42-14,.72-24.22s10.3,3.61,11.85,11.33c.99,4.99-.37,9.98-1.47,12.89-.59,1.59-1.11,2.56-1.11,2.56,0,0,3.89-.24,6.99-2.56,1.4-1.05,2.64-2.52,3.29-4.59-.09.35-.55,2.07-.91,4.59-.51,3.6-.82,8.82.43,14,.67,2.81,1.8,5.61,3.6,8.13l2.57.52s3.38-1.54,6.11-8.65c.8-2.09,1.54-4.67,2.13-7.83,0,0,1,3.49,3.17,7.83,2.13,4.25,5.4,9.32,9.98,12.73.25.19.5.37.76.55,0,0,1.18-1.1,2.56-3.48,1.26-2.17,2.69-5.39,3.54-9.8.7-3.54,1.02-7.84.59-12.98,0,0,3.11,7.51,9.33,12.98,2.55,2.24,5.62,4.14,9.21,5.04,0,0,.95-1.91,2.01-5.04,1.16-3.48,2.45-8.46,2.67-14,.1-2.66-.04-5.44-.56-8.25,0,0,3.03,4.17,8.64,8.25,3.64,2.65,8.35,5.26,14.02,6.68,0,0,1.43-2.38,2.23-6.68.86-4.65.98-11.54-2.22-20.09.46.41,15.07,13.39,24.2,13.9,0,0,2.2-9.24,1.71-18.08-.26-4.68-1.27-9.26-3.76-12.3.48.24,18.16,9.22,28.83,6.69,0,0-.52-13.4-5.67-21.64,0,0,20.09,9.27,25.75,3.61,0,0-2.57-17.51-10.81-23.69,0,0,26.96,4.44,35.2-1.74,0,0-5.8-11.1-22.74-22.73,0,0,36.46-5.4,51.91-32.18,0,0-21.11-.52-35.53-11.33,0,0,35.52-12.36,48.4-48.4ZM505.3,171.86c-7.38,6.88-17.57,13.92-30.62,17.5,17.5,2.25,30.25,13.95,30.25,13.95,0,0-5.44,10.37-16.35,13.06-4.08,1.02-16.26,1.95-25.14-4.58,13.53,8.12,19.25,23.01,19.25,23.01,0,0-14.08,3.27-26.88-2.9,6.36,5.61,8.48,17.52,8.83,19.82.04.25.06.39.06.39,0,0-.16.01-.47.01-2.48.04-14.03-.1-22.65-5.5,4.23,6.17,2.43,20.15,2.43,20.15,0,0-11.06-2.61-17.49-10.09,1.79,8.38-2.16,23.62-2.16,23.62,0,0-11.91-5.37-17.07-13.98.54,6.04.6,12.94-.37,20.19l-.41,3.08-.27,2-4.13-2-.48-.23c-.38-.18-6-2.99-12.26-11.45.04,4.25.52,7.39.01,11.68-.11.98-.28,2.02-.51,3.14l-1.55,4.94-.63,2.02s-.28-.16-.77-.48c-1.74-1.13-6.22-4.31-10.7-9.62-1.53-1.81-3.07-3.87-4.49-6.19.06,1.37-.03,3.63-.19,6.19-.25,3.96-.67,8.66-.99,12.02-.25,2.61-.44,4.41-.44,4.41,0,0-2.45-1.49-5.96-4.6-3.04-2.69-6.87-6.61-10.59-11.83-1.16-1.63-2.31-3.38-3.42-5.27-6.78-11.48-15.05-8.16-16.25-7.62-.09.04-.15.07-.15.07l-1.03-.35c.08,0,.45-.29,1.05-.7,3.35-2.29,13.98-8.63,23.02,5.28,1.68,2.59,3.82,5.8,6.05,8.59.49.62,1,1.22,1.5,1.79.02-.59.04-1.19.07-1.79.46-12.89.92-26.92.92-26.92.05.14,3.11,9.34,18.2,20.6,3.95-10.42,1.08-29.23,1.08-29.23.09.23,6.35,15.57,16.65,20.6,4.69-9.38.3-26.94.12-27.66.5.66,12.93,16.44,19.04,18.2,4.03-10.65-1.37-26.83-.96-26.23,7.07,10.3,11.62,11.94,16.77,14.49,1.98-13.21-7.53-26.52-7.83-27,0,0,.01,0,.02.02,9.58,11.74,16.71,12.18,22.3,13.69-2.55-14.27-12.38-25.25-12.99-25.92,15.31,11.58,22.58,10.67,29.04,11.55-7.23-16.37-25.63-23.84-25.63-23.84,24.08,6.27,31.69,1.97,38.69-.48-11.58-9.97-36.75-11.45-36.75-11.5,28.75-7.3,37.22-13.29,45.25-21.19-16.5-5.12-47.57,5.73-50.64,6.57.8-.51,26.54-16.79,39.14-35.44-23.76,3.6-46.47,11.84-47.17,12.09,1.78-.93,37.3-23.45,64.11-23.94l8.06-.15s-7.29,17.49-29.6,30.95c16.48-8.38,48.82-5.13,48.82-5.13,0,0-4.24,7.79-12.85,16.32-.6.61-1.24,1.21-1.89,1.82Z"/>
    <path class="st0" d="M293.53,289.59H82.46v180.33s2.05,119.54,211.07,186.34c209.02-66.8,211.07-186.34,211.07-186.34v-180.33h-211.07Z"/>
    <path class="st2" d="M293.53,633.04l-.3-.1c-41.46-13.25-76.92-30.02-105.39-49.84-22.81-15.88-41.21-33.75-54.7-53.11-12.02-17.25-17.83-32.52-20.59-42.29-3-10.63-3.14-17.1-3.15-17.37v-157.47h368.26v157.46c0,.28-.72,26.63-23.74,59.67-13.49,19.36-31.89,37.23-54.7,53.11-28.47,19.82-63.93,36.59-105.39,49.84l-.3.1ZM111.4,314.86v155.46c0,.24.74,26.1,23.47,58.67,20.99,30.06,65.56,72.14,158.66,101.96,51.47-16.49,120.66-47.54,158.66-101.96,22.74-32.57,23.47-58.43,23.48-58.69v-155.44H111.4Z"/>
    <path class="st1" d="M354.64,132.96c-.42-19.04,1.83-32.99-14.62-46.53-7.92-6.51-18.79-8.39-28.72-8.75-11.44-.41-25.44-.29-36.87.31-10.6.56-21.42,2.86-29.59,10.16-13.92,12.44-12.5,24.26-12.64,41.1-.14,17.14-.21,35.46.65,52.54,1.11,21.75,8.62,35.75,28.02,46.83,5.7,3.25,12.13,5.76,17.59,9.44,3.48,2.34,1.86,2.15,1.69,5.55-.19,3.83.16,7.34,3.2,10.06l.19,35.92.13,24.27.03,6.12h-.08c-2.69,0-3.22,1.64-3.41,3.99-.08.98-.19,2.43-.12,3.89.12,2.29.68,4.59,2.47,5.1h1.69s18.56-.12,18.56-.12l4.68-.03c1.68.32,2.35-2.22,2.52-4.95.18-2.65-.1-5.47-.37-5.99-.78-1.56-1.95-1.97-3.51-2.23l-.03-5.78-.1-19.94-.02-4.33-.19-36.51c3.31-2.7,2.93-7.72,2.57-11.56-.04-.52-.6-1.1-.43-1.64.23-.73,1.23-1.44,1.85-1.89,11.76-8.67,24.46-10.77,34.36-23.56,11.49-14.85,10.67-29.92,10.79-47.48.07-11.3-.04-22.69-.29-33.99ZM282.94,231.81c-3.4-.44-11.2-5.65-14.49-7.67-11.32-6.94-19.14-11.57-25.14-24.1-3.92-8.2-4.4-15.42-4.74-24.28-.47-12-.34-24.07-.29-36.05.09-19.59-2.86-36.49,17.51-48.04,12.07-6.84,35.88-5.48,49.92-5.35,15.36.15,28.3,2.86,37.49,16.65,4.64,6.98,4.89,13.38,5.19,21.39.5,13.82.67,28.19.56,42.03-.19,21.74-.42,37.22-19.98,51.34-4.63,3.34-17.23,12.15-22.13,13.57-2.67.77-20.69.92-23.9.51Z"/>
    <path class="st1" d="M334.56,99.05c10.46,9.42,9.61,19.4,9.97,32.14.38,13.56.27,27.25.12,40.8-.02,1.53.3,11.49-.29,11.91l-101.13.86c-.69-5.74-.44-11.51-.59-17.27-.25-10-.55-20.05-.48-30.08.11-16.81-2.11-30.93,14.29-41.41,10.24-6.55,22.5-5.19,33.95-5.34,15.13-.2,31.88-2.67,44.16,8.39Z"/>
    <path class="st6" d="M244.38,191.68l98.8-.73c.05.34-1.71,5.51-2,6.01-.22.37-.33.64-.83.63l-92.1.76-1.46-.42-2.4-6.26Z"/>
    <path class="st2" d="M309.43,104.82c-12.92.99-20.82,14.37-15.51,26.25,6.32,14.13,26.78,15.61,34.29,1.8,7.31-13.44-3.88-29.2-18.78-28.05ZM296.15,130.11c-1.63.24-2.66-3.67-2.17-4.7.62-1.28,1.9,1.14,2.1,1.75.3.95.43,1.99.07,2.95ZM296.99,116.29c-1.5-1.04.84-4.57,2.1-4.84.22-.05.43-.07.64-.02l.26.27c.48,1.45-1.36,4.47-3,4.59ZM304,120.55c2.93-.36,3.91,3.65,1.42,4.75-3.53,1.57-5.19-4.28-1.42-4.75ZM307.29,137.47c-.94,1.92-6.48-2.24-4.17-2.93,1.31-.4,4.74,1.77,4.17,2.93ZM306.53,108.04c-3.06.06-.45-2.09,1.49-2.35,4.54-.63,1.28,2.3-1.49,2.35ZM312.81,116.07c.28-.47,1.14-1.18,1.68-1.29,3.14-.65,4.82,3.26,2.31,4.93-2.47,1.65-5.44-1.14-3.99-3.64ZM316.43,126.67c3.14-.31,3.77,4.21,1.03,5.42-4.11,1.8-5.04-5.03-1.03-5.42ZM317.15,140.18c-.51.16-2.67.67-2.96.27.12-.73.93-1.1,1.53-1.36,1.12-.47,2.33-.65,3.54-.56.58.55-1.77,1.54-2.11,1.65ZM321.64,110.72c-.7.94-4.3-.97-4.41-2.19l.15-.4c.99-.84,4.97,1.63,4.26,2.59ZM324.8,114.93c1.61-.51,3.65,4.8,2.04,5.21-1.48.37-3.46-4.76-2.04-5.21ZM326.19,131.7c-.81-.24.11-2.87.39-3.44.38-.77,1.11-1.99,2.12-1.79.72,1.1-1.26,5.6-2.51,5.23Z"/>
    <g>
      <path class="st1" d="M293.53,492.55c98.03,0,183.96,27.12,232.16,67.84h.6v-232.53H60.77v225.58l.6,6.95c48.2-40.72,134.13-67.84,232.16-67.84Z"/>
      <path class="st3" d="M60.54,562.4l-.76-8.88v-226.66s467.51,0,467.51,0v234.53h-1.97l-.28-.24c-23.98-20.26-57.54-37.2-97.03-49-40.78-12.17-87.28-18.61-134.48-18.61s-93.7,6.44-134.48,18.61c-39.5,11.79-73.05,28.73-97.03,49l-1.48,1.25ZM293.53,491.55c47.39,0,94.09,6.46,135.05,18.69,39.19,11.7,72.59,28.46,96.7,48.51v-229.89H61.77v224.58l.43,4.96c24.08-19.89,57.32-36.52,96.27-48.15,40.96-12.23,87.66-18.69,135.05-18.69Z"/>
    </g>
    <path class="st4" d="M110.4,357.74c-3.92.06-7.83.11-11.75.17h-.35c0,2.44-.03,4.89-.04,7.33-.2,32.61-.38,65.21-.57,97.82-.02,3.01-.24,5.7-.66,8.06-.24,1.4-.55,2.68-.94,3.85-1.48,4.49-3.97,7.31-7.46,8.5-1.4.47-2.75.65-4.03.51-2.65-.26-5.04-1.83-7.19-4.75-.14-.18-.27-.36-.4-.55v8.82c0,10.87,0,21.74-.02,32.61.51,0,1.01,0,1.5,0,6.49-.16,12.25-1.34,17.29-3.43.27-.11.54-.23.81-.35,8.77-3.8,15.77-9.53,20.93-17.14.64-.94,1.25-1.9,1.83-2.89,2.66-4.56,4.55-9.1,5.68-13.72.07-.28.14-.57.2-.85.26-1.09.5-2.24.7-3.46.74-4.36,1.14-9.56,1.21-15.62.37-32.1.73-64.21,1.1-96.31.01-.5.01-1,.02-1.5.02-2.44.05-4.88.08-7.32-5.98.07-11.96.15-17.94.23Z"/>
    <path class="st4" d="M128.69,356.01h-.37c-5.98.07-11.95.15-17.92.23-3.92.06-7.83.11-11.74.16-.13.01-.25.01-.38.01l-1.47.02-.62,106.62c-.07,10.06-2.41,16.29-6.98,18.55-.34.17-.69.32-1.06.44-1.39.47-2.69.6-3.91.37-1.75-.31-3.35-1.33-4.86-3.1-.38-.45-.76-.94-1.13-1.48l-2.74-3.98v8.82l-.02,38.94h1.55c.49,0,.97,0,1.45,0,6.55-.16,12.56-1.34,17.86-3.54.31-.13.62-.26.92-.4,8.67-3.78,15.69-9.43,20.92-16.82.87-1.22,1.69-2.48,2.46-3.79,1.01-1.74,1.91-3.46,2.7-5.17,1.38-3.02,2.43-6.02,3.16-9.06.07-.25.12-.5.18-.75,1.2-5.05,1.86-11.58,1.95-19.41l1.11-97.85.1-8.82-1.16.02ZM92.53,516.28c-.19.07-.38.12-.57.18-4.11,1.31-8.62,2.02-13.47,2.14v-.12l.02-26.94v-8.83c1.96,1.77,4.12,2.72,6.45,2.82,1.33.06,2.71-.16,4.15-.64,2.68-.92,4.83-2.67,6.45-5.25.81-1.29,1.48-2.79,2.02-4.48,1.04-3.28,1.58-7.31,1.61-12.09l.56-96.35v-1.5s.04-5.83.04-5.83c3.54-.05,7.07-.1,10.61-.14,5.47-.08,10.95-.15,16.42-.22l-.07,5.82v1.5s-.03,1.5-.03,1.5l-1.08,94.78c-.09,7.6-.72,13.91-1.88,18.77-1.06,4.74-2.92,9.37-5.7,14.13-.39.66-.79,1.31-1.21,1.95-5.05,7.79-12.09,13.67-20.94,17.49-.24.12-.47.22-.71.32-.62.26-1.25.5-1.88.73-.26.09-.53.18-.79.26Z"/>
    <path class="st4" d="M203.03,476.45c-5.77-28.52-11.47-57.68-17.13-87.68-10.57.61-21.12,1.32-31.65,2.12-7.4,32.83-14.78,67.01-22.05,102.84-.13.65-.27,1.3-.4,1.96.09-.03.19-.06.28-.09.55-.17,1.09-.34,1.64-.51s1.09-.34,1.63-.5c8.02-2.46,16.09-4.71,24.19-6.78.02-.01.04-.01.06-.02.11-.69.23-1.38.34-2.06.15-.92.3-1.83.46-2.74.19-1.16.38-2.31.57-3.46.23-1.38.45-2.75.68-4.12h0c4-.91,8-1.79,12.02-2.62.33,2.37.65,4.73.97,7.09.2,1.39.39,2.78.58,4.17.1-.02.19-.04.29-.06,8.21-1.83,16.47-3.48,24.74-4.91.49-.09.98-.18,1.47-.25.49-.09.99-.18,1.48-.26.08,0,.16-.03.24-.04-.14-.69-.28-1.38-.42-2.08ZM170.66,448.46c.11,1.22.18,1.97.18,1.97-.27.05-.54.09-.81.14-.5.09-1,.17-1.49.26-.03,0-.06,0-.08.02-.52.09-1.04.18-1.56.27-.43.08-.86.15-1.29.23,1.07-7.49,2.13-14.94,3.2-22.35.01.07.01.14.02.22.01,0,0,0,0,.02.38,3.78,1.41,14.72,1.83,19.22Z"/>
    <path class="st4" d="M172.31,450.03c-.48-5.12-1.63-17.43-2.01-21.18l-1.23-12.22-1.74,12.16c-1.07,7.41-2.14,14.86-3.2,22.35l-.3,2.06,1.3-.23.75-.14c.27-.05.53-.1.8-.14.51-.09,1.03-.19,1.55-.28.15-.03.3-.05.45-.07.49-.1.99-.18,1.49-.27.31-.05.61-.11.92-.16l.56-.1.81-.14-.15-1.64ZM167.46,449.03c.35-2.46.7-4.92,1.05-7.37.24,2.59.48,5.1.66,7.06,0,.16.03.32.04.47-.6.11-1.21.21-1.82.32.02-.16.05-.32.07-.48ZM172.31,450.03c-.48-5.12-1.63-17.43-2.01-21.18l-1.23-12.22-1.74,12.16c-1.07,7.41-2.14,14.86-3.2,22.35l-.3,2.06,1.3-.23.75-.14c.27-.05.53-.1.8-.14.51-.09,1.03-.19,1.55-.28.15-.03.3-.05.45-.07.49-.1.99-.18,1.49-.27.31-.05.61-.11.92-.16l.56-.1.81-.14-.15-1.64ZM167.46,449.03c.35-2.46.7-4.92,1.05-7.37.24,2.59.48,5.1.66,7.06,0,.16.03.32.04.47-.6.11-1.21.21-1.82.32.02-.16.05-.32.07-.48ZM204.92,478.23c-5.93-29.32-11.84-59.51-17.55-89.74l-.25-1.3-.78.05-.53.03c-10.37.6-20.91,1.31-31.31,2.1-.12,0-.24.02-.36.03l-1.11.08-.24,1.08c-8.08,35.8-15.43,70.09-22.46,104.83l-.51,2.49,1.92-.6.5-.16c.38-.12.76-.24,1.14-.35.54-.17,1.09-.34,1.63-.51,8.01-2.46,16.15-4.76,24.26-6.84.23-.06.47-.12.7-.18l.89-.22.06-.02.16-.97c.21-1.27.42-2.54.64-3.81.08-.53.17-1.07.26-1.6.33-1.99.66-3.98.99-5.97,3.14-.71,6.31-1.41,9.44-2.07l.77,5.6.21,1.49.58,4.2.28-.06,1.31-.3c.05,0,.11-.02.16-.04,8.2-1.82,16.54-3.48,24.84-4.92.49-.09.98-.17,1.47-.26.49-.08.98-.16,1.47-.25.07-.01.13-.02.2-.03l1.53-.26-.31-1.52ZM201.68,477.31c-.08,0-.16.03-.24.04-.49.08-.98.17-1.47.26-7.84,1.36-15.71,2.91-23.48,4.62l-.07-.49-1.47-10.75-.86.18-.71.15c-3.8.79-7.65,1.62-11.46,2.5-.2.04-.4.08-.6.13l-.98.22-.17.99c-.61,3.66-1.21,7.31-1.82,10.99-.02.14-.05.29-.07.43-7.55,1.94-15.12,4.06-22.58,6.34-.55.16-1.09.32-1.64.49-.1.03-.19.06-.29.09.02-.09.04-.19.06-.28,6.4-31.5,13.07-62.68,20.31-95,.44-1.97.88-3.94,1.33-5.92,9.71-.73,19.52-1.39,29.2-1.96.36,1.92.72,3.83,1.09,5.75,5.15,27.16,10.46,54.23,15.8,80.62.04.2.08.4.12.6ZM170.3,428.85l-1.23-12.22-1.74,12.16c-1.07,7.41-2.14,14.86-3.2,22.35l-.3,2.06,1.3-.23.75-.14c.27-.05.53-.1.8-.14.51-.09,1.03-.19,1.55-.28.15-.03.3-.05.45-.07.49-.1.99-.18,1.49-.27.31-.05.61-.11.92-.16l.56-.1.81-.14-.15-1.64c-.48-5.12-1.63-17.43-2.01-21.18ZM167.46,449.03c.35-2.46.7-4.92,1.05-7.37.24,2.59.48,5.1.66,7.06,0,.16.03.32.04.47-.6.11-1.21.21-1.82.32.02-.16.05-.32.07-.48Z"/>
    <path class="st4" d="M275.77,385.73c-1.51,8.99-3.03,18-4.56,27.02-.46,2.71-.9,5.71-1.31,8.93-.77-5.3-1.6-10.2-2.48-14.67-1.35-7.03-2.7-14.06-4.04-21.12-7.84.13-15.68.3-23.52.53-1.61,8.51-3.22,17.05-4.84,25.63-.67,3.65-1.29,7.43-1.85,11.32-.46-3.54-1.01-7.54-1.66-11.99-1.25-8.16-2.49-16.35-3.73-24.57-9.03.32-18.06.71-27.08,1.16,6.17,30.09,12.4,59.37,18.71,88.12,8.8-1.21,17.62-2.2,26.46-2.98,1.64-10.72,3.28-21.4,4.9-32.05.29-1.86.55-3.66.78-5.39.32,2,.68,4.13,1.08,6.35,1.8,10.08,3.62,20.13,5.44,30.16,8.77-.57,17.55-.93,26.33-1.07,6.17-28.58,12.24-56.99,18.21-85.44-8.94-.05-17.89-.03-26.83.06Z"/>
    <path class="st4" d="M303.16,384.17h-.55c-6.21-.03-12.47-.04-18.71,0-2.62.02-5.25.04-7.86.07h-1.54s-.21,1.25-.21,1.25c-1,5.92-2,11.84-3,17.78-.48,2.86-.97,5.72-1.45,8.58-.31-1.77-.63-3.48-.95-5.12-1.14-5.88-2.26-11.77-3.39-17.67-.22-1.15-.44-2.3-.66-3.45l-.23-1.24h-.59s-.21.01-.21.01h-.46c-7.69.14-15.51.32-23.24.53-.1,0-.2.01-.3.01l-1.21.04-5.06,26.82c-.09.48-.18.96-.27,1.44-.09-.68-.19-1.36-.3-2.06-1.24-8.16-2.49-16.35-3.73-24.57l-.19-1.32-.86.03h-.48c-8.82.32-17.76.7-26.57,1.15-.18,0-.35.02-.53.03l-1.74.08.35,1.72c.48,2.34.96,4.68,1.45,7.02.1.5.2.99.31,1.49,5.47,26.52,11.16,53.27,16.95,79.63l.3,1.35,1.11-.15.26-.04c8.55-1.18,17.25-2.16,25.86-2.92.18-.02.35-.03.53-.05l1.01-.09h.17s4.48-29.32,4.48-29.32v-.04c1.64,9.12,3.29,18.22,4.94,27.3l.24,1.31,1.33-.09s.07,0,.1,0c8.67-.55,17.47-.91,26.16-1.05h.02l1.17-.02.25-1.17c6.08-28.15,11.47-53.42,16.42-76.93.11-.51.21-1.01.32-1.5.23-1.12.47-2.24.7-3.35.26-1.23.51-2.44.77-3.66l.38-1.8h-1.29ZM283.18,469.63c-7.94.15-15.96.47-23.88.96-.05-.25-.09-.51-.14-.76-1.69-9.34-3.39-18.69-5.06-28.07-.4-2.21-.76-4.33-1.08-6.32l-1.62-10.23-1.34,10.27c-.23,1.71-.49,3.5-.78,5.36l-4.6,30.12-.12.76c-7.99.72-16.05,1.62-23.99,2.69-.05-.22-.09-.43-.14-.65-5.5-25.05-10.91-50.43-16.12-75.64-.1-.5-.2-.99-.3-1.49-.11-.5-.21-1-.31-1.49-.4-1.93-.8-3.85-1.19-5.77,7.95-.39,16-.73,23.97-1.02.29,1.93.58,3.86.88,5.79.07.5.15,1,.22,1.5.81,5.34,1.62,10.65,2.43,15.95.65,4.44,1.21,8.46,1.66,11.96l1.4,10.86,1.57-10.83c.19-1.29.38-2.56.58-3.81.4-2.58.82-5.07,1.26-7.45l3.51-18.58,1.11-5.86c7-.2,14.06-.36,21.03-.48.37,1.94.74,3.87,1.11,5.81.9,4.7,1.8,9.39,2.7,14.08.65,3.29,1.27,6.83,1.86,10.57,0,.06.02.11.03.17.2,1.27.39,2.55.58,3.86l1.59,10.88,1.38-10.91c.42-3.26.86-6.25,1.31-8.87.3-1.79.6-3.58.91-5.37.73-4.36,1.47-8.72,2.2-13.07.09-.5.17-1,.26-1.5.32-1.95.65-3.89.98-5.84,2.25-.02,4.51-.03,6.78-.04,5.65-.03,11.31-.03,16.93,0-.4,1.93-.81,3.87-1.22,5.82-.11.5-.21,1-.32,1.5-.1.5-.21,1-.32,1.5-4.7,22.36-9.82,46.32-15.54,72.84-.05.27-.11.54-.17.81Z"/>
    <path class="st4" d="M371.19,474.4c-6.54-29.93-13.04-59.13-19.45-87.83-9.71-.3-19.44-.54-29.16-.69-.89,0-1.77-.03-2.66-.04-1.47,6-2.94,11.98-4.42,17.96-5.37,21.69-10.81,43.3-16.32,64.95-.19.77-.38,1.54-.58,2.31.23,0,.46,0,.69,0,.52,0,1.03.01,1.54.02.52.01,1.04.01,1.55.02,8.3.15,16.6.48,24.89,1,.62-3.48,1.24-6.96,1.85-10.45,4.09.25,8.17.54,12.25.87.43,2.47.85,4.94,1.27,7.42.19,1.13.39,2.27.58,3.4h.02c8.31.78,16.61,1.74,24.89,2.9.52.07,1.05.14,1.58.22.53.08,1.06.15,1.59.23.14.02.27.04.41.06-.17-.79-.34-1.57-.52-2.36ZM337.68,439.15c.18,1.36.29,2.22.29,2.22-.38-.02-.77-.05-1.15-.07-.98-.06-1.96-.12-2.93-.17-.41-.03-.81-.05-1.22-.07.91-6.51,1.82-13.03,2.72-19.55.01.06.02.13.03.2.44,3.35,1.7,13.04,2.26,17.44Z"/>
    <path class="st4" d="M339.44,441.03c-.48-3.71-2.08-16.13-2.56-19.73l-1.47-10.85-1.51,10.85c-.9,6.53-1.81,13.04-2.72,19.55l-.23,1.62,1.22.07.41.02c.37.02.73.04,1.1.06.5.03,1,.05,1.5.09.1,0,.21.01.31.02.51.02,1.02.06,1.53.09.28.01.57.03.85.05l.67.04,1.15.07-.25-1.95ZM336.25,439.76c-.63-.04-1.25-.07-1.87-.11.03-.23.06-.45.1-.68.28-2.07.57-4.16.86-6.23.3,2.32.59,4.57.82,6.32.03.24.06.48.09.7ZM339.44,441.03c-.48-3.71-2.08-16.13-2.56-19.73l-1.47-10.85-1.51,10.85c-.9,6.53-1.81,13.04-2.72,19.55l-.23,1.62,1.22.07.41.02c.37.02.73.04,1.1.06.5.03,1,.05,1.5.09.1,0,.21.01.31.02.51.02,1.02.06,1.53.09.28.01.57.03.85.05l.67.04,1.15.07-.25-1.95ZM336.25,439.76c-.63-.04-1.25-.07-1.87-.11.03-.23.06-.45.1-.68.28-2.07.57-4.16.86-6.23.3,2.32.59,4.57.82,6.32.03.24.06.48.09.7ZM373.17,476.44c-7.31-33.5-14.51-65.8-19.97-90.2l-.25-1.13-.76-.03h-.41c-9.54-.31-19.2-.54-28.75-.69-.96-.02-1.93-.03-2.89-.05h-.2l-1.19-.02-.29,1.16c-1.88,7.69-3.82,15.52-5.81,23.54-4.78,19.3-9.91,39.67-15.51,61.67l-.47,1.85,1.91.02h.33c.51,0,1.02.02,1.54.03.51,0,1.03.01,1.55.02,8.34.14,16.76.47,25.05.99.04,0,.09,0,.13,0l1.33.08.84-4.7,1.02-5.75c3.24.2,6.5.44,9.72.69l1,5.9.26,1.52.58,3.39h.02l1.13.11c.14,0,.28.03.42.04,8.3.77,16.69,1.76,24.97,2.92.53.08,1.06.16,1.59.23.48.07.95.14,1.43.21l.15.02,2,.29-.47-2.12ZM344.5,471.97l-.14-.82-1.7-10.02-.8-.06-.37-.03c-4.01-.34-8.09-.62-12.15-.87-.04,0-.09,0-.13,0l-1.33-.08-1.71,9.64-.14.81c-7.72-.47-15.52-.77-23.28-.9-.52-.02-1.04-.02-1.55-.03-.23,0-.45-.01-.68-.01.07-.28.14-.55.21-.82,6.66-26.19,12.64-50.06,18.19-72.58.25-1.02.5-2.03.75-3.03.48-1.95.95-3.88,1.42-5.8.34,0,.68.01,1.02.02,9.43.14,18.98.36,28.42.65.43,1.91.86,3.87,1.31,5.87,5.06,22.66,11.35,50.93,17.76,80.27.06.27.12.53.18.8-.14-.02-.27-.04-.41-.06-.52-.07-1.05-.15-1.58-.21-7.73-1.09-15.54-1.99-23.29-2.73ZM336.88,421.3l-1.47-10.85-1.51,10.85c-.9,6.53-1.81,13.04-2.72,19.55l-.23,1.62,1.22.07.41.02c.37.02.73.04,1.1.06.5.03,1,.05,1.5.09.1,0,.21.01.31.02.51.02,1.02.06,1.53.09.28.01.57.03.85.05l.67.04,1.15.07-.25-1.95c-.48-3.71-2.08-16.13-2.56-19.73ZM336.25,439.76c-.63-.04-1.25-.07-1.87-.11.03-.23.06-.45.1-.68.28-2.07.57-4.16.86-6.23.3,2.32.59,4.57.82,6.32.03.24.06.48.09.7Z"/>
    <path class="st4" d="M414.2,389.62c.11,7.45.22,14.9.33,22.34.06,3.88.35,8.76.88,14.52.03.3.06.61.08.91-.5-1.56-.97-2.99-1.41-4.32-4.17-11.66-8.34-23.07-12.5-34.25-8.53-.5-17.08-.95-25.63-1.33.4,30.03.79,60.06,1.19,90.09,8.8,1.38,17.58,2.98,26.31,4.8-.12-8.21-.24-16.43-.36-24.65-.05-3.51-.22-7.67-.51-12.38.3.89.6,1.79.92,2.71,4.2,12.1,8.4,24.46,12.59,37.11,8.54,1.99,17.04,4.2,25.49,6.61-.45-33.42-.9-66.85-1.35-100.27-8.66-.7-17.34-1.33-26.03-1.91Z"/>
    <path class="st4" d="M441.71,390.14l-1.14-.09-.22-.02c-8.57-.68-17.25-1.33-25.81-1.89-.08-.01-.16-.01-.24-.02l-1.63-.1.13,8.83.23,15.14c.02,1.25.06,2.61.13,4.08-.07-.19-.14-.39-.21-.58-3.23-8.97-6.58-18.09-9.97-27.18l-.34-.92-.52-.03-.45-.02c-8.43-.5-16.96-.95-25.37-1.33-.09,0-.19,0-.28,0l-1.59-.07.12,8.83,1.1,84.11,1.26.2s.09.01.13.02l1.5.24c7.78,1.24,15.6,2.67,23.3,4.26.43.09.87.18,1.3.27l.2.04,1.51.31.13.03-.28-19.28-.07-4.8-.04-2.44c-.01-.65-.03-1.32-.04-2.01,3.45,10.03,6.84,20.07,10.11,29.94l.27.8.23.05.58.14c8.07,1.89,16.22,3.99,24.23,6.27.4.1.79.22,1.19.33l.32.09,1.5.43.12.03-1.39-103.65ZM417.24,483.91c-.08-.23-.15-.46-.23-.69-3.9-11.75-7.97-23.73-12.09-35.63-.32-.92-.62-1.82-.92-2.7l-3.62-10.76.67,10.8.03.53c.28,4.64.46,8.78.51,12.31l.32,22.09v.68s-.08-.02-.12-.03c-7.66-1.56-15.44-2.98-23.17-4.21v-.75s-1.03-77.65-1.03-77.65l-.02-1.5-.02-1.51-.08-5.82c7.65.35,15.38.75,23.04,1.2,3.35,8.99,6.64,17.99,9.83,26.83.28.79.57,1.57.85,2.35.49,1.37.98,2.74,1.47,4.1.43,1.33.9,2.76,1.4,4.31l.98,3.01,2.04,6.29,1.1,3.4-1.28-14.21c-.52-5.76-.82-10.61-.87-14.41l-.18-11.88-.02-1.51-.02-1.5-.09-5.82c7.65.51,15.38,1.07,23.02,1.68l.08,5.82.02,1.51,1.2,89.01v.55s-.07-.02-.11-.03c-7.51-2.11-15.13-4.08-22.69-5.86Z"/>
    <path class="st4" d="M508.92,464.37c-.72-6.35-2.31-12.76-4.32-18.87-4.46-13.53-11.02-25.58-15.02-32.07-2.77-4.65-5.12-8.47-6.67-11.59-.29-.59-.56-1.16-.79-1.7-.25-.58-.47-1.14-.64-1.66-.35-1.06-.55-2.01-.55-2.85,0-.9.1-1.73.35-2.5.34-1.17.98-2.21,1.89-3.1,1.47-1.54,3.35-2.22,5.64-2.02,3.01.26,6.06,1.92,9.17,5.06,2.41,2.45,4.62,5.56,6.62,9.33.05.1.1.19.15.29.52.98,1.02,2.01,1.51,3.08,0,0,0,.02,0,.03v-2.75c-.02-11.73-.03-23.45-.05-35.17,0-2.34,0-4.67,0-7.01-.54-.38-1.07-.75-1.61-1.1-6.71-4.41-13.4-6.46-20.02-6.49-2.79,0-5.43.34-7.92,1.05-4.7,1.3-8.88,3.83-12.54,7.49-2.04,1.96-3.84,4.2-5.39,6.72-1.56,2.52-2.92,5.29-4.08,8.31-1.12,3.13-1.96,6.19-2.52,9.2h0c-.3,1.65-.53,3.28-.66,4.88-.14,1.55-.2,3.09-.18,4.62.02,1.34.08,2.66.2,3.97.18,2.1.49,4.16.93,6.17.16.73.33,1.45.53,2.17.68,2.52,1.59,5.03,2.73,7.52,1.48,3.02,13.84,21.83,13.84,22.02,3.07,4.9,5.42,9.25,7.14,13.11,2.72,6.08,3.88,10.95,3.87,14.79,0,.41-.01.81-.05,1.2,0,.22-.03.42-.05.63-.07.65-.24,1.27-.48,1.84-.29.7-.69,1.33-1.17,1.9-.65.79-1.45,1.46-2.3,1.98-1.75,1.07-3.69,1.51-4.97,1.14-6.6-1.89-12.83-8.21-18.7-18.49-.12-.21-.24-.42-.36-.64.02,1.96.05,3.92.07,5.88.01,1.04.03,2.08.04,3.13.13,10.52.26,21.03.38,31.56.47.36.94.71,1.41,1.05,4.44,3.31,8.71,6.11,12.8,8.35,2.79,1.53,5.5,2.79,8.12,3.77,7.19,2.7,13.41,2.92,18.72.33,2.06-1,3.97-2.43,5.76-4.3,3.54-3.69,6.05-8.69,7.62-14.88.42-1.69.78-3.47,1.06-5.34.03-.19.06-.37.09-.55.34-2.31.57-4.76.7-7.33.07-1.32.11-2.68.13-4.07.04-2.67-.12-5.37-.43-8.09Z"/>
    <path class="st4" d="M504.6,441.02c-5.09-13.9-11.74-25.14-13.73-28.36l-1.28-2.13c-2.44-4.07-4.48-7.48-5.74-10.2-.25-.53-.47-1.03-.66-1.5-.21-.57-.39-1.09-.51-1.58-.16-.6-.25-1.14-.25-1.63-.02-1.85.57-3.32,1.83-4.55,1.15-1.22,2.6-1.73,4.42-1.57,2.66.24,5.43,1.79,8.23,4.62,2.85,2.9,5.43,6.81,7.69,11.64.05.11.1.22.16.34.04.1.09.21.14.31l1.36,3.01,1.51,3.31v.03s-.06-52.66-.06-52.66l-.63-.45c-.18-.13-.35-.25-.53-.36-.65-.46-1.3-.89-1.95-1.29-6.51-4.11-13.24-6.19-20.02-6.22h-.07c-2.74,0-5.36.33-7.85.99-3.17.83-6.14,2.19-8.89,4.06-.02,0-.03.02-.05.04-1.62,1.11-3.17,2.4-4.64,3.87-2.13,2.05-4.03,4.41-5.63,7.01s-3.01,5.48-4.21,8.6c-2.4,6.71-3.53,13-3.45,19.21,0,1.33.08,2.65.19,3.96v.03c.19,2.2.51,4.36.97,6.46.15.71.32,1.41.52,2.12.7,2.63,1.66,5.28,2.86,7.9,0,.01,0,.01,0,.01,1.04,2.1,6.87,11.15,10.73,17.14,1.25,1.94,2.44,3.79,2.92,4.56v.02l.27.43c3.81,6.07,6.62,11.48,8.41,16.2.61,1.59,1.1,3.11,1.47,4.54.63,2.41.93,4.6.89,6.56,0,.51-.03,1-.08,1.48-.07.62-.26,1.23-.56,1.81-.41.78-1,1.5-1.75,2.12-.21.18-.42.34-.65.49-.02.02-.03.03-.05.03-1.58,1.05-3.21,1.36-4.01,1.13-4.04-1.16-8.04-4.19-11.95-9.06-.04-.04-.07-.07-.09-.11-2.07-2.58-4.11-5.67-6.12-9.26l-2.89-5.14.11,9.02.47,38.18.59.44c.28.21.55.42.82.61.51.4,1.02.77,1.52,1.13,4.31,3.17,8.34,5.77,12.14,7.84,2.86,1.56,5.59,2.82,8.22,3.8,4.02,1.51,7.73,2.27,11.13,2.27,2.55,0,4.94-.43,7.18-1.28,2.84-1.08,5.42-2.86,7.78-5.33,1.97-2.04,3.65-4.5,5.04-7.36,1.23-2.53,2.23-5.37,3.01-8.52.97-3.93,1.58-8.34,1.84-13.22.07-1.33.11-2.69.13-4.08.14-10.56-2.67-21.67-6.25-31.46ZM507.85,472.44c-.02,1.39-.06,2.75-.13,4.07-.66,12.41-3.7,21.5-9.05,27.08-1.16,1.21-2.38,2.22-3.68,3.04-.89.56-1.8,1.03-2.76,1.4-4.62,1.84-10.06,1.55-16.44-.84-2.56-.95-5.23-2.19-8.03-3.73-4.12-2.27-8.54-5.18-13.32-8.79v-.32l-.32-25-.03-2.87-.04-3.02-.04-3.1c5.42,8.31,11.15,13.37,17.08,15.07,1.45.42,3.34.13,5.17-.77.47-.22.93-.48,1.38-.78.49-.33.94-.68,1.35-1.07.51-.46.97-.97,1.35-1.52.5-.69.89-1.42,1.16-2.18.21-.59.35-1.19.42-1.81.58-5.25-1.18-12.06-5.26-20.32-1.6-3.24-3.56-6.7-5.87-10.38h-.02c-.37-.67-1.23-2-3.19-5.05-3.59-5.57-9.6-14.89-10.54-16.8-1.42-3.1-2.48-6.25-3.16-9.38-.41-1.9-.71-3.85-.89-5.84v-.02c-.12-1.31-.18-2.64-.2-3.98-.02-1.43.03-2.87.16-4.31.25-3.09.82-6.22,1.71-9.44h.01c.39-1.45.85-2.91,1.38-4.39,1.12-2.91,2.45-5.63,3.95-8.06,1.48-2.39,3.21-4.55,5.18-6.45,3.4-3.4,7.24-5.73,11.48-7,2.48-.73,5.1-1.1,7.84-1.1h.07c6.76.02,13.49,2.31,20.03,6.8.04.02.07.04.11.07v5.25s0,1.78,0,1.78l.04,30.93s0,0,0-.02c-.05-.08-.1-.16-.15-.24-.87-1.45-1.77-2.8-2.71-4.03-.92-1.2-1.86-2.3-2.84-3.3-3.32-3.36-6.72-5.21-10.11-5.51-1.88-.16-3.56.18-4.99,1.01-.66.38-1.27.86-1.82,1.44-1.81,1.76-2.72,4.01-2.7,6.68.01,1.3.36,2.74,1.02,4.38.23.61.51,1.24.83,1.91.35.72.73,1.46,1.16,2.25,1.22,2.28,2.78,4.88,4.58,7.89l1.28,2.15c2.17,3.53,10,16.76,15.07,32.41.01.01.02.03.02.04.42,1.31.83,2.65,1.21,3.99,1.28,4.52,2.29,9.18,2.83,13.82h0c.3,2.68.46,5.34.42,7.96Z"/>
    <path class="st4" d="M128.24,366.33c-.5,0-1,0-1.5.02-5.45.07-10.9.14-16.34.21-3.55.05-7.1.11-10.65.16-.38,0-.77,0-1.15.02h-.3c-.2,33.49-.39,66.98-.58,100.48,0,0,0,0,0,.02,0,1.55-.02,3.09-.03,4.64-.01,1.14-.04,2.23-.11,3.28-.58,9.62-3.58,15.3-8.95,17.13-.57.19-1.12.33-1.67.43-3.14.54-5.95-.54-8.45-3.32-.38-.41-.75-.86-1.1-1.35-.14-.18-.27-.36-.4-.55,0,10.87,0,21.74-.02,32.61v8.83c7.1,0,13.37-1.2,18.79-3.44,1.58-.66,3.1-1.38,4.56-2.16,8.05-4.27,14.41-10.35,19.01-18.23.13-.22.26-.45.38-.67,2.62-4.61,4.45-9.22,5.5-13.89.55-2.28.97-4.86,1.28-7.73.37-3.37.58-7.15.63-11.35.01-.84.02-1.67.03-2.51.39-34.21.78-68.42,1.17-102.63h-.1Z"/>
    <path class="st4" d="M129.75,364.81l-1.16.02h-.33c-.5,0-1.01,0-1.51.02-5.45.07-10.9.14-16.35.21-3.55.05-7.09.11-10.64.16-.38,0-.77,0-1.15.02h-.35l-1.45.02-.62,106.01v.6c-.01.76-.02,1.49-.06,2.21-.01.3-.02.6-.04.89-.1,1.69-.28,3.24-.53,4.67-1.08,6.15-3.56,9.91-7.41,11.23-.56.19-1.1.32-1.63.39-3.04.46-5.63-.92-8.01-4.25-.09-.12-.18-.24-.26-.36l-.84-1.22-.4-.59-1.5-2.17-.02,38.94v8.82h1.5s.1,0,.1,0c7.09,0,13.57-1.2,19.26-3.56,1.63-.68,3.21-1.42,4.73-2.25,8.19-4.34,14.71-10.55,19.42-18.51.05-.08.1-.17.15-.25,2.94-5.04,4.91-9.95,6.04-14.98,1.22-5.12,1.86-11.47,1.95-19.41l1.21-106.67h-.1ZM118.06,504.36c-4.45,7.6-10.64,13.52-18.45,17.66-1.41.76-2.89,1.45-4.41,2.09-4.95,2.05-10.57,3.17-16.71,3.31v-8.94l.02-26.94c2.63,2.38,5.61,3.26,8.9,2.62.56-.11,1.12-.26,1.7-.45,6.61-2.26,10-9.6,10.08-21.82l.6-103.68c3.54-.05,7.07-.1,10.61-.14,5.44-.08,10.88-.15,16.32-.22h.1l-1.18,103.6c-.05,3.75-.23,7.18-.53,10.28-.02.29-.05.57-.08.84-.31,2.85-.73,5.41-1.27,7.65-.12.56-.26,1.11-.41,1.66-.95,3.62-2.39,7.2-4.37,10.84-.29.54-.6,1.09-.92,1.64Z"/>
    <path class="st4" d="M202.03,480.29c-.1-.48-.2-.97-.3-1.46-.1-.49-.2-.99-.29-1.48-.05-.2-.09-.4-.12-.6-5.19-25.81-10.32-52.14-15.42-79.16-10.57.62-21.12,1.33-31.65,2.12-6.75,29.94-13.48,61.01-20.13,93.42-.02.09-.04.19-.06.28-.11.56-.23,1.12-.34,1.68-.12.56-.23,1.12-.34,1.68-.53,2.57-1.06,5.15-1.58,7.74,9.2-2.89,18.48-5.52,27.8-7.9.42-2.54.84-5.06,1.26-7.59.26-1.6.53-3.19.79-4.79.02,0,.05,0,.07,0,3.88-.89,7.77-1.74,11.67-2.55.1-.02.19-.04.29-.06.19,1.4.39,2.8.57,4.2.33,2.36.65,4.71.98,7.06,9.36-2.09,18.78-3.93,28.22-5.52-.48-2.35-.95-4.7-1.42-7.06ZM170.84,459.25c-1.75.31-3.49.61-5.23.93.36-2.5.71-5,1.07-7.49.07-.53.15-1.05.22-1.57.1-.68.2-1.36.29-2.04.54-3.76,1.08-7.51,1.62-11.26.2,1.99.62,6.45,1.03,10.78.06.66.13,1.32.19,1.97.05.51.09,1.01.14,1.5.37,3.98.67,7.18.67,7.18Z"/>
    <path class="st4" d="M172.28,458.55c-.23-2.42-.44-4.67-.63-6.74-.68-7.21-1.15-12.13-1.35-14.14l-1.22-12.22-1.75,12.16c-.74,5.1-1.47,10.22-2.2,15.36-.34,2.33-.67,4.66-1,7l-.3,2.05,2.05-.37c1.73-.31,3.47-.62,5.21-.92l1.37-.24-.18-1.94ZM169.21,458.01c-.61.11-1.21.22-1.82.32.28-1.98.56-3.95.84-5.92.08-.52.15-1.04.23-1.56.02-.12.03-.25.05-.37,0,.11.02.23.03.35.05.49.1.99.14,1.51.17,1.76.35,3.65.53,5.67ZM172.28,458.55c-.23-2.42-.44-4.67-.63-6.74-.68-7.21-1.15-12.13-1.35-14.14l-1.22-12.22-1.75,12.16c-.74,5.1-1.47,10.22-2.2,15.36-.34,2.33-.67,4.66-1,7l-.3,2.05,2.05-.37c1.73-.31,3.47-.62,5.21-.92l1.37-.24-.18-1.94ZM169.21,458.01c-.61.11-1.21.22-1.82.32.28-1.98.56-3.95.84-5.92.08-.52.15-1.04.23-1.56.02-.12.03-.25.05-.37,0,.11.02.23.03.35.05.49.1.99.14,1.51.17,1.76.35,3.65.53,5.67ZM204.92,487.05c-.47-2.33-.94-4.67-1.42-7.01-.1-.49-.19-.98-.29-1.47-.14-.69-.28-1.38-.42-2.07-5.21-25.98-10.39-52.57-15.42-79.19l-.25-1.29-1.31.07h-.05c-10.47.61-21.12,1.33-31.62,2.13l-1.11.08-.24,1.08c-7.26,32.16-13.93,63.1-20.31,94.26-.13.65-.26,1.3-.4,1.96-.11.56-.23,1.12-.34,1.68-.47,2.31-.94,4.62-1.41,6.93l-.51,2.49,2.42-.76c9.14-2.86,18.47-5.51,27.73-7.87l.95-.25.16-.96c.63-3.81,1.26-7.6,1.89-11.39,3.14-.71,6.31-1.4,9.44-2.06l1.55,11.28,1.6-.35c9.29-2.08,18.76-3.94,28.14-5.51l1.53-.26-.31-1.52ZM173.18,480.18c-3.72.77-7.47,1.59-11.2,2.44-.22.05-.44.1-.66.15l-.92.22h-.06s-.17,1-.17,1c-.1.59-.19,1.17-.29,1.76-.12.68-.23,1.37-.34,2.06-.09.53-.18,1.07-.27,1.61-.33,1.99-.66,3.98-.99,5.98-8.18,2.11-16.41,4.43-24.51,6.93.41-2.03.82-4.05,1.24-6.07.11-.56.22-1.12.34-1.67.11-.56.23-1.12.35-1.67.01-.11.03-.21.06-.31,6.2-30.24,12.68-60.3,19.71-91.48,9.71-.73,19.52-1.39,29.2-1.97,4.95,26.18,10.04,52.31,15.18,77.85.03.2.07.4.12.6.09.49.19.98.29,1.47.1.49.2.98.3,1.47.37,1.86.74,3.72,1.12,5.58-8.41,1.44-16.86,3.09-25.19,4.93l-.77-5.59-.2-1.48-.57-4.17-.3.06-1.27.26c-.07,0-.13.03-.2.04ZM171.65,451.81c-.68-7.21-1.15-12.13-1.35-14.14l-1.22-12.22-1.75,12.16c-.74,5.1-1.47,10.22-2.2,15.36-.34,2.33-.67,4.66-1,7l-.3,2.05,2.05-.37c1.73-.31,3.47-.62,5.21-.92l1.37-.24-.18-1.94c-.23-2.42-.44-4.67-.63-6.74ZM169.21,458.01c-.61.11-1.21.22-1.82.32.28-1.98.56-3.95.84-5.92.08-.52.15-1.04.23-1.56.02-.12.03-.25.05-.37,0,.11.02.23.03.35.05.49.1.99.14,1.51.17,1.76.35,3.65.53,5.67Z"/>
    <path class="st4" d="M275.77,394.55c-1.51,8.99-3.03,18-4.56,27.02-.46,2.72-.9,5.71-1.31,8.93-.77-5.3-1.6-10.2-2.48-14.67-1.35-7.03-2.7-14.07-4.04-21.12-7.84.13-15.68.3-23.52.53-1.61,8.51-3.22,17.05-4.84,25.63-.67,3.65-1.29,7.43-1.85,11.32-.46-3.54-1.01-7.55-1.66-11.99-1.25-8.16-2.49-16.35-3.73-24.57-9.03.32-18.06.71-27.08,1.16,6.17,30.09,12.4,59.37,18.71,88.12,8.8-1.21,17.62-2.2,26.46-2.98,1.64-10.72,3.28-21.4,4.9-32.05.29-1.86.55-3.66.78-5.39.32,2.01.68,4.12,1.08,6.35,1.8,10.08,3.62,20.13,5.44,30.16,8.77-.57,17.55-.93,26.33-1.07,6.17-28.58,12.24-56.99,18.21-85.44-8.94-.05-17.89-.03-26.83.06Z"/>
    <path class="st4" d="M303.38,392.99h-2.4c-.48,0-.97,0-1.45,0-5.27-.02-10.57-.02-15.85,0-2.55.01-5.09.03-7.62.06h-1.52s-.04.01-.04.01l-.21,1.24c-.63,3.71-1.25,7.43-1.88,11.15-.75,4.47-1.51,8.95-2.27,13.43-.1.59-.2,1.19-.3,1.78-.17-.98-.35-1.95-.53-2.89,0-.07-.02-.14-.03-.21-.13-.68-.26-1.36-.39-2.02-1.36-7.03-2.7-14.06-4.05-21.11l-.23-1.24-1.26.02h-.11c-7.69.12-15.52.3-23.25.53h-.18l-1.21.03-4.73,25.08-.15.78-.18.96c-.03.13-.05.27-.07.4-.07.35-.14.69-.2,1.04-.09-.68-.19-1.36-.3-2.06-1.24-8.16-2.49-16.35-3.73-24.57l-.19-1.32h-.19s-1.15.05-1.15.05c-.12,0-.23.01-.35.01-7.85.28-15.8.62-23.66,1-.25,0-.51.02-.76.04-.25,0-.5.02-.75.03-.51.03-1.02.05-1.52.08h-.06l-1.74.09.35,1.71c6.01,29.3,12.3,58.96,18.71,88.14l.3,1.35,1.37-.18c8.73-1.2,17.61-2.2,26.39-2.98l1.18-.1,4.49-29.35c1.63,9.12,3.28,18.22,4.93,27.3l.24,1.31,1.33-.08c8.7-.57,17.54-.93,26.26-1.07l1.19-.02.25-1.16c6.58-30.48,12.35-57.58,17.64-82.73.19-.91.38-1.82.57-2.72l.38-1.8h-1.07ZM259.3,479.42c-.35-1.92-.7-3.84-1.04-5.76-1.4-7.68-2.78-15.37-4.16-23.08-.4-2.22-.76-4.32-1.08-6.32l-.03-.16-1.37-8.67-.22-1.41-1.34,10.28c-.23,1.72-.49,3.5-.78,5.36l-3.24,21.17-.35,2.3-.23,1.52-.9,5.89c-7.99.72-16.05,1.62-23.99,2.7-.41-1.87-.82-3.75-1.23-5.63-5.76-26.34-11.42-53.01-16.83-79.41.1,0,.19,0,.29,0,.25-.02.5-.03.76-.04.25,0,.5-.03.75-.03,7.36-.36,14.8-.68,22.17-.95,1.17,7.78,2.35,15.53,3.53,23.24.64,4.4,1.2,8.43,1.66,11.97l1.4,10.85,1.57-10.83c.57-3.94,1.19-7.73,1.84-11.26l4.62-24.44c7-.2,14.06-.36,21.03-.47,1.27,6.63,2.54,13.26,3.81,19.88.88,4.46,1.71,9.37,2.47,14.6l1.59,10.88,1.38-10.91c.42-3.25.85-6.23,1.31-8.86.69-4.07,1.37-8.14,2.06-12.21.76-4.53,1.53-9.05,2.29-13.57,2.18-.02,4.37-.03,6.56-.04,5.1-.03,10.21-.04,15.29-.02h1.86c-4.92,23.47-10.28,48.62-16.31,76.63-.42,1.93-.84,3.88-1.26,5.84-7.94.15-15.96.47-23.88.97Z"/>
    <path class="st4" d="M370.06,478.04c-.11-.52-.23-1.05-.35-1.57-.11-.52-.22-1.04-.34-1.56-.05-.27-.11-.53-.17-.8-5.87-26.76-11.7-52.94-17.46-78.72-10.6-.33-21.21-.58-31.82-.73-6.08,24.8-12.25,49.44-18.51,74.12-.06.27-.13.55-.21.82-.11.5-.24.99-.37,1.49-.12.5-.25,1-.38,1.5-.61,2.43-1.23,4.87-1.85,7.3,9.56.09,19.12.44,28.67,1.04.62-3.48,1.24-6.96,1.85-10.45,4.08.25,8.16.54,12.23.87h.02c.19,1.13.39,2.26.58,3.39.42,2.48.84,4.95,1.27,7.43,9.52.89,19.02,2.03,28.49,3.41-.55-2.52-1.1-5.03-1.65-7.54ZM333.68,442.62c.07-.49.14-.99.21-1.49.1-.72.2-1.45.3-2.18.4-2.87.8-5.74,1.2-8.62.22,1.64.68,5.14,1.15,8.76.09.74.19,1.48.28,2.21.07.51.13,1.02.2,1.52.52,4.01.95,7.37.95,7.37-1.77-.11-3.54-.21-5.3-.31.34-2.42.68-4.84,1.01-7.26Z"/>
    <path class="st4" d="M339.42,449.7c-.22-1.66-.54-4.13-.88-6.79-.15-1.23-.32-2.5-.48-3.74-.49-3.78-.95-7.38-1.18-9.04l-1.3-9.59-.17-1.27-1.51,10.85c-.57,4.14-1.15,8.29-1.73,12.42-.33,2.38-.66,4.76-.99,7.13l-.23,1.62,1.63.09c1.77.1,3.53.2,5.29.31l1.82.11-.27-2.1ZM336.25,448.58c-.63-.03-1.25-.07-1.87-.11.27-1.92.53-3.84.8-5.76.05-.38.11-.77.16-1.15l.15,1.17c.28,2.15.55,4.21.76,5.85ZM339.42,449.7c-.22-1.66-.54-4.13-.88-6.79-.15-1.23-.32-2.5-.48-3.74-.49-3.78-.95-7.38-1.18-9.04l-1.3-9.59-.17-1.27-1.51,10.85c-.57,4.14-1.15,8.29-1.73,12.42-.33,2.38-.66,4.76-.99,7.13l-.23,1.62,1.63.09c1.77.1,3.53.2,5.29.31l1.82.11-.27-2.1ZM336.25,448.58c-.63-.03-1.25-.07-1.87-.11.27-1.92.53-3.84.8-5.76.05-.38.11-.77.16-1.15l.15,1.17c.28,2.15.55,4.21.76,5.85ZM373.17,485.26c-.51-2.34-1.02-4.67-1.53-6.99-.11-.52-.23-1.05-.34-1.57-.17-.79-.35-1.58-.52-2.36-6.49-29.58-12.72-57.57-17.58-79.27l-.25-1.14-1.11-.03h-.06c-10.51-.34-21.18-.59-31.67-.74h-.44l-.92-.02-.29,1.16c-.56,2.27-1.12,4.56-1.68,6.86-5.2,21.11-10.76,43.37-16.91,67.6-.19.77-.38,1.54-.58,2.31-.13.5-.25.99-.38,1.49-.58,2.3-1.17,4.62-1.77,6.96l-.47,1.85,1.91.02c9.5.09,19.13.44,28.6,1.04l1.33.08,1.86-10.45c3.24.2,6.5.44,9.72.69l1.84,10.81,1.15.11c9.45.88,19.01,2.02,28.41,3.4l2.15.31-.47-2.12ZM343.24,473.35l-.58-3.4h-.02l-1.15-.09c-.13,0-.27-.02-.4-.03-3.87-.32-7.82-.6-11.74-.84-.05,0-.09,0-.14,0l-1.33-.08-.83,4.7-1.02,5.75c-8.46-.51-17.02-.83-25.51-.94.5-1.95.99-3.88,1.48-5.8.12-.5.25-1,.38-1.5.12-.49.25-.99.37-1.48.07-.27.14-.55.21-.82,6.63-26.15,12.59-50.03,18.13-72.63,9.76.14,19.65.37,29.44.68,4.75,21.26,10.79,48.36,17.08,77.02.06.27.12.55.18.82.11.52.23,1.03.34,1.55.11.52.23,1.04.34,1.56.44,1.99.87,3.98,1.31,5.98-8.38-1.19-16.87-2.2-25.28-3l-1-5.9-.26-1.54ZM338.54,442.91c-.15-1.23-.32-2.5-.48-3.74-.49-3.78-.95-7.38-1.18-9.04l-1.3-9.59-.17-1.27-1.51,10.85c-.57,4.14-1.15,8.29-1.73,12.42-.33,2.38-.66,4.76-.99,7.13l-.23,1.62,1.63.09c1.77.1,3.53.2,5.29.31l1.82.11-.27-2.1c-.22-1.66-.54-4.13-.88-6.79ZM336.25,448.58c-.63-.03-1.25-.07-1.87-.11.27-1.92.53-3.84.8-5.76.05-.38.11-.77.16-1.15l.15,1.17c.28,2.15.55,4.21.76,5.85Z"/>
    <path class="st4" d="M414.2,398.44c.11,7.45.22,14.89.33,22.34.06,3.88.35,8.76.88,14.52.03.3.06.61.08.91-.5-1.56-.97-2.99-1.41-4.32-4.17-11.66-8.34-23.07-12.5-34.25-8.53-.5-17.08-.95-25.63-1.33.4,30.03.79,60.06,1.19,90.09,8.8,1.38,17.58,2.98,26.31,4.8-.12-8.22-.24-16.43-.36-24.65-.05-3.5-.22-7.67-.51-12.38.3.89.6,1.79.92,2.71,4.2,12.1,8.4,24.46,12.59,37.11,8.54,1.99,17.04,4.2,25.49,6.61-.45-33.42-.9-66.85-1.35-100.27-8.66-.7-17.34-1.33-26.03-1.91Z"/>
    <path class="st4" d="M442.98,493.76l-1.27-94.8-1.02-.08-.34-.03h-.02c-.5-.04-1.01-.08-1.51-.12-7.65-.61-15.37-1.17-23.01-1.68-.38-.03-.76-.05-1.14-.07l-.36-.03h0l-1.5-.1h-.13s.28,18.64.28,18.64l.02,1.5.05,3.13v.69c.03,1.25.07,2.61.14,4.08-.65-1.81-1.31-3.62-1.97-5.44-.28-.78-.57-1.56-.85-2.35-2.41-6.61-4.87-13.29-7.36-19.97l-.34-.91-.97-.06c-8.01-.48-16.12-.9-24.12-1.27-.38-.02-.76-.03-1.13-.05-.12,0-.25,0-.37-.02h-.03l-1.47-.06h-.12s1.22,92.93,1.22,92.93l1.26.2c8.75,1.37,17.57,2.99,26.23,4.79l1.84.38-.13-8.85-.26-17.67c-.01-.65-.03-1.32-.04-2.01.05.14.1.29.15.43,3.4,9.89,6.74,19.78,9.96,29.52l.27.79.81.19c8.47,1.98,17.02,4.2,25.42,6.6l1.94.55-.12-8.85ZM404.92,456.41c-.32-.92-.62-1.82-.92-2.7l-.66-1.96-.49-1.45-1.8-5.37-.67-1.98.7,11.33c.28,4.64.46,8.78.51,12.31l.19,13.24v.68s.03,1.55.03,1.55l.03,1.53.08,5.78c-7.7-1.58-15.53-3.01-23.3-4.25l-.08-5.79-.02-1.52-.03-2.28-1.02-77.64s.08,0,.12,0c7.61.34,15.3.75,22.92,1.2,4.17,11.2,8.26,22.41,12.15,33.28.43,1.32.9,2.74,1.4,4.3l4.1,12.71-1.08-12.23-.18-1.99c-.52-5.76-.82-10.6-.87-14.41l-.31-20.71s.09.01.13.01c7.61.51,15.29,1.07,22.89,1.68l1.18,87.48v.55s.05,3.14.05,3.14l.08,5.72c-7.55-2.13-15.21-4.11-22.81-5.89-.69-2.07-1.38-4.16-2.08-6.24-3.33-9.97-6.77-20.06-10.24-30.09Z"/>
    <path class="st4" d="M509.29,477.87c-.01-.45-.03-.89-.07-1.34-.25-3.99-.89-8.04-1.79-12.04h0c-.77-3.45-1.74-6.85-2.83-10.17-4.46-13.53-11.02-25.58-15.02-32.07-5-8.38-8.63-14.09-8.65-17.8,0-.9.11-1.74.35-2.52.19-.64.47-1.24.84-1.79.22-.35.48-.69.8-1.01.07-.09.16-.19.25-.28t.02-.02c1.47-1.53,3.34-2.2,5.62-2,3,.27,6.06,1.92,9.17,5.06,2.41,2.45,4.61,5.56,6.62,9.33.57,1.08,1.13,2.21,1.67,3.4,0-1.73,0-3.47,0-5.2v-3.65c0-.92,0-1.84,0-2.75-.01-11.11-.03-22.22-.04-33.32-.5-.35-.99-.69-1.49-1.02-.04-.03-.08-.06-.12-.08-6.71-4.41-13.4-6.47-20.02-6.5-2.79-.01-5.43.34-7.92,1.05-4.7,1.3-8.88,3.83-12.54,7.49-2.04,1.96-3.84,4.2-5.39,6.72-1.56,2.52-2.92,5.29-4.08,8.31-.67,1.87-1.24,3.72-1.7,5.55-.51,1.95-.9,3.88-1.17,5.79-.12.84-.22,1.67-.29,2.51-.16,1.63-.22,3.24-.2,4.85,0,1.27.07,2.53.18,3.76.18,2.18.5,4.3.95,6.38.7,3.26,1.79,6.48,3.26,9.69,1.48,3.03,13.84,21.83,13.84,22.02,3.07,4.9,5.42,9.25,7.14,13.11.99,2.21,1.77,4.26,2.36,6.16.29.9.53,1.77.73,2.61.07.3.14.59.2.87.17.81.3,1.58.39,2.32.22,1.72.24,3.27.09,4.66-.36,3.24-3.07,5.59-5.62,6.53-1.23.45-2.42.58-3.3.33-6.13-1.75-11.93-7.32-17.42-16.33-.39-.64-.78-1.29-1.17-1.96-.12-.21-.24-.43-.36-.65-.04-.06-.07-.13-.11-.19.13,11.18.27,22.37.41,33.55.02,2.34.05,4.68.08,7.02,3.75,2.85,7.37,5.36,10.87,7.48,3.98,2.41,7.8,4.32,11.46,5.69,5.01,1.87,9.55,2.55,13.64,1.91,4.05-.62,7.66-2.54,10.84-5.88,5.09-5.3,8.04-13.31,9.13-23.67.28-2.68.44-5.51.47-8.5.02-1.13,0-2.27-.06-3.41Z"/>
    <path class="st4" d="M510.72,476.56c-.18-2.92-.56-5.87-1.1-8.79-.21-1.14-.44-2.27-.7-3.4-1.11-5.01-2.63-9.92-4.32-14.53-.39-1.07-.8-2.13-1.21-3.17,0,0,0-.03-.02-.04-4.87-12.39-10.67-22.17-12.5-25.14l-1.28-2.14c-4.15-6.93-7.14-11.94-7.16-14.91,0-.09,0-.18.01-.26,0-.86.16-1.64.47-2.34.18-.44.42-.86.73-1.25.06-.09.13-.17.21-.26.12-.15.26-.3.41-.44,1.15-1.21,2.6-1.73,4.42-1.57,2.66.24,5.43,1.8,8.23,4.63,2.84,2.88,5.43,6.8,7.69,11.64.1.21.2.43.3.65l2.88,6.34v-8.85s-.07-43.81-.07-43.81l-.63-.45c-.17-.12-.35-.24-.52-.36-.11-.08-.23-.16-.34-.23-.5-.35-1-.67-1.5-.98-.04-.04-.08-.06-.12-.08-6.52-4.1-13.24-6.19-20.02-6.22h-.09c-2.73,0-5.34.33-7.83.99-5.05,1.32-9.6,3.99-13.58,7.97-2.13,2.04-4.02,4.4-5.63,7.01-1.01,1.63-1.93,3.37-2.78,5.2h-.01c-.5,1.11-.98,2.24-1.42,3.4-.58,1.62-1.08,3.21-1.52,4.79h0c-.09.33-.17.65-.25.97-.75,2.92-1.24,5.77-1.49,8.59v.03c-.15,1.62-.21,3.23-.19,4.84.04,3.56.43,7.07,1.16,10.44.72,3.33,1.86,6.7,3.38,10.03,1.04,2.11,6.87,11.16,10.73,17.15,1.25,1.94,2.45,3.79,2.92,4.55v.02l.27.44c3.81,6.07,6.62,11.48,8.41,16.2.76,1.97,1.33,3.83,1.72,5.56.06.27.12.54.17.81.09.43.17.86.23,1.28.1.67.17,1.32.21,1.94.07,1.05.05,2.05-.05,2.98-.19,1.67-1.27,3.28-2.96,4.42-.25.17-.51.32-.76.45-1.34.71-2.62.91-3.3.71-6.11-1.75-12.12-7.78-17.87-17.91-.1-.17-.19-.34-.29-.51l-.88-1.56-.36-.65-1.54-2.74-.11-.2.58,47.2.59.44c3.9,2.97,7.58,5.51,11.08,7.61h0c4.11,2.5,7.96,4.41,11.62,5.77,4.03,1.51,7.73,2.27,11.14,2.27.73,0,1.44-.03,2.14-.1,4.89-.48,9.13-2.65,12.81-6.5,6.47-6.74,9.84-17.91,10.02-33.19.02-1.57-.02-3.15-.13-4.74ZM489.79,517.66c-4.03.92-8.64.36-14-1.65-3.54-1.32-7.28-3.18-11.3-5.62-3.17-1.93-6.51-4.22-10.05-6.89l-.06-5.14-.03-1.88-.03-2.21-.31-25.09c.04.06.08.12.11.17,5.39,8.21,11.08,13.21,16.97,14.9.96.28,2.12.24,3.32-.07,1.07-.28,2.19-.78,3.24-1.48,2.43-1.63,3.99-4.03,4.27-6.58.23-2.09.09-4.43-.42-7.01-.21-1.08-.49-2.2-.83-3.36-.05-.15-.09-.3-.14-.45-.61-2-1.41-4.12-2.4-6.37-.46-1.02-.94-2.06-1.47-3.13-1.6-3.24-3.56-6.7-5.87-10.38l-.02.02c-.37-.69-1.23-2.02-3.18-5.06-3.6-5.57-9.61-14.89-10.55-16.81-1.14-2.49-2.05-5.01-2.71-7.53,0,0,0,0,0-.01-.17-.61-.32-1.23-.45-1.84-.44-2.05-.75-4.17-.93-6.33-.09-1.16-.15-2.33-.16-3.51v-.51c0-1.43.06-2.86.2-4.31v-.02c.41-4.3,1.42-8.69,3.06-13.3,1.12-2.9,2.45-5.62,3.95-8.06,1.48-2.4,3.21-4.56,5.18-6.45,3.4-3.39,7.24-5.73,11.48-6.99,2.48-.74,5.09-1.11,7.83-1.11h.08c6.75.02,13.48,2.31,20.03,6.81.04.02.07.04.11.07l.04,29.11v6.51s0,2.34,0,2.34c-.05-.09-.1-.18-.16-.26-1.71-2.87-3.57-5.33-5.56-7.34-3.31-3.35-6.71-5.2-10.1-5.5-2.47-.22-4.59.43-6.26,1.91-.14.13-.29.26-.42.4-.05.04-.09.09-.13.13-.23.23-.45.46-.65.7-.41.48-.75,1-1.03,1.54-.69,1.31-1.03,2.8-1.02,4.45.02,3.78,3.03,8.81,7.59,16.42l1.28,2.15c2.36,3.83,11.38,19.08,16.3,36.44,1.58,5.56,2.74,11.34,3.12,17.03.1,1.59.15,3.18.13,4.75-.03,2.6-.15,5.07-.37,7.41-.03.37-.07.73-.11,1.08-.33,3.09-.83,5.94-1.5,8.55-1.53,5.99-3.93,10.7-7.2,14.11-2.64,2.76-5.56,4.51-8.88,5.25Z"/>
    <path class="st2" d="M110.4,355.62c-3.92.04-7.83.08-11.74.13v.65c0,.5,0,1.01,0,1.51-.02,2.44-.03,4.89-.04,7.33-.01.5-.01,1-.01,1.5-.18,31.48-.36,62.95-.53,94.44-.02,2.18-.13,4.19-.35,6.04,0,0,0,0,0,.02-.17,1.39-.4,2.68-.69,3.88-.25,1.07-.55,2.05-.9,2.96-1.47,3.87-3.78,6.37-6.92,7.52-.06.02-.13.05-.19.07-1.7.58-3.32.73-4.85.41-1.7-.35-3.3-1.26-4.79-2.77-.68-.68-1.33-1.48-1.97-2.41v41.6c.36,0,.72-.01,1.08-.02,4.9-.1,9.39-.8,13.47-2.02.19-.06.38-.11.57-.18.26-.08.53-.17.79-.26.9-.29,1.78-.62,2.63-.98.07-.03.15-.06.22-.09,8.74-3.71,15.76-9.25,21.01-16.62.91-1.26,1.76-2.57,2.55-3.93,2.44-4.22,4.24-8.42,5.38-12.67.18-.64.34-1.29.48-1.94.12-.5.23-1,.34-1.53.56-2.73.97-5.83,1.24-9.3.19-2.55.31-5.31.34-8.27.36-31.96.72-63.9,1.08-95.86.04-2.94.07-5.88.1-8.82,0-.19,0-.39,0-.58-6.1.06-12.2.12-18.3.19Z"/>
    <path class="st2" d="M186.34,387.24c-.03-.16-.06-.31-.09-.47-10.56.61-21.11,1.31-31.64,2.1-.04.17-.08.33-.11.5-7.5,33.27-14.98,67.95-22.34,104.37.01,0,.03,0,.04,0,.09-.03.19-.06.28-.09.45-.14.9-.29,1.35-.42.1-.04.19-.07.29-.09.55-.18,1.1-.35,1.64-.52,7.49-2.32,15.02-4.48,22.59-6.46.51-.14,1.02-.27,1.53-.4.02-.01.04-.01.06-.02h0c.15-.91.3-1.83.45-2.74.19-1.16.38-2.31.57-3.46.23-1.38.46-2.75.69-4.12.09-.53.17-1.06.26-1.59.03-.16.05-.31.08-.47,4-.93,8.01-1.82,12.02-2.66.02.16.04.32.07.48.49,3.6.98,7.18,1.48,10.76.28-.06.57-.13.85-.19,7.78-1.75,15.6-3.33,23.43-4.73.49-.09.98-.17,1.47-.26.08-.01.16-.03.24-.04.41-.07.82-.15,1.23-.21.08-.02.16-.04.24-.05.25-.04.51-.09.76-.13-5.87-28.95-11.68-58.57-17.45-89.08ZM170.66,448.46c-.28.04-.55.09-.82.14-.23.04-.45.08-.67.12-.57.1-1.14.2-1.71.31-.09.01-.18.03-.27.05-.41.07-.82.14-1.23.22.96-6.72,1.92-13.41,2.87-20.06,0,0,.01,0,0-.02.11-.75.22-1.51.33-2.26.45,4.46,2.03,21.4,2.03,21.4-.18.03-.35.06-.53.1Z"/>
    <path class="st2" d="M276.12,383.75c-1.51,8.96-3.03,17.93-4.56,26.91-.46,2.7-.9,5.69-1.31,8.89-.77-5.28-1.6-10.16-2.48-14.61-1.35-7-2.7-14.01-4.04-21.03-7.84.13-15.68.3-23.52.52-1.61,8.48-3.22,16.99-4.84,25.54-.67,3.64-1.3,7.41-1.86,11.29-.46-3.53-1.01-7.52-1.66-11.95-1.25-8.13-2.49-16.3-3.73-24.49-9.03.32-18.06.7-27.07,1.15,6.16,30.02,12.38,59.23,18.69,87.88,8.8-1.23,17.63-2.24,26.47-3.02,1.64-10.69,3.28-21.33,4.91-31.94.29-1.86.55-3.65.78-5.37.32,2,.68,4.11,1.08,6.32,1.8,10.04,3.61,20.05,5.44,30.04,8.77-.58,17.55-.94,26.34-1.08,6.17-28.47,12.24-56.76,18.21-85.1-8.94-.05-17.89-.02-26.83.06Z"/>
    <path class="st2" d="M352.19,385.08c-.04-.16-.07-.33-.11-.49-9.63-.3-19.26-.53-28.9-.68-.97-.02-1.95-.04-2.92-.05-.04.16-.08.32-.12.48-1.65,6.71-3.3,13.4-4.96,20.09-5.34,21.48-10.76,42.87-16.24,64.32h.24c.23,0,.46,0,.69,0,.29,0,.57.01.86.01.23,0,.45,0,.68,0,.52.01,1.03.01,1.55.03,7.74.13,15.48.44,23.21.91.48.03.97.06,1.45.09.57-3.21,1.15-6.43,1.72-9.64.05-.26.09-.51.14-.77,4.08.25,8.17.55,12.25.88.04.26.09.53.13.79.57,3.33,1.14,6.66,1.71,10,.26.02.53.05.79.08,7.76.74,15.52,1.65,23.25,2.73.53.08,1.06.15,1.59.23.13.02.26.04.4.06.39.05.79.11,1.18.17.14.02.27.04.41.06.29.04.59.09.88.13-6.69-30.52-13.33-60.26-19.88-89.45ZM338.06,439.17c-.13,0-.25,0-.38-.02-.38-.02-.76-.05-1.14-.06-.13-.02-.26-.02-.38-.03-.56-.03-1.12-.07-1.68-.09-.1-.01-.2-.02-.29-.02-.39-.03-.78-.05-1.17-.07.8-5.71,1.6-11.44,2.4-17.17.05-.39.11-.78.16-1.17.05-.38.11-.76.16-1.14.55,4.08,2.58,19.78,2.58,19.79-.09,0-.17,0-.26-.02Z"/>
    <path class="st2" d="M414.53,387.61c.11,7.44.22,14.88.33,22.32.06,3.88.36,8.75.88,14.51.03.3.06.61.08.91-.51-1.56-.97-2.99-1.41-4.31-4.17-11.66-8.34-23.05-12.51-34.21-8.53-.5-17.08-.94-25.63-1.32.4,29.95.8,59.91,1.21,89.86,8.8,1.4,17.57,3.03,26.31,4.88-.12-8.2-.24-16.4-.37-24.61-.05-3.5-.22-7.66-.51-12.36.3.88.61,1.79.92,2.71,4.2,12.09,8.4,24.44,12.59,37.1,8.54,2.02,17.03,4.26,25.48,6.71-.45-33.43-.91-66.86-1.36-100.29-8.66-.69-17.34-1.32-26.03-1.89Z"/>
    <path class="st2" d="M509.62,467.77c-.3-8.35-2.3-17.01-5.02-25.1-4.44-13.21-10.78-24.9-14.7-31.25-2.54-4.28-4.72-7.86-6.26-10.83-.26-.5-.5-.99-.72-1.46-.25-.51-.47-1.01-.66-1.48-.64-1.57-.99-2.91-1-4.07,0-.15,0-.3.02-.45.06-2.07.81-3.78,2.22-5.17.15-.16.3-.3.45-.44,1.4-1.24,3.13-1.78,5.19-1.6,3.01.26,6.06,1.92,9.17,5.07,1.25,1.26,2.44,2.7,3.58,4.33.94,1.34,1.84,2.82,2.71,4.41.05.09.1.18.15.27.52.96,1.02,1.97,1.5,3.02,0,0,.02.02.02.03.11.23.21.46.32.7-.01-11.88-.02-23.76-.03-35.64,0-2.94,0-5.88,0-8.82v-.63c-.65-.46-1.3-.9-1.95-1.32-6.6-4.26-13.17-6.22-19.68-6.23-2.91.01-5.66.4-8.26,1.18-3.21.94-6.17,2.47-8.89,4.54-.02,0-.03.02-.05.04-1.13.86-2.22,1.81-3.26,2.86-2.05,1.97-3.85,4.21-5.4,6.74-1.56,2.53-2.91,5.3-4.07,8.33-1.37,3.85-2.32,7.59-2.86,11.25h0c-.19,1.32-.33,2.62-.41,3.91h0c-.08,1.2-.11,2.38-.1,3.56.01,1.18.07,2.34.16,3.49.17,2.28.5,4.5.97,6.66,0,.06.02.11.04.17.71,3.2,1.79,6.37,3.22,9.52,1.49,3.03,13.84,21.87,13.84,22.06,2.88,4.61,5.12,8.73,6.81,12.42,3.42,7.48,4.56,13.16,4.09,17.4-.02.17-.04.34-.08.51-.04.25-.11.51-.19.75-.18.57-.43,1.1-.73,1.6-.35.55-.75,1.04-1.2,1.49-.59.58-1.25,1.07-1.93,1.47-.21.12-.43.24-.64.33-.02.02-.03.03-.05.03-1.5.72-3.03.97-4.1.66-4.1-1.19-8.06-4.09-11.86-8.59-.04-.04-.07-.07-.09-.11-2.43-2.87-4.79-6.38-7.1-10.5.01.87.02,1.75.03,2.62.03,1.96.05,3.93.07,5.89.02,1.04.03,2.08.04,3.13.12,9.65.24,19.3.36,28.96.35.27.69.53,1.04.79.04.03.08.06.12.08,4.68,3.53,9.16,6.49,13.44,8.83,2.64,1.44,5.21,2.65,7.7,3.59,6.28,2.39,11.81,2.89,16.65,1.26.91-.3,1.79-.68,2.65-1.14,1.84-.97,3.56-2.29,5.17-3.98,3.41-3.56,5.86-8.34,7.43-14.24.36-1.36.67-2.78.95-4.26.03-.19.06-.37.09-.55.33-1.9.59-3.9.77-5.99.21-2.29.33-4.7.36-7.21,0-.96,0-1.93-.03-2.89Z"/>
    <g>
      <g>
        <path class="st5" d="M146.68,375.7v-36.6h11.5c4.3,0,7.48.95,9.55,2.84,2.1,1.95,3.15,4.46,3.15,7.54,0,4.58-2.28,7.06-6.83,7.44,2.59.38,4.49,1.23,5.7,2.56,1.21,1.33,1.81,3.24,1.81,5.73,0,3.14-1.02,5.67-3.06,7.59-2.02,1.93-4.68,2.89-7.99,2.89h-13.84ZM156.56,353.33h.66c1.19,0,2.12-.28,2.81-.83s1.03-1.33,1.03-2.32c0-2.12-1.16-3.18-3.48-3.18-.11,0-.25,0-.42.01-.17,0-.37.02-.6.04v6.28ZM156.56,367.76c.19.02.36.03.5.04s.26.01.36.01c1.23,0,2.22-.32,2.95-.97.73-.65,1.1-1.52,1.1-2.61s-.37-1.94-1.1-2.56c-.74-.62-1.74-.92-3.02-.92h-.78v7.02Z"/>
        <path class="st5" d="M160.52,377.7h-15.84v-40.6h13.5c4.79,0,8.46,1.13,10.9,3.37,2.53,2.34,3.8,5.37,3.8,9.01,0,3.3-1.06,5.82-3.06,7.43.53.37,1,.78,1.42,1.23,1.55,1.7,2.33,4.08,2.33,7.08,0,3.71-1.24,6.75-3.69,9.04-2.38,2.27-5.54,3.43-9.35,3.43ZM148.68,373.7h11.84c2.8,0,4.96-.76,6.61-2.34,1.64-1.54,2.44-3.55,2.44-6.14,0-1.97-.43-3.45-1.29-4.39-.88-.97-2.4-1.62-4.51-1.93l-15.08-2.21v17ZM148.68,341.1v15.1l15.21-1.27c3.5-.29,4.99-1.92,4.99-5.45,0-2.52-.82-4.51-2.51-6.07-1.67-1.53-4.43-2.31-8.19-2.31h-9.5ZM157.41,369.81c-.12,0-.28,0-.46-.01-.16,0-.34-.02-.55-.04l-1.84-.15v-10.86h2.78c1.75,0,3.2.47,4.31,1.39,1.19,1,1.82,2.42,1.82,4.09s-.62,3.08-1.78,4.11c-1.11.98-2.55,1.47-4.28,1.47ZM158.56,362.92v2.71c.19-.07.35-.17.48-.29.21-.18.42-.46.42-1.11s-.19-.86-.39-1.03c-.14-.12-.31-.21-.52-.28ZM157.22,355.33h-2.66v-10.15l2.46-.16c.26-.01.43-.02.56-.02,3.43,0,5.48,1.93,5.48,5.18,0,1.61-.62,2.95-1.78,3.88-1.05.84-2.41,1.27-4.06,1.27ZM158.56,349.11v1.97c.08-.04.15-.09.22-.14.11-.09.28-.23.28-.77s0-.89-.5-1.06Z"/>
      </g>
      <g>
        <path class="st5" d="M181.41,375.7v-36.6h18.37v8.6h-8.49v5.33h7.61v8.27h-7.61v5.59h8.49v8.79h-18.37Z"/>
        <path class="st5" d="M201.78,377.7h-22.37v-40.6h22.37v12.6h-8.49v1.33h7.61v12.27h-7.61v1.59h8.49v12.79ZM183.41,373.7h14.37v-4.79h-8.49v-9.59h7.61v-4.27h-7.61v-9.33h8.49v-4.6h-14.37v32.6Z"/>
      </g>
      <g>
        <path class="st5" d="M209.63,375.7v-36.6h9.43l4.95,12.85c.27.76.57,1.63.91,2.61.34.98.71,2.11,1.13,3.39l1.02,3.22c-.36-3.18-.64-5.89-.83-8.15s-.29-4.16-.29-5.69v-8.22h9.43v36.6h-9.43l-4.98-13.46c-.52-1.44-.99-2.79-1.41-4.04-.42-1.26-.79-2.45-1.1-3.59.21,2.58.36,4.82.45,6.73s.14,3.59.14,5.03v9.34h-9.43Z"/>
        <path class="st5" d="M237.4,377.7h-12.83l-3.5-9.48v9.48h-13.43v-40.6h12.81l3.52,9.14v-9.14h13.43v40.6ZM227.35,373.7h6.04v-32.6h-5.43v6.22c0,1.46.09,3.32.28,5.52.19,2.26.47,4.98.82,8.09l-3.89.83-1.02-3.22c-.4-1.25-.77-2.37-1.11-3.34-.34-.97-.64-1.84-.91-2.59l-4.44-11.52h-6.06v32.6h5.43v-7.34c0-1.39-.05-3.05-.14-4.93-.09-1.87-.24-4.11-.45-6.67l3.92-.69c.31,1.11.67,2.28,1.07,3.49.41,1.24.88,2.57,1.39,3.99l4.49,12.14Z"/>
      </g>
      <g>
        <path class="st5" d="M259.3,354.53h13.79v1.52c0,7.05-1.05,12.12-3.15,15.22-2.29,3.38-5.68,5.07-10.17,5.07s-7.87-1.66-10.38-4.98c-2.5-3.35-3.75-7.95-3.75-13.79s1.26-10.6,3.77-14.01c2.51-3.41,5.95-5.12,10.31-5.12,5.78,0,9.98,3.02,12.59,9.05l-9.58,3.51c-.14-1.15-.47-2.07-.98-2.74-.51-.67-1.16-1.01-1.93-1.01-2.72,0-4.08,3.74-4.08,11.21,0,3.18.3,5.48.9,6.92.6,1.44,1.56,2.16,2.87,2.16.52,0,1-.13,1.42-.38.43-.25.79-.61,1.08-1.07.29-.46.52-1.01.69-1.67s.25-1.39.25-2.19h-3.65v-7.7Z"/>
        <path class="st5" d="M259.77,378.34c-5.05,0-9.08-1.94-11.98-5.77-2.76-3.7-4.15-8.74-4.15-15s1.4-11.45,4.16-15.19c2.9-3.94,6.91-5.94,11.92-5.94,6.63,0,11.48,3.45,14.42,10.26l.84,1.94-10.62,3.89h10.72v3.52c0,7.52-1.14,12.87-3.5,16.34-2.68,3.95-6.65,5.95-11.82,5.95ZM259.73,340.44c-3.72,0-6.57,1.41-8.7,4.31-2.24,3.05-3.38,7.36-3.38,12.82s1.13,9.62,3.35,12.6c2.12,2.8,5,4.17,8.78,4.17s6.6-1.37,8.51-4.19c1.82-2.68,2.76-7.26,2.81-13.61h-9.79v3.7h3.65v2c0,.97-.1,1.87-.31,2.68-.22.86-.54,1.62-.94,2.26-.46.72-1.04,1.29-1.74,1.71-.75.44-1.57.66-2.45.66-1.23,0-3.48-.44-4.71-3.39-.71-1.7-1.06-4.22-1.06-7.69,0-3.27,0-13.21,6.08-13.21,1.41,0,2.62.62,3.52,1.79.3.39.55.83.76,1.32l5.43-1.99c-2.27-3.99-5.49-5.94-9.81-5.94ZM258.35,364.24c.05.15.09.27.14.38.39.93.75.93,1.02.93.21,0,.33-.05.41-.1.15-.09.29-.23.41-.42.13-.21.25-.47.35-.79h-2.33ZM258.18,352.53h2.73l-.16-1.29c-.1-.78-.3-1.39-.58-1.76-.17-.22-.25-.22-.34-.22-.46,0-1.18.79-1.64,3.28Z"/>
      </g>
      <g>
        <path class="st5" d="M308.52,375.7h-10.22l-.73-4.64h-6.66l-.81,4.64h-10.21l8.79-36.6h12.09l7.75,36.6ZM296.41,363.21l-.64-4.27s-.05-.23-.09-.64c-.03-.35-.2-1.72-.5-4.12-.03-.27-.07-.63-.12-1.1s-.11-1.05-.19-1.77l-.31-3.46c-.03.33-.08.7-.13,1.12-.06.41-.12.86-.18,1.35-.11.98-.19,1.66-.24,2.04s-.08.61-.09.69l-.69,4.43-1,5.74h4.17Z"/>
        <path class="st5" d="M310.99,377.7h-14.39l-.73-4.64h-3.27l-.81,4.64h-14.43l9.75-40.6h15.29l8.6,40.6ZM300.01,373.7h6.04l-6.9-32.6h-8.89l-7.83,32.6h6l.81-4.64h10.05l.73,4.64ZM298.73,365.21h-8.87l1.4-8.08.68-4.4c.03-.15.05-.34.09-.63.05-.37.12-1.04.23-2.01.07-.52.13-.98.18-1.39.05-.38.09-.73.12-1.04l3.98.02.31,3.46c.08.67.14,1.27.19,1.74.05.46.08.81.12,1.07.39,3.09.47,3.87.5,4.14l1.07,7.12Z"/>
      </g>
      <g>
        <path class="st5" d="M334.32,375.7h-17.3v-36.6h9.88v27.8h7.42v8.79Z"/>
        <path class="st5" d="M336.32,377.7h-21.3v-40.6h13.88v27.8h7.42v12.79ZM319.02,373.7h13.3v-4.79h-7.42v-27.8h-5.88v32.6Z"/>
      </g>
      <g>
        <path class="st5" d="M357.87,339.1h9.88v25.88c0,2.17-.34,3.92-1.02,5.26-.66,1.41-1.77,2.68-3.32,3.82-2.09,1.52-4.62,2.28-7.61,2.28-3.38,0-6.22-.84-8.51-2.51-2.91-2.13-4.36-5.55-4.36-10.24v-24.48h9.88v23.61c0,1.6.19,2.73.58,3.39.39.66,1.04,1,1.96,1s1.6-.31,1.97-.92c.36-.65.54-1.79.54-3.44v-23.63Z"/>
        <path class="st5" d="M355.81,378.34c-3.8,0-7.06-.97-9.69-2.9-3.44-2.53-5.18-6.51-5.18-11.86v-26.48h13.88v25.61c0,1.72.25,2.28.3,2.37.04,0,.4.02.51,0,.07-.21.24-.85.24-2.34v-25.63h13.88v27.88c0,2.47-.42,4.55-1.24,6.17-.78,1.65-2.1,3.19-3.92,4.52-2.43,1.77-5.39,2.66-8.79,2.66ZM344.94,341.1v22.48c0,4.05,1.16,6.88,3.54,8.63,1.96,1.43,4.35,2.12,7.33,2.12,2.58,0,4.68-.62,6.43-1.89,1.26-.93,2.17-1.96,2.69-3.05.56-1.11.83-2.57.83-4.41v-23.88h-5.88v21.63c0,2.04-.25,3.44-.8,4.42-.45.75-1.48,1.95-3.71,1.95-1.63,0-2.94-.71-3.68-1.99-.58-.99-.85-2.39-.85-4.4v-21.61h-5.88Z"/>
      </g>
      <g>
        <path class="st5" d="M404.53,375.7h-10.69l-4.88-13.04c-.05-.22-.13-.51-.25-.88s-.26-.8-.44-1.3l.07,2.42v12.8h-9.84v-36.6h10.12c4.46,0,7.79.88,10,2.63,2.81,2.24,4.22,5.44,4.22,9.58,0,4.42-1.89,7.48-5.66,9.17l7.35,15.22ZM388.39,356.05h.66c1.14,0,2.09-.43,2.84-1.3.76-.87,1.14-1.98,1.14-3.32,0-2.73-1.43-4.1-4.29-4.1h-.36v8.72Z"/>
        <path class="st5" d="M407.72,377.7h-15.26l-2.11-5.64v5.64h-13.84v-40.6h12.12c4.9,0,8.68,1.03,11.24,3.06,3.3,2.64,4.98,6.38,4.98,11.14,0,4.44-1.73,7.86-5.04,10.02l7.91,16.37ZM395.23,373.7h6.12l-6.86-14.2,1.88-.84c3.06-1.37,4.48-3.7,4.48-7.35s-1.13-6.15-3.47-8.01c-1.84-1.46-4.78-2.19-8.75-2.19h-8.12v32.6h5.84v-10.8l-.45-15.5.5,1.45v-3.52h2.36c3.94,0,6.29,2.28,6.29,6.1,0,1.84-.55,3.4-1.63,4.63-1.02,1.17-2.35,1.85-3.86,1.97l.62,1.8c.18.52.33.96.45,1.33.12.36.21.67.27.92l4.35,11.62ZM390.39,349.66v3.78h0c.44-.5.65-1.15.65-2s-.12-1.44-.65-1.77Z"/>
      </g>
      <g>
        <path class="st5" d="M428.08,339.1h9.88v25.88c0,2.17-.34,3.92-1.02,5.26-.66,1.41-1.77,2.68-3.32,3.82-2.09,1.52-4.62,2.28-7.61,2.28-3.38,0-6.22-.84-8.51-2.51-2.91-2.13-4.36-5.55-4.36-10.24v-24.48h9.88v23.61c0,1.6.19,2.73.58,3.39.39.66,1.04,1,1.96,1s1.6-.31,1.97-.92c.36-.65.54-1.79.54-3.44v-23.63Z"/>
        <path class="st5" d="M426.02,378.34c-3.8,0-7.06-.97-9.69-2.9-3.44-2.53-5.18-6.51-5.18-11.86v-26.48h13.88v25.61c0,1.72.25,2.27.3,2.37.04,0,.4.02.51,0,.07-.21.24-.85.24-2.34v-25.63h13.88v27.88c0,2.47-.42,4.55-1.24,6.17-.78,1.65-2.1,3.19-3.92,4.52-2.43,1.77-5.39,2.66-8.79,2.66ZM415.15,341.1v22.48c0,4.05,1.16,6.88,3.54,8.63,1.93,1.41,4.39,2.12,7.33,2.12,2.58,0,4.68-.62,6.43-1.89,1.26-.93,2.17-1.96,2.69-3.05.56-1.11.83-2.57.83-4.41v-23.88h-5.88v21.63c0,2.04-.25,3.44-.8,4.42-.45.75-1.49,1.95-3.71,1.95-1.63,0-2.94-.71-3.68-1.99-.58-.99-.85-2.39-.85-4.4v-21.61h-5.88Z"/>
      </g>
    </g>
    <g>
      <path class="st5" d="M171.34,366.18c-.27-1.36-.8-2.47-1.59-3.34-1.21-1.32-3.11-2.18-5.7-2.56,2.49-.21,4.3-1.04,5.42-2.51.94-1.21,1.41-2.86,1.41-4.93,0-.85-.08-1.66-.25-2.42-.41-2-1.38-3.71-2.91-5.12-2.07-1.89-5.25-2.84-9.55-2.84h-11.49v36.59h13.84c3.3,0,5.96-.96,7.99-2.89,2.03-1.91,3.05-4.44,3.05-7.58,0-.87-.07-1.67-.22-2.4ZM156.56,350.4c.24-.02.44-.03.6-.04.17,0,.31,0,.42,0,1.07,0,1.9.23,2.47.68.67.53,1.01,1.36,1.01,2.5,0,.99-.34,1.77-1.03,2.32-.68.55-1.62.83-2.81.83h-.66v-6.28ZM156.56,364.1h.78c1.28,0,2.29.31,3.02.92.07.06.14.12.2.18.61.61.91,1.39.91,2.38,0,1.09-.37,1.96-1.11,2.61-.73.65-1.71.97-2.95.97-.09,0-.21,0-.35-.01-.14,0-.31-.02-.5-.04v-7.01Z"/>
      <path class="st5" d="M160.52,381.05h-15.84v-40.59h13.49c4.79,0,8.46,1.13,10.9,3.36,1.84,1.7,3.03,3.78,3.52,6.2.19.85.29,1.81.29,2.82,0,2.52-.62,4.59-1.83,6.16-.36.47-.77.9-1.24,1.27.53.36,1,.77,1.41,1.22,1.04,1.15,1.74,2.59,2.08,4.3.17.85.26,1.76.26,2.8,0,3.7-1.24,6.74-3.68,9.04-2.39,2.28-5.55,3.43-9.36,3.43ZM148.68,377.05h11.84c2.79,0,4.96-.77,6.61-2.34,1.64-1.54,2.43-3.54,2.43-6.13,0-.75-.06-1.42-.18-2h0c-.2-1.02-.56-1.8-1.11-2.4-.89-.97-2.41-1.62-4.51-1.93l-15.08-2.22v17.01ZM148.68,344.46v15.11l15.2-1.28c1.93-.16,3.23-.73,4-1.73.67-.86,1-2.11,1-3.72,0-.72-.07-1.38-.2-1.98-.33-1.63-1.09-2.96-2.31-4.09-1.68-1.53-4.44-2.31-8.19-2.31h-9.49ZM157.41,373.16c-.13,0-.3,0-.5-.02-.21-.01-.38-.03-.56-.05l-1.79-.19v-10.81h2.78c1.75,0,3.2.47,4.3,1.38.16.14.25.22.33.3.99.99,1.5,2.27,1.5,3.79,0,1.66-.62,3.08-1.79,4.11-1.09.97-2.53,1.47-4.27,1.47ZM158.56,366.27v2.71c.27-.1.4-.23.47-.29.22-.2.44-.47.44-1.12,0-.56-.16-.8-.32-.97l-.1-.09c-.12-.1-.29-.19-.49-.26ZM157.22,358.68h-2.66v-10.12l3.02-.21c1.53,0,2.77.37,3.71,1.11.81.64,1.77,1.87,1.77,4.07,0,1.61-.62,2.95-1.78,3.88-1.04.84-2.41,1.27-4.06,1.27ZM158.56,352.48v1.96c.08-.04.15-.08.21-.14.11-.08.29-.23.29-.76,0-.33-.04-.77-.25-.93-.03-.02-.11-.07-.25-.12Z"/>
    </g>
    <g>
      <path class="st5" d="M181.41,342.46v36.59h18.37v-8.79h-8.48v-5.59h7.61v-8.27h-7.61v-5.34h8.48v-8.6h-18.37Z"/>
      <path class="st5" d="M201.78,381.05h-22.37v-40.59h22.37v12.6h-8.48v1.34h7.61v12.27h-7.61v1.59h8.48v12.79ZM183.41,377.05h14.37v-4.79h-8.48v-9.59h7.61v-4.27h-7.61v-9.34h8.48v-4.6h-14.37v32.59Z"/>
    </g>
    <g>
      <path class="st5" d="M225.96,342.46v8.22c0,1.54.1,3.43.29,5.69.03.34.06.68.09,1.04.18,2.04.42,4.41.74,7.12l-1.02-3.23c-.41-1.28-.79-2.41-1.13-3.39s-.64-1.85-.91-2.6l-4.95-12.85h-9.44v36.59h9.44v-9.33c0-1.44-.05-3.12-.15-5.03-.09-1.91-.24-4.15-.45-6.73.13.47.27.94.42,1.43.21.7.44,1.42.69,2.16.41,1.26.88,2.6,1.41,4.04l4.97,13.46h9.44v-36.59h-9.44Z"/>
      <path class="st5" d="M237.4,381.05h-12.83l-3.5-9.47v9.47h-13.44v-40.59h12.81l3.52,9.13v-9.13h13.44v40.59ZM227.35,377.05h6.05v-32.59h-5.44v6.22c0,1.46.09,3.26.28,5.52l.09,1.04c.19,2.21.44,4.58.73,7.05l-3.89.84-1.02-3.23c-.4-1.26-.78-2.37-1.11-3.34l-.13-.37c-.28-.82-.54-1.56-.77-2.2l-4.44-11.53h-6.07v32.59h5.44v-7.33c0-1.39-.05-3.05-.15-4.93-.09-1.87-.24-4.11-.45-6.67l3.92-.7c.12.45.26.91.41,1.38.21.69.43,1.39.67,2.1.4,1.22.85,2.51,1.39,3.99l4.49,12.15Z"/>
    </g>
    <g>
      <path class="st5" d="M259.3,357.89v7.7h3.65c0,.81-.08,1.54-.25,2.19-.16.66-.39,1.22-.68,1.67-.3.46-.66.82-1.08,1.07-.11.06-.22.12-.33.17-.34.14-.7.21-1.09.21-1.32,0-2.27-.72-2.87-2.16-.6-1.43-.9-3.74-.9-6.92,0-.91.02-1.77.06-2.57,0-.02,0-.04,0-.06.19-3.66.81-6.15,1.85-7.47.58-.74,1.3-1.11,2.16-1.11.78,0,1.42.34,1.93,1.01.31.4.56.89.73,1.47.12.38.2.81.26,1.27l3.46-1.27,6.11-2.24c-.65-1.51-1.4-2.83-2.25-3.97-2.55-3.39-5.99-5.09-10.33-5.09-1.03,0-2.01.1-2.94.29-3,.61-5.45,2.23-7.37,4.83-2.16,2.94-3.39,6.81-3.69,11.6-.05.78-.08,1.58-.08,2.41,0,5.85,1.25,10.45,3.74,13.8,2.52,3.31,5.98,4.97,10.39,4.97,1.01,0,1.96-.09,2.86-.26,3.09-.59,5.53-2.19,7.3-4.81,2.11-3.09,3.16-8.17,3.16-15.22v-1.51h-13.8Z"/>
      <path class="st5" d="M259.78,381.69c-5.04,0-9.07-1.94-11.98-5.76-2.76-3.71-4.15-8.75-4.15-15.01,0-.83.03-1.66.08-2.54.32-5.16,1.7-9.42,4.08-12.66,2.23-3.02,5.11-4.9,8.58-5.61,1.07-.22,2.19-.33,3.34-.33,4.98,0,8.99,1.98,11.93,5.89.95,1.27,1.78,2.74,2.49,4.38l.83,1.94-10.61,3.89h10.72v3.51c0,7.54-1.15,12.89-3.51,16.35-2.06,3.05-4.95,4.96-8.58,5.65-1.04.2-2.12.29-3.23.29ZM259.73,343.79c-.88,0-1.73.08-2.54.25-2.51.51-4.52,1.84-6.16,4.06-1.92,2.61-3.03,6.15-3.3,10.54-.05.79-.08,1.54-.08,2.29,0,5.38,1.12,9.62,3.34,12.61,2.13,2.79,5.01,4.16,8.79,4.16.86,0,1.7-.08,2.49-.22,2.58-.49,4.54-1.79,6.01-3.96,1.82-2.67,2.77-7.25,2.81-13.61h-9.8v3.7h3.65v2c0,1-.1,1.89-.32,2.7-.2.84-.52,1.61-.93,2.25-.47.73-1.06,1.3-1.74,1.7-.22.12-.37.2-.52.27-.65.27-1.27.39-1.92.39-1.23,0-3.49-.44-4.72-3.39-.71-1.69-1.05-4.2-1.05-7.69,0-.87.02-1.7.05-2.46l-.07-.42.1-.22c.24-3.91.98-6.61,2.26-8.23.96-1.22,2.25-1.87,3.73-1.87s2.63.62,3.52,1.8c.3.39.56.83.77,1.32l5.42-1.99c-.34-.6-.7-1.15-1.08-1.66-2.17-2.88-5.02-4.29-8.73-4.29ZM258.36,367.59c.05.14.09.27.14.38.39.93.76.93,1.03.93.13,0,.23-.02.33-.06,0,0,.06-.04.13-.07.09-.05.23-.2.36-.41.13-.2.24-.46.34-.77h-2.32ZM258.18,355.89h2.75l-.17-1.27c-.05-.4-.11-.7-.19-.93-.11-.36-.24-.63-.4-.85-.18-.24-.25-.24-.35-.24-.14,0-.32,0-.59.34-.29.37-.73,1.19-1.06,2.94Z"/>
    </g>
    <g>
      <path class="st5" d="M307.51,374.26l-5.02-23.66-1.72-8.14h-12.09l-4.17,17.34-3.47,14.46-1.15,4.79h10.21l.81-4.64h6.66l.73,4.64h10.22l-1.01-4.79ZM293.07,361.77l.16-.94.69-4.43c.02-.08.05-.31.09-.69.05-.38.13-1.06.24-2.04.06-.49.12-.94.18-1.35.05-.41.1-.78.13-1.12l.31,3.46c.08.72.14,1.3.19,1.77.04.47.08.83.12,1.1.3,2.41.46,3.78.49,4.13,0,.04,0,.08,0,.11.05.34.07.51.09.53l.64,4.26h-4.17l.83-4.79Z"/>
      <path class="st5" d="M310.99,381.05h-14.4l-.73-4.64h-3.27l-.81,4.64h-14.43l9.75-40.59h15.29l8.59,40.59ZM300.01,377.05h6.04l-6.91-32.59h-8.89l-7.83,32.59h5.99l.81-4.64h10.05l.73,4.64ZM298.73,368.56h-8.87l1.39-8.06.72-4.59h0s.01-.16.04-.4c.05-.42.13-1.09.24-2.05.06-.52.13-.99.19-1.41l.03-.26c.03-.27.06-.51.08-.75h3.98s.5,5.19.5,5.19c.04.46.07.78.11,1.02.27,2.13.44,3.6.49,4.14h0s1.08,7.18,1.08,7.18Z"/>
    </g>
    <g>
      <path class="st5" d="M326.9,370.26v-27.8h-9.88v36.59h17.3v-8.79h-7.42Z"/>
      <path class="st5" d="M336.32,381.05h-21.3v-40.59h13.88v27.8h7.42v12.79ZM319.02,377.05h13.3v-4.79h-7.42v-27.8h-5.88v32.59Z"/>
    </g>
    <g>
      <path class="st5" d="M357.87,342.46v23.63c0,1.64-.18,2.79-.54,3.44-.37.61-1.02.92-1.97.92s-1.57-.33-1.96-1c-.38-.66-.58-1.79-.58-3.38v-23.61h-9.88v24.48c0,4.7,1.45,8.11,4.36,10.24,2.29,1.68,5.13,2.51,8.51,2.51,2.99,0,5.52-.75,7.61-2.27,1.55-1.14,2.65-2.41,3.31-3.82.68-1.34,1.02-3.09,1.02-5.26v-25.88h-9.88Z"/>
      <path class="st5" d="M355.81,381.69c-3.81,0-7.07-.97-9.69-2.9-3.43-2.51-5.18-6.5-5.18-11.85v-26.48h13.88v25.61c0,1.69.25,2.26.3,2.37.01.01.1.01.24.01s.23-.01.28-.02c.06-.2.23-.84.23-2.34v-25.63h13.88v27.88c0,2.51-.4,4.53-1.24,6.17-.77,1.65-2.09,3.19-3.91,4.52-2.43,1.77-5.39,2.66-8.8,2.66ZM344.94,344.46v22.48c0,4.06,1.16,6.88,3.54,8.63,1.95,1.43,4.34,2.12,7.33,2.12,2.58,0,4.69-.62,6.43-1.89,1.26-.93,2.16-1.96,2.67-3.05.56-1.11.83-2.57.83-4.41v-23.88h-5.88v21.63c0,2.04-.25,3.44-.79,4.41-.46.77-1.51,1.95-3.72,1.95-1.63,0-2.94-.71-3.69-2-.57-.99-.85-2.42-.85-4.38v-21.61h-5.88Z"/>
    </g>
    <g>
      <path class="st5" d="M402.22,374.26l-5.04-10.42c.67-.3,1.27-.63,1.82-1.02,2.57-1.79,3.85-4.51,3.85-8.16,0-.88-.06-1.71-.19-2.5-.47-2.95-1.82-5.31-4.03-7.07-2.21-1.75-5.55-2.63-10-2.63h-10.12v36.59h9.83v-12.79l-.07-2.42c.02.07.05.14.07.21.14.42.27.78.37,1.09.12.36.2.66.25.88l4.88,13.03h10.69l-2.31-4.79ZM388.39,350.68h.35c1.86,0,3.11.58,3.76,1.73.35.62.53,1.41.53,2.37,0,1.35-.37,2.45-1.13,3.32-.76.87-1.71,1.3-2.85,1.3h-.66v-8.72Z"/>
      <path class="st5" d="M407.72,381.05h-15.26l-2.11-5.64v5.64h-13.83v-40.59h12.12c4.89,0,8.68,1.03,11.24,3.06,2.61,2.08,4.22,4.88,4.76,8.32.14.87.21,1.8.21,2.81,0,4.33-1.58,7.62-4.71,9.8-.11.08-.22.15-.33.23l7.9,16.36ZM395.23,377.05h6.12l-6.86-14.19,1.88-.84c.58-.26,1.06-.53,1.48-.83,2.03-1.41,3.01-3.54,3.01-6.53,0-.8-.05-1.51-.16-2.17-.39-2.47-1.47-4.37-3.3-5.83-1.84-1.46-4.78-2.19-8.75-2.19h-8.12v32.59h5.83v-10.79l-.52-17.97.57,1.96v-1.57h2.35c3.26,0,4.79,1.49,5.5,2.75.52.93.79,2.06.79,3.35,0,1.84-.55,3.4-1.62,4.64-1,1.15-2.3,1.82-3.77,1.96l.56,1.91s.04.1.06.16l.17.5c.07.21.14.41.2.58.12.35.2.66.26.91l4.35,11.61ZM390.39,353.01v3.78s0,0,0,0c.27-.31.64-.86.64-2,0-.59-.09-1.07-.27-1.39-.05-.08-.13-.24-.37-.38Z"/>
    </g>
    <g>
      <path class="st5" d="M428.08,342.46v23.63c0,1.64-.18,2.79-.55,3.44-.36.61-1.01.92-1.96.92s-1.57-.33-1.96-1c-.39-.66-.58-1.79-.58-3.38v-23.61h-9.88v24.48c0,4.7,1.45,8.11,4.36,10.24,2.29,1.68,5.13,2.51,8.51,2.51,2.98,0,5.52-.75,7.61-2.27,1.54-1.14,2.65-2.41,3.31-3.82.68-1.34,1.02-3.09,1.02-5.26v-25.88h-9.88Z"/>
      <path class="st5" d="M426.02,381.69c-3.81,0-7.07-.97-9.69-2.9-3.43-2.51-5.18-6.5-5.18-11.85v-26.48h13.88v25.61c0,1.79.27,2.3.3,2.36.05.01.4.02.51,0,.07-.21.24-.85.24-2.34v-25.63h13.88v27.88c0,2.51-.4,4.53-1.24,6.17-.76,1.64-2.09,3.18-3.9,4.52-2.43,1.77-5.39,2.66-8.8,2.66ZM415.15,344.46v22.48c0,4.06,1.16,6.88,3.54,8.63,1.95,1.43,4.34,2.12,7.33,2.12,2.58,0,4.69-.62,6.43-1.89,1.26-.94,2.17-1.96,2.67-3.05.56-1.11.83-2.57.83-4.41v-23.88h-5.88v21.63c0,2.05-.26,3.46-.81,4.43-.43.74-1.47,1.93-3.7,1.93-1.63,0-2.94-.71-3.69-2-.58-.97-.85-2.37-.85-4.38v-21.61h-5.88Z"/>
    </g>
    <path class="st2" d="M169.75,358.05c-.09-.1-.18-.19-.28-.28-1.22-1.17-3.02-1.93-5.42-2.28,3.69-.31,5.89-2,6.58-5.07.17-.72.25-1.51.25-2.38,0-3.08-1.05-5.59-3.16-7.53-2.07-1.9-5.25-2.85-9.55-2.85h-11.49v36.6h13.84c3.3,0,5.96-.97,7.99-2.89,1.49-1.41,2.43-3.13,2.83-5.19.15-.75.22-1.55.22-2.4,0-2.49-.6-4.41-1.81-5.73ZM160.05,351.03s0,.01-.02.02c-.68.56-1.62.83-2.81.83h-.66v-6.28c.24-.01.44-.02.6-.03.17,0,.31,0,.42,0,2.32,0,3.48,1.05,3.48,3.17,0,.99-.33,1.75-1.01,2.3ZM160.56,365.2c-.06.06-.13.13-.2.19-.73.65-1.71.98-2.95.98-.09,0-.21-.01-.35-.02-.14,0-.31-.02-.5-.03v-7.02h.78c1.28,0,2.29.31,3.02.93.74.61,1.11,1.47,1.11,2.56,0,.99-.3,1.79-.91,2.41Z"/>
    <path class="st2" d="M181.41,337.66v36.6h18.37v-8.79h-8.48v-5.6h7.61v-8.27h-7.61v-5.33h8.48v-8.61h-18.37Z"/>
    <path class="st2" d="M225.96,337.66v8.23c0,1.53.1,3.43.29,5.69.19,2.26.46,4.97.83,8.15l-.74-2.32-.28-.9c-.41-1.28-.79-2.41-1.13-3.39s-.64-1.85-.91-2.61l-4.95-12.85h-9.44v36.6h9.44v-9.34c0-1.44-.05-3.11-.15-5.02-.01-.17-.02-.34-.03-.51-.09-1.8-.23-3.88-.42-6.23.32,1.14.69,2.34,1.11,3.59.41,1.26.88,2.61,1.41,4.05l4.97,13.46h9.44v-36.6h-9.44Z"/>
    <path class="st2" d="M259.3,353.09v7.71h3.65c0,.8-.08,1.53-.25,2.19-.16.65-.39,1.21-.68,1.67-.25.39-.54.69-.88.93-.07.05-.13.1-.2.14-.37.22-.77.34-1.21.37-.07,0-.14,0-.21,0-1.32,0-2.27-.72-2.87-2.16-.45-1.08-.73-2.65-.84-4.7,0-.02,0-.04,0-.06-.04-.67-.06-1.39-.06-2.16,0-4.52.49-7.68,1.49-9.46.64-1.17,1.51-1.75,2.58-1.75.78,0,1.42.33,1.93,1,.52.67.85,1.59.99,2.74l7.32-2.68,2.25-.83c-2.6-6.03-6.8-9.05-12.58-9.05-1.1,0-2.14.11-3.12.33-2.91.64-5.31,2.24-7.19,4.79-2.51,3.41-3.77,8.08-3.77,14.01,0,.82.02,1.61.08,2.38.29,4.72,1.52,8.53,3.66,11.41,2.52,3.32,5.98,4.98,10.39,4.98.6,0,1.17-.03,1.73-.09,3.63-.39,6.44-2.05,8.43-4.98,1.77-2.6,2.79-6.57,3.07-11.94.06-1.04.09-2.13.09-3.28v-1.52h-13.8Z"/>
    <path class="st2" d="M302.52,345.94l-1.75-8.28h-12.09l-4.12,17.15-4.67,19.45h10.21l.81-4.65h6.66l.73,4.65h10.22l-6-28.32ZM292.24,361.77l.99-5.74.69-4.43c.02-.08.05-.31.09-.69.05-.38.13-1.06.24-2.04.06-.49.12-.94.18-1.35.05-.41.1-.78.13-1.11l.31,3.46c.08.71.14,1.3.19,1.77.04.46.08.83.12,1.1.3,2.4.46,3.77.49,4.12.05.41.08.63.1.64l.64,4.27h-4.17Z"/>
    <path class="st2" d="M326.9,365.47v-27.81h-9.88v36.6h17.3v-8.79h-7.42Z"/>
    <path class="st2" d="M357.87,337.66v23.63c0,1.65-.18,2.79-.54,3.44-.37.62-1.02.92-1.97.92s-1.57-.33-1.96-.99c-.38-.66-.58-1.79-.58-3.39v-23.61h-9.88v24.49c0,4.69,1.45,8.1,4.36,10.24,2.29,1.67,5.13,2.51,8.51,2.51,2.99,0,5.52-.76,7.61-2.28,1.55-1.13,2.65-2.41,3.31-3.81.68-1.35,1.02-3.1,1.02-5.26v-25.89h-9.88Z"/>
    <path class="st2" d="M399,362.82l-1.82-3.78c3.09-1.38,4.91-3.67,5.48-6.88.13-.72.19-1.48.19-2.29,0-4.14-1.41-7.33-4.22-9.58-2.21-1.75-5.55-2.63-10-2.63h-10.12v36.6h9.83v-12.8l-.07-2.42c.04.12.08.24.12.36.12.36.23.67.32.95.12.36.2.65.25.87l4.88,13.04h10.69l-5.53-11.44ZM392.5,352.41c-.16.33-.36.63-.6.9-.76.87-1.71,1.3-2.85,1.3h-.66v-8.72h.35c2.86,0,4.29,1.36,4.29,4.1,0,.92-.17,1.73-.53,2.42Z"/>
    <path class="st2" d="M428.08,337.66v23.63c0,1.65-.18,2.79-.55,3.44-.36.62-1.01.92-1.96.92s-1.57-.33-1.96-.99c-.39-.66-.58-1.79-.58-3.39v-23.61h-9.88v24.49c0,4.69,1.45,8.1,4.36,10.24,2.29,1.67,5.13,2.51,8.51,2.51,2.98,0,5.52-.76,7.61-2.28,1.54-1.13,2.65-2.41,3.31-3.81.68-1.35,1.02-3.1,1.02-5.26v-25.89h-9.88Z"/>
    <g>
      <polygon class="st2" points="190.11 525.49 193.11 534.74 202.84 534.74 194.97 540.45 197.97 549.69 190.11 543.98 182.25 549.69 185.25 540.45 177.38 534.74 187.11 534.74 190.11 525.49"/>
      <polygon class="st2" points="396.95 525.49 399.96 534.74 409.68 534.74 401.81 540.45 404.82 549.69 396.95 543.98 389.09 549.69 392.09 540.45 384.23 534.74 393.95 534.74 396.95 525.49"/>
    </g>
    <rect class="st0" x="281.22" y="617.54" width="24.62" height="22.88"/>
    <g>
      <g>
        <path class="st2" d="M280.11,578.52c-.1-1.31-1.51-5.54-3.37-3.88-.46.41-.85,2.75-.97,3.47-1.3,7.29-.41,15.73,3.9,21.88-1.46-5.27-2.02-11.03-.68-16.39.44-1.75,1.28-3.19,1.14-5.08Z"/>
        <path class="st2" d="M293.54,608.64s-.06,0-.08,0h0c-1.45.05-3.02-.31-4.34-.88-.76-.33-1.39-.9-2.17-1.16.65,3.17,3.57,4.38,6.51,4.47h0s.06,0,.08,0c.03,0,.06,0,.08,0h0c2.94-.1,5.86-1.3,6.51-4.47-.78.26-1.42.83-2.17,1.16-1.32.57-2.89.93-4.34.89h0s-.06,0-.08,0Z"/>
        <path class="st2" d="M276.78,545.98c.1,2.41,1.99,4.12,4.25,4.7-.52-2.13-2.43-3.66-4.25-4.7Z"/>
        <g>
          <path class="st2" d="M344.05,519.58c-.3-.54-.78-1.97-1.07-2.27-.48-.51-4.31-1.33-5.2-1.48-7.06-1.17-13.86-.17-20.1,3.32-1.52.85-2.89,1.92-4.35,2.85-.06.22.06.25.15.38.38.55,2.12,1.86,2.25,2.3-.01,2.37.43,4.7.79,7.02,0,0,2.56,19.23-5.44,24.91l.28,9.38c1.33,1.65,3.07,3.13,4.81,4.37,2.64,1.88,5.57,3.46,8.89,3.65,5.2-5.24,11.34-9.78,18.35-12.31,3.03-1.1,4.87-1.08,7.47-3.3,6.11-5.22,9.18-13.65,10.8-21.32-7.23-4.41-13.5-10.03-17.63-17.51Z"/>
          <path class="st0" d="M335.77,525.11c-.2-.46-.53-1.67-.72-1.93-.32-.43-2.92-1.13-3.52-1.26-4.79-.99-9.4-.15-13.64,2.82-1.03.72-1.96,1.63-2.95,2.42-.04.19.04.21.1.32.26.47,1.43,1.58,1.52,1.96,0,2.01.29,3.99.54,5.96,0,0,1.74,16.33-3.69,21.15l.19,7.96c.91,1.4,2.08,2.66,3.26,3.71,1.79,1.59,3.78,2.94,6.03,3.1,3.53-4.45,7.69-8.3,12.45-10.45,2.06-.93,3.3-.91,5.07-2.8,4.14-4.43,6.23-11.59,7.33-18.1-4.9-3.75-9.16-8.52-11.96-14.86Z"/>
        </g>
        <g>
          <path class="st2" d="M243.01,519.58c.3-.54.78-1.97,1.07-2.27.48-.51,4.31-1.33,5.2-1.48,7.06-1.17,13.86-.17,20.1,3.32,1.52.85,2.89,1.92,4.35,2.85.06.22-.06.25-.15.38-.38.55-2.12,1.86-2.25,2.3.01,2.37-.43,4.7-.79,7.02,0,0-2.56,19.23,5.44,24.91l-.28,9.38c-1.33,1.65-3.07,3.13-4.81,4.37-2.64,1.88-5.57,3.46-8.89,3.65-5.2-5.24-11.34-9.78-18.35-12.31-3.03-1.1-4.87-1.08-7.47-3.3-6.11-5.22-9.18-13.65-10.8-21.32,7.23-4.41,13.5-10.03,17.63-17.51Z"/>
          <path class="st0" d="M251.29,525.11c.2-.46.53-1.67.72-1.93.32-.43,2.92-1.13,3.52-1.26,4.79-.99,9.4-.15,13.64,2.82,1.03.72,1.96,1.63,2.95,2.42.04.19-.04.21-.1.32-.26.47-1.43,1.58-1.52,1.96,0,2.01-.29,3.99-.54,5.96,0,0-1.74,16.33,3.69,21.15l-.19,7.96c-.91,1.4-2.08,2.66-3.26,3.71-1.79,1.59-3.78,2.94-6.03,3.1-3.53-4.45-7.69-8.3-12.45-10.45-2.06-.93-3.3-.91-5.07-2.8-4.14-4.43-6.23-11.59-7.33-18.1,4.9-3.75,9.16-8.52,11.96-14.86Z"/>
        </g>
        <path class="st2" d="M318.63,544.7c-.09-.68-.62-2.44-1.27-4.25-.13-.37-.27-.75-.41-1.12,0-.04-.03-.08-.05-.12-.01-.04-.03-.09-.04-.13h-.01c-.66-1.74-1.34-3.29-1.77-3.73-1.32-1.39-5.4-3.4-7.3-3.48-1.97-.09-7.29,3.13-9.42,4.07-.39.18-.85.38-1.27.48l8.41-6.79.7-.56c.4-.19,1.51.02,2,.11.28.05.58.14.9.24,1.26.39,2.71.99,3.63.1.12-.11.22-.25.29-.4.07-.13.12-.28.16-.44.19-.77.05-1.76-.23-2.53-.1-.29-.22-.55-.35-.76-.63-1.02-2.57-2.52-4.43-3.72-.31-.2-.63-.4-.93-.59-.86-.52-1.65-.95-2.2-1.18-.16-.07-.34-.14-.53-.21-.18-.07-.38-.14-.59-.21-.1-.03-.2-.07-.31-.1-.11-.04-.24-.07-.36-.11-.23-.07-.46-.13-.7-.19-1.44-.38-3.03-.63-4.22-.56-.12,0-.24.03-.36.04-.05,0-.16.03-.3.07-.13.02-.3.07-.5.12-.03,0-.06,0-.09.02-.22.06-.48.14-.74.21-.06.02-.11.03-.16.04-.59.17-1.21.36-1.71.53-.43.14-.78.27-.93.36-.18-.1-.61-.26-1.14-.43-.31-.1-.66-.2-1.01-.31-.17-.05-.35-.1-.52-.15-.18-.05-.37-.1-.54-.15-.16-.05-.31-.09-.45-.13-.38-.1-.67-.17-.77-.18h-.01c-.14-.02-.28-.03-.43-.04-.84-.04-1.87.07-2.91.27-.38.08-.77.17-1.15.27-.31.07-.61.16-.9.24-.13.04-.26.08-.38.12-.42.14-.81.28-1.15.42-.05.02-.1.04-.15.06-.8.34-2.08,1.08-3.38,1.94-.18.12-.36.24-.53.36-.14.09-.28.18-.41.29-.08.05-.15.1-.22.15-1.35.97-2.55,1.99-3.02,2.75-.1.16-.19.34-.28.55-.43,1.08-.63,2.72.08,3.51l.07.07c.08.08.17.15.27.21.66.41,1.51.25,2.36,0,.38-.11.76-.24,1.12-.35.27-.09.54-.16.78-.2.49-.09,1.6-.3,2-.11l.38.31.58.46,8.15,6.58c-.42-.1-.87-.3-1.27-.48-2.13-.94-7.44-4.16-9.42-4.07-1.9.08-5.98,2.09-7.3,3.48-.43.46-1.15,2.08-1.82,3.86-.03.06-.05.13-.08.19-.13.36-.27.73-.39,1.09-.64,1.8-1.16,3.53-1.25,4.21-.34,2.63,1.15,5.24,2.61,7.43.2.3.4.6.59.88.38.55,1.9,2.27,2.03,2.67.34,1.1.07,2.93.38,4.16.18.71.91,1.6,1.76,2.25.7.54,1.48.91,2.08.87.32-.02,2.64-.86,2.67-.22-.92,1.29-2.93,4.69-2.72,6.21.12.93,1.38,1.74,1.96,2.45,2.45,2.99,4.45,7.31,4.71,11.21.18,2.71-.18,5.63,0,8.35.14,2.19,1.08,7.83,1.97,9.72,1.28,2.74,4.07,4.21,7.05,4.17,2.97.04,5.76-1.43,7.05-4.17.88-1.89,1.82-7.53,1.96-9.72.18-2.72-.18-5.64,0-8.35.26-3.9,2.26-8.22,4.71-11.21.58-.71,1.84-1.52,1.97-2.45.2-1.52-1.81-4.92-2.73-6.21.03-.64,2.35.2,2.68.22.6.04,1.37-.33,2.06-.87.85-.64,1.59-1.53,1.77-2.25.31-1.23.04-3.06.39-4.16.12-.4,1.64-2.12,2.02-2.67.18-.27.37-.55.56-.83t.01-.02c1.47-2.2,2.98-4.82,2.64-7.46ZM293.54,561.16h-.09s0,0,0,0l-9.24.67c2.86-1.61,6.06-2.21,9.33-2.34,3.26.13,6.46.73,9.32,2.34l-9.24-.67h0s-.08,0-.08,0ZM288.61,549.47c1.32-1.1,3.23-1.53,4.93-1.52,1.69,0,3.6.42,4.92,1.52h-9.85ZM301.65,556.14c-2.68-.53-5.37-1.07-8.11-.91-2.75-.16-5.44.38-8.11.91,2.25-1.75,5.18-2.58,8.02-2.58h.17c1.42,0,2.87.21,4.24.63,1.37.43,2.67,1.07,3.79,1.95ZM290.74,543.7c.11-.69,2.32-.94,2.8-1.1.47.16,2.68.41,2.8,1.1h-5.6ZM283.61,554.32c-.23.25-1.62-1.55-1.94-1.64-.51-.15-1.52.35-2.1.41-.95.11-2.24-.11-2.93-.83-.69-.71-2.69-4.81-3.28-5.97-.66-1.3-2.22-3.42.44-3.17,3.8.34,7.7,3.29,9.12,6.81.16.39.69,1.88.69,2.19v2.2ZM293.62,600.92v-.02s-.06.01-.08.01c-.03,0-.06-.01-.09-.01v.02c-3.72.28-6.43-3.34-6.13-6.85,1.59,1.69,3.83,2.99,6.22,2.89,2.39.1,4.62-1.2,6.21-2.89.31,3.51-2.4,7.13-6.13,6.85ZM293.62,593.63h0s-.06,0-.08,0c-.03,0-.06,0-.09,0h0c-4.03.34-6.75-3.61-6.74-7.28,1.66,1.96,4.13,3.68,6.83,3.49,2.69.19,5.17-1.53,6.82-3.49,0,3.67-2.7,7.62-6.74,7.29ZM293.54,586.19s-.06,0-.09,0h0c-2.21.06-4.48-1.15-5.75-2.95,1.89.45,3.82.52,5.75.67h0s.06,0,.09,0c.02,0,.05.01.08.01h0c1.93-.16,3.86-.23,5.75-.68-1.26,1.8-3.53,3.01-5.75,2.96h-.08ZM293.54,580.27c-2.19-.06-4.64-.89-6.29-2.28l6.2.3h0s.09,0,.09,0h.08s0,0,0,0l6.21-.3c-1.66,1.39-4.11,2.22-6.29,2.28ZM293.54,573.59c-2.17-.1-4.31.26-6.45.61,1.76-1.58,4.16-2.08,6.45-2.27,2.28.19,4.68.69,6.44,2.27-2.13-.35-4.27-.71-6.44-.61ZM293.54,567.22c-3.3-.08-6.53.62-9.63,1.67,2.59-2.37,6.12-3.59,9.63-3.64,3.5.05,7.03,1.27,9.62,3.64-3.1-1.05-6.33-1.75-9.62-1.67ZM307.5,553.09c-.58-.06-1.59-.56-2.1-.41-.32.09-1.71,1.89-1.93,1.64v-2.2c0-.31.52-1.8.68-2.19,1.42-3.52,5.32-6.47,9.12-6.81,2.67-.25,1.1,1.87.44,3.17-.59,1.16-2.59,5.26-3.28,5.97-.69.72-1.98.94-2.93.83Z"/>
        <path class="st2" d="M310.33,574.65c-1.86-1.66-3.28,2.57-3.37,3.88-.14,1.89.7,3.32,1.14,5.08,1.34,5.36.78,11.12-.68,16.39,4.3-6.14,5.19-14.59,3.9-21.88-.13-.72-.52-3.06-.97-3.47Z"/>
        <path class="st2" d="M293.62,614.41h0s-.06,0-.08,0c-.03,0-.06,0-.08,0h0c-1.72.09-3.37-.35-4.94-1.04-.7-.3-1.3-.8-2.02-1.01.75,3.17,4,4.59,7.05,4.33,3.05.26,6.3-1.16,7.05-4.33-.73.21-1.33.71-2.02,1.01-1.57.68-3.22,1.13-4.94,1.04Z"/>
        <path class="st2" d="M293.62,620.33h0s-.06,0-.08,0c-.03,0-.06,0-.08,0h0c-2.14.08-4.12-.98-5.75-2.27.85,2.41,3.24,4.21,5.83,4.1,2.59.11,4.99-1.69,5.83-4.1-1.63,1.3-3.61,2.35-5.75,2.28Z"/>
        <path class="st2" d="M310.29,545.98c-1.81,1.05-3.72,2.57-4.25,4.7,2.25-.58,4.14-2.29,4.25-4.7Z"/>
        <path class="st2" d="M293.54,626.02s-.04,0-.06,0h0c-1.12.05-2.33-.31-3.35-.88-.59-.33-1.08-.9-1.68-1.16.5,3.17,2.76,4.38,5.04,4.47h0s.04,0,.06,0c.02,0,.04,0,.06,0h0c2.27-.1,4.54-1.3,5.04-4.47-.61.26-1.1.83-1.68,1.16-1.02.57-2.23.93-3.35.89h0s-.04,0-.06,0Z"/>
        <path class="st2" d="M293.6,631.79h0s-.04,0-.06,0c-.02,0-.04,0-.06,0h0c-1.33.09-2.61-.35-3.82-1.04-.54-.3-1-.8-1.57-1.01.58,3.17,3.09,4.59,5.45,4.33,2.36.26,4.87-1.16,5.45-4.33-.56.21-1.03.71-1.57,1.01-1.21.68-2.49,1.13-3.82,1.04Z"/>
        <path class="st2" d="M293.6,637.71h0s-.04,0-.06,0c-.02,0-.04,0-.06,0h0c-1.66.08-3.19-.98-4.45-2.27.66,2.41,2.51,4.21,4.51,4.1,2.01.11,3.86-1.69,4.51-4.1-1.26,1.3-2.79,2.35-4.45,2.28Z"/>
      </g>
      <g>
        <g>
          <path class="st2" d="M323.11,533.72s0-.06,0-.07c0-.14-.12-1.05-.42-1.73-.27-.6-.57-1.17-.85-1.71-.11-.21-.21-.41-.32-.61.2-.22.32-.52.32-.87v-.83c0-1.79-.16-3.38-2.02-4.47-.03-.21-.05-.42-.08-.64-.07-.52-.13-1.04-.21-1.56-.29-2.04-.82-4.02-1.57-5.89.5-1.19.41-2.21-.28-3.02-.4-.47-.99-.74-1.64-.74-.32-.5-.66-1-1.01-1.48.05-.19.06-.39.03-.59-.14-.82-.82-1.51-1.7-1.72-.11-.03-.23-.05-.35-.06-.41-.41-.82-.81-1.23-1.17-.46-.4-.95-.8-1.46-1.18-.02-.17-.07-.34-.15-.48-.22-.37-.6-.59-1.04-.59-.11,0-.21.01-.32.04-1.31-.83-2.71-1.53-4.16-2.09-.18-.07-.37-.14-.57-.21-.04-.16-.1-.31-.2-.45-.23-.33-.59-.52-.96-.52-.22,0-.44.07-.64.19-.07.05-.15.1-.22.15-.27-.07-.55-.14-.82-.21-.43-.41-.81-.75-1.18-1.06-.24-.2-.53-.31-.84-.31-.32,0-.62.12-.84.35-.13.13-.23.29-.29.46-.97-.12-1.98-.21-3.02-.26-.05-.08-.11-.15-.18-.22-.24-.24-.55-.37-.87-.37s-.6.12-.83.35c0,0,0,0,0,0-.46-.27-.91-.49-1.38-.67-.12-.05-.25-.07-.38-.07-.53,0-1.03.39-1.17.9-.02.06-.03.13-.04.19-.75.07-1.5.17-2.24.29-.03-.04-.05-.08-.08-.12-.24-.3-.6-.48-.96-.48-.31,0-.61.13-.84.37-.24.25-.47.5-.72.78-.05.01-.09.02-.14.03-.3.08-.61.17-.95.27-.47-.16-.92-.24-1.37-.24-.22,0-.44.02-.65.06-.31.05-.58.24-.75.52-.14.22-.21.49-.2.74-.73.31-1.43.66-2.1,1.02l.07.13-.23-.12s-.07.09-.1.13c-.52.3-.99.58-1.43.87-.76.5-1.5,1.07-2.21,1.68h-.01c-.79,0-1.48.26-2.03.77-.32.3-.46.72-.35,1.13.03.12.08.23.14.33-.56.64-1.09,1.32-1.58,2.01-.42.6-.82,1.24-1.2,1.92-.78.31-1.34.9-1.57,1.65-.1.33-.06.66.1.94.04.06.08.12.13.17-.34.85-.62,1.76-.86,2.77-.91.54-1.59,1.75-1.17,2.91.1.28.28.5.51.65-.06.42-.12.84-.18,1.26l-.03.18c-2.09.99-2.47,2.16-2.47,4.75v.83c0,.52.25.93.65,1.12-.05.1-.22.4-.22.4-.06.11-.12.21-.18.32-.34.62-.67,1.2-.88,2.03-.47,1.84-.16,3.54.88,4.91.85,1.11,2.15,1.93,3.67,2.35,0,0,0,0,.01,0,.42-.14.84-.27,1.27-.41-3.43-.45-6.13-2.93-5.18-6.68.22-.88.6-1.47,1-2.19.77-1.42,1.22-2.21,1.55-3.84.81-3.99.85-8.15,2.61-11.96.59-1.29,1.3-2.53,2.11-3.69,1.58-2.27,3.58-4.23,5.88-5.75,2.29-1.52,4.85-2.61,7.51-3.3,2.99-.78,6.09-1.1,9.17-.99,3.35.12,6.71.63,9.85,1.85,2.53.98,4.89,2.39,6.93,4.18,2.02,1.77,3.7,3.91,4.96,6.28,1.32,2.48,2.17,5.2,2.57,7.98.29,2.02.45,4.14,1.01,6.08.52,1.78,1.46,3.15,2.2,4.8.27.6.37,1.43.37,1.43-.01.25.28,1.81-1.29,3.67-.95,1.12-2.74,1.68-4.19,1.79.37.18.72.36,1.04.53,1.37-.26,2.8-.87,3.66-1.89,1.56-1.84,1.47-3.46,1.45-4Z"/>
          <path class="st2" d="M321.16,537.29c-.95,1.12-2.74,1.68-4.19,1.79-.17.01-.46-.14-.51.02,0,.02.03.04.04.06-22.57-5.65-45.91.21-46.58.27-3.44.3-6.13-2.93-5.18-6.68.22-.88.6-1.47.99-2.19.77-1.42,1.23-2.21,1.55-3.84.81-3.99.85-8.15,2.61-11.96.59-1.29,1.3-2.53,2.11-3.69,1.58-2.27,3.58-4.23,5.88-5.75,2.29-1.52,4.85-2.61,7.51-3.3,2.99-.78,6.09-1.1,9.17-.99,3.35.12,6.71.63,9.85,1.85,2.53.98,4.89,2.39,6.93,4.18,2.02,1.77,3.7,3.91,4.97,6.28,1.32,2.48,2.17,5.2,2.57,7.98.29,2.02.45,4.14,1.01,6.07.52,1.78,1.46,3.15,2.2,4.8.27.6.37,1.43.37,1.43-.02.25.28,1.81-1.29,3.67Z"/>
        </g>
        <path class="st0" d="M317.78,539.64c.08-.01.15-.02.23-.04-.32-.17-.67-.35-1.04-.53-.17.01-.35.02-.51.02.01.01.03.04.04.07.43.14.86.31,1.28.48Z"/>
        <g>
          <path class="st0" d="M274.95,523.73c-.75-6.71,1.12-13.48,5.2-18.85.43-.57-.53-1.12-.95-.56-4.18,5.51-6.12,12.54-5.35,19.41.08.7,1.18.71,1.11,0h0Z"/>
          <g>
            <path class="st0" d="M307.43,522.66c1.24-1.72,2.59-3.35,4.05-4.88.73-.77,1.48-1.51,2.25-2.23.39-.36.78-.71,1.18-1.06.32-.28.7-.64,1.13-.71.37-.06.56.26.59.6.03.51-.3,1-.56,1.41-.37.61.58,1.16.95.56.59-.95,1.1-2.18.26-3.16-.39-.46-1.02-.6-1.59-.46s-1.08.56-1.53.95c-1.82,1.58-3.52,3.29-5.09,5.12-.91,1.06-1.77,2.17-2.59,3.3-.17.24-.04.62.2.76.28.16.58.04.76-.2h0Z"/>
            <path class="st0" d="M303.02,520.8c1.48-4.01,4.28-7.54,7.84-9.9.48-.32,1.01-.71,1.56-.89.38-.13.94-.14,1.02.34.05.29.41.46.68.39.31-.09.43-.38.39-.68-.1-.6-.63-1.05-1.2-1.19-.67-.16-1.33.08-1.92.41-1.07.59-2.07,1.32-3,2.1-1.83,1.53-3.41,3.37-4.64,5.41-.71,1.18-1.31,2.43-1.79,3.72-.1.28.12.61.39.68.31.08.57-.11.68-.39h0Z"/>
            <path class="st0" d="M297.37,519.36c1.66-4.4,4.73-8.27,8.6-10.94,1.11-.77,2.29-1.44,3.52-2,.27-.12.34-.52.2-.76-.16-.28-.48-.32-.76-.2-4.49,2.06-8.31,5.55-10.82,9.81-.71,1.21-1.32,2.48-1.81,3.79-.11.28.12.61.39.68.31.09.57-.11.68-.39h0Z"/>
            <path class="st0" d="M291.22,519.76c1.42-5.28,4.39-10.08,8.43-13.75,1.14-1.03,2.35-1.96,3.64-2.79.6-.38.04-1.34-.56-.96-4.77,3.06-8.62,7.53-10.96,12.69-.66,1.46-1.21,2.96-1.62,4.51-.18.69.88.98,1.06.29h0Z"/>
            <path class="st0" d="M285.57,520.21c.58-5.4,2.69-10.61,5.94-14.95.91-1.22,1.93-2.36,3.02-3.42.51-.5-.27-1.28-.78-.78-4.03,3.93-6.96,8.98-8.41,14.42-.41,1.55-.7,3.14-.87,4.73-.03.3.28.55.55.55.33,0,.52-.25.55-.55h0Z"/>
            <path class="st0" d="M278.57,522.99c.26-6.02,2.28-11.91,5.69-16.87.95-1.38,2.01-2.68,3.17-3.89.49-.51-.29-1.3-.78-.78-2.14,2.24-3.97,4.78-5.4,7.53-1.44,2.76-2.51,5.73-3.14,8.78-.35,1.72-.57,3.47-.65,5.23-.03.71,1.07.71,1.1,0h0Z"/>
            <path class="st0" d="M268.68,520.97c-.26-.72.65-1.05,1.21-1.07.86-.03,1.74.13,2.57.33,1.76.41,3.42,1.16,4.9,2.19.24.17.61.04.76-.2.16-.28.05-.59-.2-.76-1.36-.95-2.88-1.67-4.47-2.12-.8-.23-1.61-.38-2.44-.48s-1.66-.14-2.41.24-1.29,1.33-.98,2.17c.1.28.37.47.68.39.27-.07.49-.4.39-.68h0Z"/>
            <path class="st0" d="M270.49,515.18c.26-.86,1.56-.55,2.17-.41.93.21,1.85.49,2.74.82,1.76.66,3.42,1.58,4.93,2.69.85.63,1.65,1.33,2.4,2.09.5.51,1.28-.28.78-.78-2.95-2.99-6.84-5.17-10.98-5.98-.62-.12-1.3-.2-1.91.04-.57.22-1.02.64-1.2,1.24-.21.68.86.97,1.06.29h0Z"/>
            <path class="st0" d="M274.59,508.92c.8-.73,2.19.03,2.97.42,1.19.6,2.34,1.27,3.46,1.99,2.19,1.43,4.23,3.1,6.06,4.97,1.04,1.06,2.02,2.18,2.92,3.36.18.24.48.36.76.2.23-.14.38-.52.2-.76-3.44-4.52-7.88-8.25-12.96-10.79-1.27-.64-2.97-1.31-4.18-.19-.52.48.26,1.26.78.78h0Z"/>
            <path class="st0" d="M282.76,503.61c.71-.13,1.42.26,2,.63.57.36,1.11.77,1.64,1.19,1.06.84,2.07,1.75,3.01,2.72,1.89,1.96,3.51,4.17,4.82,6.56.73,1.33,1.35,2.71,1.86,4.13.1.28.38.47.68.39.27-.07.49-.4.39-.68-1.96-5.44-5.44-10.32-9.98-13.9-1.33-1.05-2.9-2.42-4.71-2.1-.29.05-.46.41-.39.68.09.31.38.44.68.39h0Z"/>
            <path class="st0" d="M291.37,501.59c1.4.54,2.55,1.56,3.56,2.65,1.06,1.13,2.02,2.35,2.91,3.61,1.8,2.55,3.28,5.34,4.38,8.26.63,1.66,1.13,3.36,1.52,5.1.15.69,1.22.4,1.06-.29-.7-3.18-1.82-6.26-3.31-9.15s-3.34-5.59-5.51-8c-1.22-1.35-2.6-2.57-4.32-3.23-.28-.11-.61.12-.68.39-.09.31.11.57.39.68h0Z"/>
            <path class="st0" d="M298.95,501.87c2.39,2.04,4.48,4.42,6.18,7.06,1.7,2.64,3.02,5.53,3.89,8.55.49,1.7.85,3.45,1.05,5.21.03.3.23.55.55.55.27,0,.59-.25.55-.55-.36-3.26-1.21-6.44-2.51-9.45-1.28-2.99-3.01-5.78-5.09-8.28-1.17-1.4-2.45-2.69-3.84-3.87-.23-.19-.56-.22-.78,0-.2.2-.23.59,0,.78h0Z"/>
          </g>
        </g>
        <path class="st0" d="M274.46,527.19s5.35-1.69,10.47-2.61c3.28-.59,7.19-.57,7.19-.57,0,0,5.54.03,10.26.68,4.84.66,8.85,1.93,8.85,1.93l-1.67-.26s1.2.68,1.33.83c0,0-2.16-1.28-3.46-1.12-.05,0,1.67.29,2.34.94-.03-.03-4.27-1.36-5.99-1.04.08-.05,3.57.31,4.66,1.23-.03.03-2.63-.83-3.72-.55.03.03,2.32.18,3.12.78.08.05-2.79-.68-4.4-.21.03-.05,3.41.5,3.41.5,0,0-4.06-.18-4.79.23-.21,0,2.86-.05,3.78.31.03.03-4.27.31-5.29.78,0,.03,9.9-.42,9.9-.42,0,0,5.21-.16,7.32,1.04.03-.03,0-.65,0-1.02,0,.03.52,1.33,1.33,2.01.03,0-.31,0-.31,0,0,0-1.67-1.93-6.43-1.49-4.77.44-21.59,1.28-23.96,1.07s-8.96-.52-8.96-.52c0,0-9.06,0-9.48.08s-1.04.16-1.72.86-1.85,1.49-1.85,1.49c0,0,1.48-2.5,1.9-2.77s.55-.29.55-.29c0,0-.47.31-.49.78.03-.03.39.03.7-.1s6.87-.39,6.87-.39h8.98l-4.79-.5,3.28-.5s-3.72-.18-4.69.18c.05-.03,1.87-.81,3.8-.81.03-.03-3.91.1-4.97.55,0-.05,3.28-1.33,5.03-1.04-.08-.03-2.68-.52-5.62.65-.03.08,2.19-1.54,5.39-1.51,0,0-3.28-.08-5.65.91.05-.03,3.88-1.77,5.23-1.57-.05-.03-4.04.34-7.45,1.44Z"/>
        <g>
          <path class="st0" d="M320.33,529.19c-17.06-8.39-37.05-8.39-54.11,0-.47.23-.84.02-.84-.47v-.83c0-2.54.33-3.4,2.42-4.29,15.43-6.62,35.56-6.58,50.99.04,2.08.89,2.39,2.09,2.39,4.25v.83c0,.49-.38.7-.84.47Z"/>
          <path class="st7" d="M266.7,536.13c.58.85,1.58,1.23,2.58.99-.88.66-2.37.09-2.58-.99h0Z"/>
          <path class="st7" d="M317.41,537.83c1.21-.54,2.19-1.55,2.36-2.86.05,1.28-1,2.92-2.36,2.86h0Z"/>
          <ellipse class="st0" cx="293.5" cy="521.17" rx="5.51" ry="5.52"/>
          <polygon class="st2" points="293.38 516.31 294.5 519.62 297.98 519.57 295.18 521.65 296.3 524.96 293.46 522.94 290.68 525.02 291.71 521.7 288.87 519.69 292.35 519.64 293.38 516.31"/>
        </g>
      </g>
    </g>
  </g>
</svg>