<?xml version="1.0" encoding="UTF-8"?>
<svg id="Layer_1" xmlns="http://www.w3.org/2000/svg" version="1.1" viewBox="0 0 448.92 107.63">
  <!-- Generator: Adobe Illustrator 30.0.0, SVG Export Plug-In . SVG Version: 2.1.1 Build 123)  -->
  <defs>
    <style>
      .st0 {
        fill: #4db960;
      }
    </style>
  </defs>
  <g>
    <path class="st0" d="M244.91,48.92h-1.19c.04-1.34-.41-2.68-1.13-3.81-4.44-6.95-16.92-.56-7.33,5.24,3.13,1.9,9.88,4.18,10.71,8.11,1.83,8.63-8.83,10.73-14.81,7.64-3-1.56-3.68-3.54-3.3-6.89.11-.94.84-1.62,1.28-.66.77,1.7.41,3.18,2.12,4.9,3.18,3.18,12.44,2.97,10.8-3.19-1.12-4.21-13.05-6.11-13.87-11.81-1.05-7.31,7.14-9.67,12.81-7.44,3.93,1.55,4.16,4.01,3.88,7.91h.03Z"/>
    <path class="st0" d="M331.83,48.92l-1.04-.3c-.48-4.25-3.64-7.04-7.99-6.49-3.65.47-5.73,4.04-2.76,6.79,4.26,3.96,14.3,4.82,12.92,12.92-1.27,7.48-16.04,6.65-17.69,1.7-.21-.64-.6-4.92-.18-5.23l.91-.13c.9,5.35,3.93,7.79,9.41,7.17,2.65-.3,4.29-2.17,3.67-4.87-.95-4.17-11.97-6.08-13.66-11.13-2.8-8.4,9.1-11.62,14.63-7.16.51.41,1.79,1.79,1.79,2.4v4.33h-.01Z"/>
    <path class="st0" d="M447.67,48.92l-1.04-.3c-.48-4.25-3.64-7.04-7.99-6.49-3.65.47-5.73,4.04-2.76,6.79,4.26,3.96,14.3,4.82,12.92,12.92-1.27,7.48-16.04,6.65-17.69,1.7-.21-.64-.6-4.92-.18-5.23l.91-.13c.9,5.35,3.93,7.79,9.41,7.17,2.65-.3,4.29-2.17,3.67-4.87-.95-4.17-11.97-6.08-13.66-11.13-2.8-8.4,9.1-11.62,14.63-7.16.51.41,1.79,1.79,1.79,2.4v4.33h-.01Z"/>
    <path class="st0" d="M306.59,40.86c2.76.56,2.74,3.76,2.54,5.98h-.89c.19-1.89-1.49-4.18-3.44-4.18h-8.36l-.38.45c0,.12.23.22.23.3v9.11h10.45v1.79h-10.45v10.01c1.5,1.12,4.83.9,6.72.74,2.21-.18,3.97-.59,5.39-2.38.86-1.08.72-2.47,2.23-2.1-.22,1.92-1.72,6.27-4.03,6.27h-14.04c-1.08-1.24-.16-3.22-.14-4.62.08-4.86.31-10.76,0-15.56-.15-2.35-.21-5.05-3.3-4.62v-1.19h17.48,0Z"/>
    <path class="st0" d="M423.98,40.86c3.08.55,2.37,3.69,2.84,5.97h-1.18c.08-2.17-1.53-4.18-3.75-4.18h-7.77l-.45.45v9.41h10.75v1.79h-10.75v10.01c.46.53.97.67,1.64.75,2.48.29,8.05.14,9.91-1.6,1.15-1.07,1.16-3.3,2.79-2.88-.21,2.25-1.6,6.27-4.33,6.27h-13.89v-22.85c0-1.01-1.86-2.37-2.99-1.95v-1.19h17.18,0Z"/>
    <path class="st0" d="M262.49,40.61l10.04,22.66c.54,1.9,3.51,1.6,3.15,3.57-5.86,1.04-7.73-2.94-9.53-7.58l-11.09-.04-3.33,7.57-2.04.05c-.22-.21.68-2.17.84-2.59,2.75-6.85,6.1-14.82,9.35-21.41.61-1.23.9-2.75,2.6-2.23h0ZM265.23,57.29l-4.63-10.76-4.63,10.76h9.26Z"/>
    <path class="st0" d="M370.62,40.61l9.75,22.06c.37.58.7,1.32,1.2,1.78.98.91,2.59.73,2.24,2.39-3.39.29-5.58-.25-7.41-3.19-.56-.91-1.75-4.32-2.35-4.52l-10.89.14c-1.09,1.45-2.15,6.32-3.1,7.29-.51.53-1.56.23-2.25.29l11.08-25.8c.33-.6,1.11-.59,1.72-.43h.01ZM373.35,57.29l-4.78-10.75-4.48,10.75h9.26Z"/>
    <path class="st0" d="M198.02,66.84c-6.22,1.1-7.44-3.23-9.75-7.72-3.19.21-7.03-.42-10.13-.06-.55.06-.64.03-1,.5-.92,1.17-2.44,6.91-3.52,7.23-.49.15-1.07.04-1.58.06l11.34-26.14c.63-.33,1.3-.14,1.63.48,3.44,6.62,5.69,14.76,9.26,21.2.42.75,1.11,1.88,1.8,2.38,1.01.73,2.26.41,1.95,2.09v-.02h0ZM187.57,57.29l-4.63-10.76-4.63,10.76s9.26,0,9.26,0Z"/>
    <path class="st0" d="M212.31,40.61l9.25,21.36c1.2,2.29,1.46,2.15,3.42,3.45,2.1,1.39-1.49,1.55-2.59,1.4-4.34-.61-4.62-4.8-6.64-7.69-3.16.21-7.07-.45-10.12-.06-.33.04-.67-.02-.88.31l-2.98,7.17-2.24.29,11.08-25.81c.33-.6,1.12-.58,1.72-.43h-.02ZM215.05,57.29l-4.78-10.75-4.48,10.75h9.26Z"/>
    <path class="st0" d="M110.95,40.86c.99.18,2.68,1.56,3.19,2.48l7.56,17.23,8.53-19.24c.49-.78,1.55-.42,2.36-.47l-10.79,25.2c-1.16,2.47-2.03.21-2.7-1.1-3.26-6.39-5.58-15.17-9.09-21.08-.87-1.46-1.34-1.8-3.1-1.97l-.3-1.05c1.32.16,3.08-.22,4.33,0h.01Z"/>
    <path class="st0" d="M358.12,40.86v1.79h-8.66v24.19c-1.33-.19-3.15.47-4.18-.45v-23.75h-4.33c-.3,0-2.23.79-2.52,1.06-.86.78-.88,2.2-1.18,3.24l-.92.18c.11-1.7-.48-4.22.91-5.51.12-.12,1.25-.76,1.33-.76h19.56-.01Z"/>
    <path class="st0" d="M403.82,40.86v1.79h-8.21l-.45.45v23.75h-3.88v-23.75c-.72-.69-2.43-.53-3.45-.46-2.92.2-4.87,1.22-4.62,4.49h-1.19c.11-1.69-.46-3.93.88-5.25.19-.19,1.56-1.03,1.66-1.03h19.27,0Z"/>
    <path class="st0" d="M153.37,40.86c.6.14,1.94,1.99,1.94,2.54v21.21l.45.45h13.59l-.45,1.79h-17.47v-21.95c0-.24-.55-1.99-.75-2.23-.59-.71-1.69-.62-2.53-.61v-1.19h5.23-.01Z"/>
    <path class="st0" d="M137.98,40.86c.88.17,3.83-.45,4.14.49.02,3.37.11,6.75.05,10.13-.06,3.62-.91,8.68,0,12.22.47,1.79,3.22,1.84,3.27,2.11.29,1.62-4.2,1.13-5.1.92-1.23-.29-2.37-1.84-2.37-3.01v-22.85h0Z"/>
  </g>
  <g>
    <path class="st0" d="M84.32,107.54H10.07c-.19-.78.32-.89.66-1.34.79-1.04,8.74-9.1,9.39-9.22,16.35.4,32.92.63,49.32.36,1.9-.03,3.81-1.15,5.51.23l9.36,9.97h0ZM74.54,103.54c-.07-1.41-1.54-2.41-2.86-2.25H22.28c-1.32.03-2.22,1.24-2.87,2.25h55.13,0Z"/>
    <g>
      <path class="st0" d="M22.65,84.44c1.01-.65,2.22-1.55,2.25-2.86,1.68-15.86-5.09-39.79,7.58-51.95.58-.56,6.03-4.03,5.29-4.71-8.71,2.76-14.38,12.45-15.14,21.3l-4.42.02c.64-9.15,5.19-17.8,12.75-23.02,1.6-1.1,5.89-3.88,7.71-2.97.95.47,4.6,5.85,6.21,6.67-1.97,1.04-4.16,1.64-6.08,2.8-5.51,3.34-9.42,9.85-9.93,16.29-.98,12.4.96,25.92-.21,38.44l-22.64,22.69-5.77.43-.25-62.42C1.21,28.11,11.52,11.61,27.12,4.28c1.31-.62,5.07-2.32,6.21-1.79l14.02,14.88,14.69-15.11c14.78,4.67,26.8,17.89,30.76,32.79,2.87,10.83.87,22.95,1.44,34.1l.02,38.41c-3.19.03-4.92.55-7.36-1.76-.8-.75-1.22-1.77-1.96-2.48-6.4-6.15-12.68-12.5-18.91-18.87-1.12-12.11.69-25.09-.21-37.1-.57-7.49-3.99-14.07-10.55-17.89-1.83-1.06-3.72-1.45-5.46-2.53,1.85-1.3,5.16-6.96,7.27-6.88,1.2.05,4.44,1.76,5.57,2.48,7.7,4.93,13.5,14.46,13.38,23.73l-4.03-.19c-.95-7.48-4.56-14.59-10.76-19.01-.75-.54-4.16-2.95-4.77-1.45,20.1,11.18,11.45,37.58,13.35,56.41l2.21,2.45v-34.65h16.9c.56-17.74-9.53-34.54-26.02-41.31l-3.32,3.1c14.71,5.01,24.73,19.19,25.34,34.66l-4.87-.03c-.95-14.23-10.42-26.82-24.26-30.67l-8.44,8.92-8.54-8.81c-13.76,3.47-23.74,16.48-24.14,30.59h-4.9c.23-15.68,10.72-29.54,25.34-34.88l-3.31-2.88c-10.63,4.19-19.17,13.25-23.25,23.86-.89,2.31-2.77,8.31-2.77,10.56v6.89h16.23l.67.67v33.99s-.04-.04-.04-.04ZM14.21,91.99c1.16.28,4-2.63,4-3.33v-33.76c-1.47-1.61-3.95-.19-5.56-.22-2.06-.04-4.61-.87-6.89-.44v47.09l3.56-3.78v-39.32h4.89v33.76ZM88.9,100.87v-45.98c-1.66-1.63-4.59-.22-6.45-.22-1.74,0-4.03-.88-6-.44v34.87l3.56,3.33v-34.21h4.89v38.87c0,.61,3.51,4.32,4,3.78Z"/>
      <path class="st0" d="M54.61,73.77h-14.67l3.14-16.13c-5.88-3.2-5.35-12.81,1.1-14.94,10.02-3.32,15.45,9.68,7.04,15.28l3.39,15.79Z"/>
    </g>
    <path class="st0" d="M71.43,94.65H22.97c-.19-.78.32-.89.66-1.34.66-.87,7.14-7.31,7.65-7.46l32.14.13,8.01,8.66h0ZM62.09,90.66c-.47-.94-1.31-1.82-2.42-1.8-7.99.65-17.11-.78-24.95,0-1.45.14-2.17.39-2.86,1.8h30.23Z"/>
    <path class="st0" d="M40.86.16c4.31-.36,3.25,1.57,6.15,3.83,3.55-2.87,4.89-5.6,9.93-2.86l-9.54,10.03L37.4,1.14c-.02-.58,2.83-.92,3.46-.98Z"/>
  </g>
</svg>