<?xml version="1.0" encoding="UTF-8"?>
<svg id="Layer_1" xmlns="http://www.w3.org/2000/svg" version="1.1" viewBox="0 0 705.26 70.72">
  <!-- Generator: Adobe Illustrator 30.0.0, SVG Export Plug-In . SVG Version: 2.1.1 Build 123)  -->
  <path d="M646.23,0c0,.55.25.46.63.54.95.2,2,.18,2.97.44,4.2,1.16,8.07,4.69,9.97,8.56.39.79,1.46,3.2,1.1,3.94-.25.51-5.34,2.56-6.26,2.92-.59.23-1.12.97-2.02.32-1.02-3.86-3.7-7.14-7.78-7.87-4.62-.83-11.62,1.43-12.11,6.87-.63,7.05,1.02,9.84,7.6,12.2,10.59,3.79,21.07,4.06,21.75,18.19.55,11.41-3.07,19.05-15.08,20.9-8.98,1.39-19.24-.98-23.47-9.71-.44-.9-1.65-3.53-.76-4.24l7.71-3.08c.64.08,1.21,2.29,1.56,2.95.98,1.86,3.14,3.98,5.07,4.82,4.46,1.96,12.67,1.1,15.1-3.69,1.24-2.46,1.32-8.46.04-10.89-2.33-4.41-11.81-5.95-16.37-7.56-8.03-2.84-11.75-7-12.14-15.73-.36-7.98,1.96-14.94,9.78-18.11,2.15-.87,3.7-.77,5.79-1.22.38-.08.63,0,.63-.54h6.3,0Z"/>
  <path d="M23.59,0c0,.55.25.46.63.54.93.2,2.11.15,3.01.41,3.57,1,7.5,4.19,9.35,7.38.47.8,1.72,3.44,1.87,4.26.06.36.11.62-.09.96-.97.48-7.29,3.64-7.81,3.51-.57-.14-.65-1.19-.87-1.66-2.32-4.92-5.57-7.29-11.21-6.57-6.45.83-8.82,4.53-8.38,10.86.6,8.63,12.86,9.23,19.35,11.95,9.75,4.09,10.65,11.23,9.98,20.95-1.21,17.42-29.19,19.34-37.4,6.62-.71-1.1-3.04-5.43-1.53-6.32,1.53-.25,6.47-3.27,7.67-2.89.47.15.51,1.21.7,1.65,2.88,6.72,10.2,8.71,16.75,6.02,5.97-2.45,6.82-12.59,2.38-16.51-5.01-4.42-15.68-4.18-21.51-9.07C-.75,26.01-.77,10.68,6.31,4.58,9.86,1.53,12.52,1.34,16.85.54c.4-.07.63,0,.63-.54h6.12,0Z"/>
  <path d="M116.81,0c-.29.35-.09.46.28.53,2.14.42,3.4.32,5.53,1.31,4.97,2.31,8.25,7.25,9.45,12.49.16.7.79,4.27.73,4.77-.07.56-.47.62-.95.67-2.41.26-5.37-.12-7.83-.09-.7-.53-.41-1.45-.58-2.12-3.1-11.96-16.68-11.51-19.35,0,0,9.74-.75,20.09-.23,29.81.27,5,2.48,9.8,7.74,10.96,6.27,1.38,10.37-2.61,11.8-8.35.19-.75-.08-1.68.62-2.26,2.44.05,5.45-.36,7.83-.09.5.06,1.04.19,1,.8-.76,7.51-4.1,15.16-11.74,17.77-13.78,4.7-26.41-4.18-26.42-18.65,1.44-13.91-5.71-41.47,12.74-46.61.86-.24,1.96-.19,2.83-.4.37-.09.64,0,.63-.54h5.94-.02Z"/>
  <path d="M417.15,0c-.02.53.26.45.62.55.97.27,2.13.18,3.13.47,6.25,1.79,10.5,8.09,11.68,14.22.11.56.49,3.74.38,4.06-.06.18-.21.27-.37.35-.53.25-6.46.22-7.43.14-.3-.03-.59-.03-.86-.17-.98-3.1-1.36-6.05-3.9-8.38-6.64-6.09-16.48-.01-16.21,8.45.46,9.19-.58,18.93,0,28.06.8,12.58,15.42,14.76,18.99,4.22.26-.76.67-3.98,1.17-4.23,2.36.09,5.55-.42,7.82-.08.78.12.87.42.83,1.15-.51,9.27-6.35,17.64-16.11,18.43-14.52,1.18-21.42-7.44-21.87-21.11-.28-8.39-.21-17.71.19-26.07.34-7.05,2.17-13.43,8.57-17.33,2.56-1.56,4.12-1.52,6.81-2.18.37-.09.64,0,.63-.54h5.94-.01Z"/>
  <path d="M580.91,23.82c-.03-.1-.36-.31-.45-.45-.4,0-1.23,3.2-1.44,3.77-3.4,9.11-6.7,18.62-10.34,27.61-.36.89-.65,1.94-1.71,2.07-.77.09-3.6.11-4.28-.04-.48-.11-.89-.6-1.18-.98l-8.63-22.3c-.93-2.4-1.74-5.55-2.83-7.78-.22-.45-.41-.8-.99-.72-.46,1.41-.02,2.84,0,4.22.23,12.16-.18,24.34-.01,36.5-.13.69-.93.93-1.52.99-1.39.16-4.34.13-5.77,0-.49-.04-1.15-.08-1.39-.59l.03-64.97c.17-.22.39-.23.64-.26,1.36-.18,5.65-.17,7.04,0,.26.03.46.03.6.3,1.07,2.5,2.05,5.04,3.04,7.57,4.16,10.7,7.91,21.67,12.32,32.28.16.38.48,1.22.95,1.22L581.54.9h7.56l.27.27v65.08c-.27.32-.58.41-.99.45-1.41.16-4.69.14-6.13,0-.33-.03-1.34-.27-1.34-.64V23.82Z"/>
  <path d="M183.35,66.48c-.36.15-.73.2-1.12.23-1.85.15-5.78.21-7.57,0-.63-.07-.95-.35-1.35-.81l-10.65-26.39c-.26-.57-.94-.62-1.48-.67-1.93-.18-6.4-.21-8.29,0-1.62.19-.98,1.39-.98,2.42,0,8.25.04,16.5-.09,24.74-.23.62-.69.66-1.26.72-.94.09-6.54.1-7.07-.14-.46-.21-.6-.73-.59-1.21l.1-64.1c.33-.45.74-.5,1.25-.55,6.06-.55,12.94.43,19.09,0,11.04.09,17.81,5.77,18.27,16.99.27,6.64-.58,13.46-6.25,17.69-1.06.79-2.29,1.3-3.39,2l-.28.64c3.56,8.58,7.34,17.06,10.86,25.66.22.55,1.43,2.28.81,2.79h-.01ZM152.17,9.35c-.74.6-.27,1.19-.26,1.88.08,6.26-.15,12.54.08,18.8.24.27.56.32.9.36,2.75.31,8.31.19,11.17,0,8.01-.52,8.69-6.69,8.18-13.4-.18-2.33-1.45-5.12-3.43-6.46-.32-.22-2.51-1.18-2.78-1.18,0,0-13.86,0-13.86,0Z"/>
  <path d="M452.06.9l.27,28.77.44.28,19.68-.09c.09-.06.3-.39.3-.46V1.17l.27-.27h8.28s.32.28.36.36l.05,64.59c-.14.74-.85.8-1.48.86-.95.08-6.54.11-7.07-.14-.16-.08-.31-.16-.37-.35l-.11-27.22-.37-.53h-19.88l-.22,27.56-.78.66c-2.14-.14-4.55.21-6.66.01s-1.52-.98-1.51-2.43c.06-20.43.25-40.9,0-61.32,0-.78-.48-1.44.26-2.06h8.55,0Z"/>
  <path d="M317.94.93l7.44.05.31.41c5.76,18.85,11.28,37.75,16.91,56.64.66,2.23,1.87,5.01,2.31,7.22.11.53.27,1.04-.32,1.31-.52.24-6.81.23-7.79.14-1.4-.12-1.4-.86-1.75-2.03-1.15-3.8-1.97-7.73-3-11.57-.27-.72-.99-.97-1.72-.98l-18.28.09-.99.99c-.96,3.76-1.79,7.61-2.87,11.34-.28.98-.47,2.02-1.62,2.16-1.5.18-6.1.2-7.57,0-1.65-.22-.39-2.14-.13-3.03,5.75-19.91,11.71-39.74,17.82-59.51.22-.72.47-3.01,1.25-3.24h0ZM321.24,15.1l-7.36,28.1.34.4,14.63.05c.99-.48.19-1.23.03-1.93-1.19-5.24-2.77-10.41-4.17-15.61-.98-3.63-1.7-7.39-2.92-10.92l-.54-.08h0Z"/>
  <path d="M229.6,1.12c.3.29-.13,6.63.04,7.6l-.53.55-24.76.08-.76.22c-.24.34-.2.73-.23,1.12-.4,5.89.32,12.23,0,18.17.04.78.69.93,1.35.99,6.52.58,13.92-.45,20.53-.02.24,0,.48.06.64.26.49.63-.03,6.19.16,7.38l-.66.78-21.74.21-.17,19.06.45.45,25.06.13c.43.2.62.47.68.94.09.7.06,6.79-.1,7.11-.09.19-.34.29-.53.37l-33.13.17-1.44-.54V1.26l.4-.32,33.8-.04c.28.02.73.03.94.23h0Z"/>
  <path d="M526.2,29.84c.08.33.16.63.19.98.08.99.12,6.48-.13,7.07-.06.14-.13.24-.28.28-2.52.6-21.43-.5-22.11.37s.17,16.57-.16,18.9c.09.54.7.63,1.16.64l24.45.03c.46.21.61.66.67,1.13.15,1.3.18,5.22,0,6.49-.1.76-.63.97-1.35.99l-33.49-.18-.36-.54-.09-64.11.19-.98h34.64s.32.28.36.36c.16.35.19,6.53.1,7.29-.05.43-.1.57-.54.72l-25.21.16-.44.28.08,19.71c.07.09.75.43.83.43h21.5v-.02Z"/>
  <path d="M50.14.9h34.55s.32.28.36.36c.16.35.19,6.53.1,7.29-.05.43-.1.57-.54.72l-25.49.24-.25.47.08,19.5.44.28,21.66.12c.16.05.32.17.4.32.16.33.18,6.19.09,6.93-.05.41-.36,1.17-.81,1.17h-21.59l-.27.27v19.06s.28.32.36.36l25.47.26c.22.18.38.36.43.64.36,1.95-.26,4.93,0,7-.07.52-.59.66-1.03.77l-32.72.05c-2.04-.19-1.51-.83-1.51-2.25-.03-20.56-.07-41.12,0-61.68,0-.72-.44-1.31.26-1.88h0Z"/>
  <path d="M666.84.9h38.15l.27.27v7.73s-.28.32-.36.36l-13.76.09-.59.67c-.04,18.09-.08,36.18-.05,54.26,0,.76.43,1.45-.17,2.15-.28.25-.63.25-.98.28-1.55.14-4.94.16-6.47-.03-.67-.08-1.29-.19-1.36-.98l.1-55.63-.37-.55-14.32-.26c-.09-.04-.36-.33-.36-.36V1.17l.27-.27h0Z"/>
  <path d="M274.09.9c.08.33.16.63.19.98.12,1.57.19,5.17,0,6.67-.04.31-.07.55-.37.71l-14.58.18-.28.44c-.12,18.13-.11,36.27-.09,54.4,0,.9.6,2.19-.81,2.41-1.33.21-5.23.15-6.65.02-.52-.05-.93-.1-1.25-.55l-.12-56.33-.37-.35-14.35-.22c-.3-.17-.33-.41-.37-.71-.19-1.5-.12-5.09,0-6.67.03-.35.11-.65.19-.98h38.87-.01Z"/>
  <path d="M362.4,1.12l.08,56.28.94.68,24.45.02c.19.06.27.21.35.37.24.51.23,6.34.13,7.24-.03.33-.06.73-.4.87h-33.93l-.5-.59-.07-64.46c.09-.49.34-.58.8-.64,1.57-.21,5.56-.14,7.21,0,.33.03.66.03.94.23Z"/>
  <path d="M602.81.94c1.28.13,7.82-.37,8.44.13.15.12.22.29.25.47v63.83c.03.72-.26,1.21-1,1.33-1.28.2-5.47.15-6.81,0-.67-.08-1.29-.19-1.36-.98l.08-64.44.4-.32v-.02Z"/>
</svg>