<?xml version="1.0" encoding="UTF-8"?>
<svg id="Layer_1" data-name="Layer 1" xmlns="http://www.w3.org/2000/svg" viewBox="0 0 59.52 10.56">
  <defs>
    <style>
      .cls-1 {
        isolation: isolate;
      }
    </style>
  </defs>
  <g id="w-full1">
    <g id="reversed-link1">
      <g class="cls-1" text-rendering="auto">
        <g class="cls-1">
          <path d="M5.39.01c.5,0,.95.04,1.37.13s.8.21,1.15.37c.35.16.67.36.97.59.3.23.58.49.85.79l-1.34,1.33c-.43-.45-.88-.79-1.37-1.02s-1.02-.35-1.62-.35c-.5,0-.97.09-1.39.27s-.79.43-1.1.73c-.31.31-.55.67-.72,1.08s-.26.85-.26,1.32.09.94.28,1.37.44.79.76,1.11.7.56,1.14.73c.44.18.91.27,1.41.27.67,0,1.23-.14,1.68-.41s.81-.71,1.08-1.29h-2.91v-1.82h5.07c0,.83-.12,1.56-.36,2.22s-.57,1.22-1.01,1.69c-.43.47-.96.83-1.58,1.08s-1.3.38-2.06.38c-.84,0-1.6-.14-2.27-.43s-1.24-.68-1.71-1.16c-.47-.48-.83-1.05-1.08-1.7-.25-.65-.38-1.33-.38-2.04s.13-1.38.39-2.01c.26-.63.63-1.18,1.11-1.66.48-.48,1.04-.85,1.71-1.13C3.87.15,4.6.01,5.39.01Z"/>
          <path d="M15.07.25h1.93l3.88,10.05h-1.99l-.77-2.07h-4.17l-.77,2.07h-1.99L15.07.25ZM14.66,6.36h2.76l-1.39-3.7-1.37,3.7Z"/>
          <path d="M21.72.25h5.56v1.88h-1.85v8.18h-1.92V2.13h-1.79V.25Z"/>
          <path d="M31.87.25h1.93l3.88,10.05h-1.99l-.77-2.07h-4.17l-.77,2.07h-1.99L31.87.25ZM31.46,6.36h2.76l-1.39-3.7-1.37,3.7Z"/>
          <path d="M39.02,5.26c0-.79.14-1.51.43-2.16.28-.65.67-1.2,1.16-1.66.49-.46,1.06-.81,1.71-1.06.65-.25,1.33-.38,2.05-.38.82,0,1.61.18,2.37.53.76.35,1.41.85,1.96,1.49l-1.34,1.29c-.45-.49-.92-.85-1.41-1.1-.5-.25-1.03-.37-1.61-.37-.48,0-.92.09-1.34.26s-.78.41-1.08.71c-.31.3-.55.67-.74,1.08-.18.42-.27.88-.27,1.37s.09.98.27,1.41c.18.43.42.79.73,1.09.31.3.67.53,1.1.7s.88.25,1.38.25c.62,0,1.17-.12,1.63-.37.46-.25.93-.61,1.41-1.08l1.3,1.36c-.34.33-.66.61-.98.85-.32.24-.65.44-.99.6-.35.16-.71.28-1.1.36-.39.08-.82.12-1.3.12-.78,0-1.5-.13-2.16-.39s-1.22-.62-1.69-1.09c-.47-.47-.83-1.02-1.09-1.67s-.38-1.36-.38-2.13Z"/>
          <path d="M53.71.25h1.93l3.88,10.05h-1.99l-.77-2.07h-4.17l-.77,2.07h-1.99L53.71.25ZM53.31,6.36h2.76l-1.39-3.7-1.37,3.7Z"/>
        </g>
      </g>
    </g>
  </g>
</svg>