<?xml version="1.0" encoding="UTF-8"?>
<svg id="Layer_1" xmlns="http://www.w3.org/2000/svg" version="1.1" viewBox="0 0 331.38 71.83">
  <!-- Generator: Adobe Illustrator 30.0.0, SVG Export Plug-In . SVG Version: 2.1.1 Build 123)  -->
  <defs>
    <style>
      .st0 {
        fill: #ab1938;
      }

      .st1 {
        fill: #c8c7c7;
      }

      .st2 {
        fill: #d9a30d;
      }
    </style>
  </defs>
  <path class="st2" d="M41.97,5.24c-.23.02-.57.03-.94.09h-.06c-.06.03-.14.06-.25.06-.77.11-1.64.32-2.5.6-1.09.35-2.21.83-3.32,1.42-.29.15-.57.31-.85.48-2.56,1.49-5.04,3.52-7.4,6.06-2.76,2.97-5.25,6.54-7.41,10.6-.37.71-.75,1.46-1.12,2.22-1.02,2.12-1.9,4.26-2.62,6.35-.19.54-.36,1.07-.52,1.61.75,1.52,3.15,6.37,4.84,9.34.27-1.29.59-2.61.96-3.94,1.05-3.69,2.5-7.4,4.31-11.04,2.78-5.58,6.21-10.58,9.95-14.43,3.36-3.47,6.84-5.89,10.06-6.98.02,0,.05-.02.07-.03-1.16-1.95-3.12-2.41-3.21-2.43"/>
  <path class="st1" d="M38.44,25.16c-1.26-2.38-2.71-4.7-4.23-6.76-.95,1.01-2.59,2.99-4.42,6.19.9,1.5,1.93,3.38,2.8,5.11,1.8,3.64,3.25,7.35,4.3,11.05.29,1.05.56,2.11.79,3.16,1.95-2.83,3.8-6.7,4.86-9.05-.12-.37-.23-.75-.36-1.13-.72-2.09-1.6-4.23-2.62-6.35-.37-.78-.75-1.52-1.12-2.21"/>
  <path class="st1" d="M36.51,63.62c.72-.37,1.31-.72,1.86-1.12.29-.2.57-.42.86-.66-1.11.24-2.05.22-2.8.1l-.11-.03c-1.41-.25-2.89-.79-4.4-1.62-3.89-2.13-7.9-6.05-11.61-11.31-1.35-1.93-2.65-4.02-3.86-6.22-.61-1.13-1.21-2.28-1.75-3.42-.72-1.5-1.39-3.02-1.99-4.51-1.95-4.84-3.19-9.42-3.65-13.61-.38-3.42-.26-6.55.37-9.28.27-1.31.65-2.51,1.14-3.55.02-.06.49-1.15,1.37-2.16-.13.03-.26.06-.4.1-.7.19-1.42.45-2.15.76-1.08.46-2.02.95-2.87,1.49-.84.53-1.59,1.12-2.25,1.75-.45.43-.88.93-1.28,1.47-.75,1.02-1.4,2.2-1.91,3.54-.32.83-.6,1.71-.82,2.63-.3,1.23-.49,2.57-.6,3.98-.21,2.81-.02,5.85.56,9.03.56,3.04,1.48,6.17,2.73,9.32.5,1.27,1.07,2.58,1.7,3.89.27.56.54,1.11.82,1.65.78,1.52,1.64,3.01,2.54,4.42,2.25,3.52,4.76,6.55,7.47,9,1.58,1.43,3.22,2.65,4.87,3.63.67.4,1.34.76,2.01,1.07.86.41,1.72.75,2.56,1.02,1.36.43,2.69.67,3.95.72.69.03,1.35,0,1.97-.08.88-.11,1.76-.32,2.72-.67.91-.32,1.86-.74,2.97-1.32"/>
  <path class="st1" d="M27.15,10.91c-1.16-.93-2.31-1.72-3.51-2.42-.29-.17-.57-.32-.85-.47-1.09-.58-2.21-1.06-3.32-1.42-.89-.29-1.75-.49-2.6-.61l-.63-.09c-.15-.02-.3-.02-.49-.03-.39.08-1.99.5-3.12,2.45,3.21,1.09,6.67,3.5,10.02,6.96.11.11.2.22.29.32.93-1.22,2.66-3.23,4.21-4.68"/>
  <path class="st2" d="M52.24,45.21c.28-.54.55-1.09.82-1.65.62-1.29,1.2-2.59,1.7-3.89,1.26-3.15,2.17-6.29,2.73-9.32.59-3.17.78-6.21.57-9.03-.11-1.4-.31-2.73-.6-3.97-.22-.91-.49-1.8-.81-2.64-.51-1.32-1.15-2.51-1.92-3.53-.4-.55-.83-1.03-1.28-1.46-.66-.63-1.41-1.22-2.25-1.76-.86-.55-1.8-1.03-2.87-1.5-.72-.3-1.44-.56-2.15-.75-.11-.03-.21-.06-.32-.08.9,1.04,1.29,2.13,1.31,2.21.46.97.85,2.18,1.12,3.51.63,2.72.75,5.84.37,9.27-.47,4.2-1.7,8.77-3.65,13.6-.59,1.47-1.26,2.99-1.99,4.51-.57,1.17-1.16,2.33-1.76,3.43-1.21,2.19-2.5,4.29-3.86,6.21-2.32,3.3-4.75,6.06-7.26,8.22,1.09.87,3.39,2.55,5.31,3.1,2.47.7,6.09-.43,8.34-2.56l.12-.11c2.11-2.16,4.05-4.64,5.81-7.39.89-1.41,1.75-2.9,2.54-4.42"/>
  <path d="M75.9,66.72l-3.88-14.65h3.09l2.72,11.73h.04l2.51-11.73h3.98l2.59,11.73h.04l2.75-11.73h2.85l-3.82,14.65h-3.77l-2.64-11.73h-.04l-2.61,11.73h-3.79Z"/>
  <path d="M93.61,61.39c0-1.75.55-3.15,1.65-4.21,1.03-1.02,2.36-1.52,4-1.52s3,.51,4.07,1.55c1.07,1.04,1.61,2.43,1.61,4.18,0,1.61-.51,2.92-1.5,3.95-1.03,1.08-2.42,1.63-4.19,1.63s-3.11-.55-4.15-1.63c-.99-1.03-1.49-2.34-1.49-3.95ZM96.54,61.05c0,2.5.91,3.74,2.71,3.74s2.76-1.24,2.76-3.74c0-.89-.24-1.64-.68-2.22-.5-.66-1.19-.99-2.07-.99s-1.54.33-2.03,1c-.45.58-.68,1.33-.68,2.21"/>
  <path d="M107.25,66.72v-10.81h2.5v2.45h.05c.06-.59.37-1.17.9-1.74.6-.65,1.29-.96,2.06-.96.37,0,.68.02.87.08v2.82c-.29-.14-.7-.21-1.28-.21-.99,0-1.65.55-1.99,1.62-.19.6-.29,1.53-.29,2.78v3.97h-2.82Z"/>
  <path d="M115.48,66.72h2.81v-15.74h-2.81v15.74Z"/>
  <path d="M128.55,66.72v-1.21h-.1c-.78.97-1.88,1.47-3.3,1.47-1.53,0-2.69-.57-3.47-1.75-.69-.98-1.03-2.29-1.03-3.93s.35-2.94,1.04-3.94c.79-1.12,1.95-1.69,3.51-1.69,1.34,0,2.41.5,3.25,1.5v-6.19h2.81v15.75h-2.71ZM123.58,61.29c0,.9.17,1.68.52,2.3.4.79,1.03,1.2,1.87,1.2s1.51-.39,1.95-1.18c.35-.63.54-1.42.54-2.32s-.19-1.65-.59-2.3c-.46-.75-1.1-1.14-1.93-1.14s-1.45.39-1.86,1.17c-.33.62-.5,1.38-.5,2.27"/>
  <path d="M146.73,56.06l-.19,2.12c-.9-.31-1.74-.45-2.53-.45-1.1,0-1.65.39-1.65,1.2,0,.43.41.79,1.27,1.07,1.25.4,2.04.72,2.36.94.84.57,1.26,1.39,1.26,2.52,0,1.18-.48,2.08-1.41,2.7-.81.54-1.85.81-3.13.81-.97,0-2.03-.15-3.2-.46l.18-2.32c.95.49,1.87.72,2.77.72.46,0,.85-.09,1.2-.26.44-.23.65-.57.65-1.06,0-.55-.41-.98-1.26-1.26-1.41-.47-2.18-.76-2.39-.85-.83-.52-1.25-1.35-1.25-2.46s.44-1.96,1.3-2.56c.78-.53,1.75-.79,2.94-.79.8,0,1.82.13,3.07.39"/>
  <path d="M156.44,66.72v-8.74h-2.09v-2.06h2.09v-1.52c0-1.12.29-2,.89-2.67.6-.67,1.45-1.01,2.54-1.01.71,0,1.38.07,2.06.23l-.23,2.34c-.44-.26-.84-.4-1.21-.4-.83,0-1.23.56-1.23,1.67v1.35h2.44v2.06h-2.44v8.74h-2.81Z"/>
  <path d="M164.21,58.89l-.08-2.42c1.18-.55,2.44-.81,3.76-.81,1.63,0,2.8.35,3.55,1.07.74.72,1.1,1.88,1.1,3.48v1.38c0,.72.01,1.63.05,2.7.01.77.06,1.57.14,2.42h-2.48c-.03-.14-.07-.68-.12-1.62h-.04c-.32.58-.79,1.03-1.41,1.35-.62.35-1.26.52-1.93.52-1.02,0-1.9-.28-2.6-.83-.79-.6-1.18-1.4-1.18-2.38,0-1.44.62-2.49,1.85-3.08.84-.43,2.06-.64,3.62-.64h1.56c0-.85-.19-1.45-.57-1.79-.39-.35-1.01-.52-1.86-.52-1.19,0-2.31.39-3.34,1.17ZM165.65,63.59c0,.89.59,1.32,1.78,1.32,1.11,0,1.89-.52,2.29-1.55.18-.42.26-.98.26-1.63h-1.22c-2.08,0-3.12.62-3.12,1.86"/>
  <path d="M178.19,66.72l-4.01-10.81h3.02l2.7,7.88h.03l2.61-7.88h2.81l-3.99,10.81h-3.17Z"/>
  <path d="M186.41,61.39c0-1.75.53-3.15,1.63-4.21,1.03-1.02,2.37-1.52,4.01-1.52s3,.51,4.07,1.55c1.06,1.04,1.6,2.43,1.6,4.18,0,1.61-.49,2.92-1.48,3.95-1.04,1.08-2.43,1.63-4.19,1.63s-3.12-.55-4.16-1.63c-.99-1.03-1.48-2.34-1.48-3.95ZM189.34,61.05c0,2.5.9,3.74,2.71,3.74s2.74-1.24,2.74-3.74c0-.89-.22-1.64-.67-2.22-.5-.66-1.19-.99-2.07-.99s-1.55.33-2.04,1c-.45.58-.66,1.33-.66,2.21"/>
  <path d="M209.93,55.92v10.8h-2.66v-1.47h-.04c-.95,1.15-2.13,1.72-3.57,1.72-1.23,0-2.14-.4-2.77-1.21-.6-.73-.89-1.73-.89-3.02v-6.81h2.82v5.76c0,.96.07,1.65.22,2.07.28.69.81,1.04,1.61,1.04.9,0,1.57-.42,1.98-1.29.32-.62.49-1.4.49-2.3v-5.29h2.82Z"/>
  <path d="M212.94,66.72v-10.81h2.49v2.45h.05c.06-.59.36-1.17.89-1.74.61-.65,1.3-.96,2.05-.96.4,0,.68.02.87.08v2.82c-.26-.14-.68-.21-1.26-.21-.99,0-1.66.55-1.99,1.62-.2.6-.29,1.53-.29,2.78v3.97h-2.81Z"/>
  <path d="M223.97,53.95h-2.82v-2.69h2.82v2.69ZM221.15,55.92h2.82v10.81h-2.82v-10.81Z"/>
  <path d="M227.95,63.48v-5.5h-2.09v-2.06h2.09v-2.17l2.81-.9v3.08h2.49v2.06h-2.49v5.04c0,1.19.44,1.78,1.32,1.78.55,0,.97-.1,1.28-.3l.08,2.22c-.58.17-1.27.25-2.07.25-1.1,0-1.94-.32-2.52-.93-.6-.61-.89-1.48-.89-2.56"/>
  <path d="M243.9,63.83v2.3c-1.04.57-2.28.85-3.71.85-1.81,0-3.19-.49-4.17-1.47-1-.98-1.47-2.36-1.47-4.14,0-1.65.41-3,1.25-4.03.89-1.12,2.16-1.67,3.76-1.67,1.89,0,3.24.6,4.08,1.84.71,1.04,1.08,2.62,1.08,4.67h-7.48c.05.86.37,1.52.92,2.02.56.48,1.28.72,2.16.72,1.09,0,2.27-.37,3.59-1.08ZM237.23,60.25h4.77c-.09-1.69-.85-2.52-2.27-2.52-1.51,0-2.35.83-2.5,2.52"/>
  <path d="M251.14,71.21l.11-2.01c.78-.03,1.28-.21,1.49-.51.14-.23.22-.74.22-1.54v-11.23h2.83v11.61c0,2.58-1.1,3.85-3.26,3.85-.55,0-1.01-.06-1.38-.17ZM252.95,51.25h2.83v2.69h-2.83v-2.69ZM252.95,53.94v-2.69,2.69Z"/>
  <path d="M267.43,63.83v2.3c-1.04.57-2.29.85-3.72.85-1.79,0-3.19-.49-4.17-1.47-.98-.98-1.47-2.36-1.47-4.14,0-1.65.42-3,1.26-4.03.89-1.12,2.15-1.67,3.76-1.67,1.9,0,3.25.6,4.08,1.84.71,1.04,1.08,2.62,1.08,4.67h-7.47c.05.86.36,1.52.92,2.02.56.48,1.27.72,2.16.72,1.09,0,2.28-.37,3.58-1.08ZM260.77,60.25h4.77c-.11-1.69-.86-2.52-2.29-2.52-1.51,0-2.33.83-2.48,2.52"/>
  <path d="M272.95,66.72l-3.66-10.81h2.99l2.39,7.98h.03l2.19-7.98h3.28l2.36,7.98h.03l2.25-7.98h2.7l-3.32,10.81h-3.33l-2.35-8.25h-.04l-2.3,8.25h-3.22Z"/>
  <path d="M297.88,63.83v2.3c-1.03.57-2.27.85-3.71.85-1.78,0-3.17-.49-4.16-1.47-1-.98-1.49-2.36-1.49-4.14,0-1.65.43-3,1.26-4.03.89-1.12,2.16-1.67,3.77-1.67,1.89,0,3.24.6,4.07,1.84.72,1.04,1.08,2.62,1.08,4.67h-7.48c.05.86.36,1.52.92,2.02.57.48,1.29.72,2.16.72,1.1,0,2.3-.37,3.59-1.08ZM291.23,60.25h4.77c-.09-1.69-.86-2.52-2.29-2.52s-2.33.83-2.48,2.52"/>
  <path d="M301.02,66.72h2.81v-15.74h-2.81v15.74Z"/>
  <path d="M306.92,66.72h2.81v-15.74h-2.81v15.74Z"/>
  <path d="M321.43,63.83v2.3c-1.03.57-2.28.85-3.71.85-1.79,0-3.18-.49-4.18-1.47-.98-.98-1.47-2.36-1.47-4.14,0-1.65.43-3,1.26-4.03.9-1.12,2.15-1.67,3.76-1.67,1.89,0,3.26.6,4.08,1.84.72,1.04,1.08,2.62,1.08,4.67h-7.48c.06.86.37,1.52.92,2.02.56.48,1.29.72,2.16.72,1.09,0,2.29-.37,3.59-1.08ZM314.76,60.25h4.78c-.1-1.69-.86-2.52-2.28-2.52-1.52,0-2.34.83-2.5,2.52"/>
  <path d="M324.54,66.72v-10.81h2.5v2.45h.03c.07-.59.37-1.17.91-1.74.6-.65,1.29-.96,2.07-.96.38,0,.66.02.85.08v2.82c-.27-.14-.68-.21-1.25-.21-1.01,0-1.67.55-2.01,1.62-.19.6-.29,1.53-.29,2.78v3.97h-2.81Z"/>
  <path d="M134.41,57.32h2.56v-5.25h-2.56v5.25Z"/>
  <path class="st0" d="M178.7-.24l.09,1.2c.23,8.12.34,16.43.34,24.68,0,5.22-.05,10.51-.14,15.71l.03,1.1h7.77s-.04-1.03-.04-1.11c-.19-8.39-.46-18.14-.46-27.64,0-4.62.05-8.79.15-12.79,0-.05.09-1.15.09-1.15h-7.83Z"/>
  <path class="st0" d="M188.6,10.14s.09.72.09,1.09c0,.25.12,4.67.12,7.14,0,1.9-.03,3.78-.03,5.58-.02,1.65-.03,3.2-.03,4.58s.02,2.68.06,3.68c.44,8.96,7.33,10.84,13.01,10.84,4.51,0,8.16-1.43,10.45-3.9,0,.65-.03,3.27-.03,3.27h7.23s-.04-1.21-.04-1.21c-.45-10.14-.06-29.35-.03-29.89.03-.53.08-1.2.08-1.2h-7.67s.05.84.08,1.15c.03.33,0,0,0,0l.07,2.73c.14,4.63.29,10.39-.03,14.1-.47,5.72-3.47,8.63-8.89,8.63-4.23,0-6.67-2.18-6.87-6.16-.08-1.72-.13-3.58-.13-5.66l.15-6.65s.17-6.55.2-7.01c.03-.45.08-1.12.08-1.12h-7.85Z"/>
  <path class="st0" d="M248.19,10.24l-1.14,1.15c-8.92,9.78-11.28,12.38-12.13,13.27,12.88,14.63,15.41,17.76,15.41,17.76h-8.82l-.3-.4c-2.7-3.56-5.7-7.02-8.6-10.35,0,0-3.26-3.83-3.8-4.48.03.93.4,15.25.4,15.25h-7.63l.03-.58c.09-.59.14-11.57.14-11.57,0-10.85-.61-29-.63-29.32-.04-1.03-.09-1.21-.09-1.21h7.82s-.09.85-.09,1.11c0,.47-.07,14.64-.07,14.64,0,0,.11,5.9.11,6.73,1.43-1.68,1.32-1.75,2.01-2.44l.46-.52c2.47-2.76,5.03-5.63,7.3-8.63.13-.16.34-.4.34-.4h9.29Z"/>
  <path class="st0" d="M278.6,10.24l-1.14,1.15c-8.91,9.78-11.29,12.38-12.14,13.27,12.89,14.63,15.41,17.76,15.41,17.76h-8.83l-.29-.4c-2.69-3.56-5.7-7.02-8.61-10.35,0,0-3.25-3.83-3.79-4.48.02.93.4,15.25.4,15.25h-7.62v-.58c.11-.59.16-11.57.16-11.57,0-10.85-.61-29-.62-29.32-.05-1.03-.09-1.21-.09-1.21h7.82s-.1.85-.1,1.11c0,.47-.07,14.64-.07,14.64,0,0,.11,5.9.11,6.73,1.44-1.68,1.31-1.75,2-2.44l.48-.52c2.47-2.76,5.03-5.63,7.3-8.63.13-.16.34-.4.34-.4h9.29Z"/>
  <path class="st0" d="M151.7,11.03c-.35.09-.82.26-.82.26l-.6,6.59s1.09-.51,1.9-.82c.84-.31,5.71-2.29,10.34-2.24,2.21.03,5.94.42,6.06,3.25.07,1.31-.71,2.21-2.51,2.96-.86.33-1.91.64-3.31.95l-2.84.6-1.15.23c-5.71,1.26-11.78,3.2-11.42,10.41.38,7.53,7.02,9.2,12.51,9.23l16.44-.04s-.23-10.45-.22-14.51v-.1c0-3.83,0-7.45-.09-9.54-.2-4.12-1.85-8.83-12.97-8.83-3.65,0-8.23.79-11.32,1.61ZM154.44,32.8c0-2.49,2.39-3.62,5.98-4.55l2.36-.57,3.29-.81c1.24-.35,2.25-.83,2.81-1.1v2.13l.03,4.73c0,.38-.02,1.36-.04,4.07-.34,0-8.25-.06-8.25-.06-1.79,0-5.98-.34-6.17-3.6v-.22Z"/>
  <path class="st0" d="M282.32,11.06l-.73.19s-.1,1.09-.54,5.54l-.11,1.31s.65-.39.98-.56c.41-.2,5.12-2.65,11.31-2.7,2.21-.01,5.94.42,6.06,3.25v.2c0,1.2-.77,2.04-2.53,2.76-.86.34-1.92.63-3.31.95l-2.88.61s-1.09.23-1.09.23c-5.53,1.21-11.43,3.08-11.43,9.84v.55c.38,7.47,6.93,9.14,12.34,9.2l16.07.02h.51s0-1.16,0-1.16c-.18-3.68-.18-8.85-.16-13.4v-.1c0-3.45.02-7.34-.1-9.5-.19-4.1-1.86-8.82-12.99-8.82-3.64,0-7.36.53-11.4,1.61ZM285.2,32.87c0-2.48,2.39-3.61,5.97-4.54l2.41-.58,3.27-.8c1.15-.39,2.1-.78,2.9-1.17,0,.24-.11,10.65-.11,10.99-.34,0-8.41-.06-8.41-.06-2.18,0-5.86-.46-6.03-3.59v-.25Z"/>
  <path class="st0" d="M317.73,17.6c-.14.92.54,2,1.72,3.17.6.6,1.31,1.17,1.98,1.69l2.37,1.75c3.5,2.58,6.93,5.45,7.13,9.67.1,2.15-.53,3.96-1.88,5.38-2.63,2.77-7.07,3.19-9.47,3.19h-1.05s-3.37,0-3.37,0c-5.14-.04-6.31-.03-6.31-.03v-5.76s10.99,0,10.99,0c1.45,0,2.5-.32,3.1-.98.55-.58.6-1.3.6-1.58v-.1c-.04-.94-.61-1.91-1.79-3.07-.56-.52-1.22-1.06-1.99-1.66l-1.59-1.19-.78-.57c-3.63-2.65-6.9-5.36-7.09-9.37l-.03-.48c0-2.04.69-3.82,1.98-5.18,1.87-1.98,5-3.01,9.04-3.01,2.55,0,5.14.38,7.59.8.24.06.76.19.76.19l.57,6.71s-11.73-4.34-12.45.44"/>
  <path class="st0" d="M79.43-.44l.03,1.17c.31,12,.29,27.85.26,31.29-.03,2.62-1.07,3.68-3.6,3.68-1.03,0-3.12-.18-4.08-.46-.89-.26-1.03-.34-1.03-.34v3.57l-.02,3.68s2.79.63,5.93.69c3.14.23,5.66-.56,7.5-2.35,3.19-3.13,2.95-8.34,2.95-8.39,0-.16-.61-17.91-.28-31.37l.03-.58.04-.58h-7.22s-.5,0-.5,0Z"/>
  <path class="st0" d="M93.51,13.91c-2.72,3.01-4.09,7-4.09,11.81s1.35,8.9,4.06,11.9c2.79,3.1,6.63,4.68,11.43,4.68s8.63-1.58,11.43-4.68c2.69-3,4.05-7,4.05-11.9s-1.36-8.79-4.05-11.81c-2.82-3.16-6.68-4.77-11.44-4.77s-8.6,1.61-11.4,4.77ZM96.37,25.72c0-2.95.7-5.31,2.15-7.25,1.53-2.02,3.68-3.04,6.38-3.04s4.85,1.03,6.38,3.04c1.43,1.93,2.16,4.36,2.16,7.25s-.67,5.29-2.08,7.22c-1.51,2.05-3.68,3.09-6.45,3.09s-4.94-1.04-6.45-3.09c-1.4-1.93-2.08-4.28-2.08-7.22"/>
  <path class="st0" d="M115.45,9.28l1.06,1.44c4.46,5.8,8.54,11.59,12.48,17.72-.06.94-.09,3.75-.16,12.77h0c0,.08-.03,1.03-.03,1.03h7.78l-.05-2.1s-.23-11.6-.23-11.71c4.44-6.75,12.84-17.59,13.2-18.03l.82-1.12h-9.19s-6.87,9.79-8.49,12.07c-.27-.41-4.9-7.43-4.9-7.43l-3.03-4.65h-9.26Z"/>
</svg>