<?xml version="1.0" encoding="UTF-8"?>
<svg id="Layer_1" xmlns="http://www.w3.org/2000/svg" version="1.1" viewBox="0 0 225.11 136.37">
  <!-- Generator: Adobe Illustrator 30.0.0, SVG Export Plug-In . SVG Version: 2.1.1 Build 123)  -->
  <defs>
    <style>
      .st0 {
        fill: #221f1f;
      }

      .st1 {
        fill: #e02b2a;
      }

      .st2 {
        fill: #ffa923;
      }

      .st3 {
        fill: #fff;
      }

      .st4 {
        fill: #231f20;
      }
    </style>
  </defs>
  <g>
    <g>
      <path class="st3" d="M134.43.5h-43.74c-8.37,0-15.16,6.79-15.16,15.16v53.65c0,1.07.11,2.08.31,3.06,0,0,0,0,0,0,.1.48.22.95.36,1.41.06.2.14.4.21.6.09.24.16.48.26.72.16.38.34.75.52,1.11.02.03.03.07.05.1.82,1.57,1.91,2.97,3.2,4.16.05.04.09.08.14.13.22.2.45.4.68.58,2.07,1.7,4.51,2.62,6.73,3.3,2.15.65,4.91,1.75,7.32,3,.08.05.17.1.26.16l1.52,1.04c5.49,4.06,9.34,10.22,10.34,17.3h10.27c1.15-8.13,8.66-16.43,12.87-18.95,2.45-1.46,4.49-1.95,6.56-2.55,2.23-.64,4.66-1.6,6.73-3.3.23-.19.46-.38.68-.58.05-.04.09-.08.14-.13,1.29-1.19,2.38-2.59,3.2-4.16.02-.03.03-.07.05-.1.19-.36.37-.73.52-1.11.1-.23.18-.48.26-.72.07-.2.15-.39.21-.6.14-.46.26-.93.36-1.41,0,0,0,0,0,0,.2-.97.31-1.99.31-3.06V15.66c0-8.37-6.79-15.16-15.16-15.16Z"/>
      <path d="M118.12,106.47h-11.14l-.06-.43c-.95-6.72-4.65-12.91-10.15-16.97l-1.74-1.17c-2.17-1.13-4.88-2.24-7.2-2.95-2.05-.62-4.68-1.57-6.9-3.39-.24-.19-.47-.39-.7-.6l-.15-.13c-1.35-1.24-2.46-2.69-3.3-4.29l-.05-.11c-.19-.38-.38-.76-.54-1.15-.07-.17-.14-.36-.2-.54l-.15-.4c-.05-.14-.1-.27-.15-.41-.15-.48-.27-.97-.37-1.46-.21-1.04-.32-2.1-.32-3.16V15.66c0-8.64,7.03-15.66,15.66-15.66h43.74c8.64,0,15.66,7.03,15.66,15.66v53.65c0,1.06-.11,2.12-.32,3.16-.1.49-.23.98-.38,1.46-.04.14-.09.28-.15.42l-.14.4c-.06.18-.13.36-.2.54-.16.39-.35.77-.54,1.15l-.05.11c-.84,1.6-1.95,3.05-3.3,4.29l-.09.08c-.29.26-.52.46-.76.65-1.8,1.47-3.99,2.55-6.9,3.39l-.64.18c-1.8.51-3.67,1.04-5.81,2.32-3.92,2.34-11.49,10.55-12.63,18.59l-.06.43ZM107.85,105.47h9.41c1.34-7.95,8.49-16.16,13.04-18.88,2.25-1.34,4.18-1.89,6.05-2.42l.63-.18c2.78-.8,4.86-1.82,6.55-3.21.23-.18.45-.38.66-.57l.13-.12c1.27-1.17,2.31-2.52,3.1-4.02l.49.13-.45-.23c.18-.35.35-.71.51-1.08.07-.16.12-.32.18-.49l.15-.42c.04-.12.09-.24.13-.36.14-.45.26-.91.35-1.36.2-.97.3-1.96.3-2.96V15.66c0-8.08-6.58-14.66-14.66-14.66h-43.74c-8.08,0-14.66,6.58-14.66,14.66v53.65c0,.99.1,1.99.3,2.96.09.46.21.92.35,1.36.04.12.08.24.13.36l.15.43c.06.16.11.33.18.49.15.37.33.73.51,1.08l-.4.33.44-.23c.78,1.5,1.82,2.85,3.09,4.02l.14.13c.21.19.43.38.65.56,2.09,1.71,4.6,2.62,6.56,3.21,2.38.73,5.15,1.86,7.4,3.04l.29.18,1.53,1.05c5.61,4.14,9.41,10.39,10.49,17.21Z"/>
    </g>
    <g>
      <path class="st1" d="M133.76,3.31h-42.4c-6.96,0-12.6,5.64-12.6,12.6v52.83c0,6.96,4.34,10.6,11.94,13.11,1.5.5,3.51,1.17,4.71,1.84s8.19,4.1,11.23,10.88h11.71s3.46-6.59,10.06-10.26c2.65-1.47,4.74-2.18,6.02-2.47,7.8-1.78,11.94-6.15,11.94-13.11V15.92c0-6.96-5.64-12.6-12.6-12.6Z"/>
      <path d="M118.34,95.08h-12.03l-.13-.29c-1.85-4.12-5.46-7.65-10.73-10.49l-.3-.16c-1.2-.67-3.26-1.35-4.63-1.8-8.61-2.84-12.28-6.91-12.28-13.59V15.92c0-7.23,5.88-13.1,13.1-13.1h42.4c7.22,0,13.1,5.88,13.1,13.1v52.83c0,7.16-4.15,11.74-12.33,13.6-.97.22-3.02.83-5.89,2.42-6.38,3.54-9.82,9.99-9.86,10.05l-.14.27h-.3ZM106.96,94.08h11.09c.74-1.3,4.14-6.88,10.11-10.19,2.98-1.65,5.13-2.29,6.15-2.52,7.66-1.75,11.55-5.99,11.55-12.63V15.92c0-6.67-5.43-12.1-12.1-12.1h-42.4c-6.67,0-12.1,5.43-12.1,12.1v52.83c0,6.17,3.47,9.95,11.6,12.64,1.4.46,3.52,1.16,4.8,1.88l.28.16c5.34,2.88,9.05,6.47,11.03,10.67Z"/>
    </g>
  </g>
  <g id="Handle">
    <rect class="st0" x="106" y="132.98" width="13.05" height="3.39" rx=".66" ry=".66"/>
    <rect class="st0" x="106.72" y="104.89" width="11.62" height="3.39" rx=".66" ry=".66"/>
    <rect class="st0" x="107.62" y="108.27" width="9.81" height="25.36"/>
    <path class="st3" d="M108.51,108.15c2.52-.51,5.05-.58,7.58-.06,0,0,0,.36,0,.36-2.52.52-5.06.45-7.58-.06,0,0,0-.24,0-.24h0Z"/>
    <path class="st3" d="M108.58,111.67c2.83,1.5,5.4,3.35,7.61,5.67,0,0-.21.28-.21.28-2.84-1.49-5.33-3.46-7.54-5.77,0,0,.14-.19.14-.19h0Z"/>
    <path class="st3" d="M108.58,118.25c2.83,1.5,5.4,3.35,7.61,5.67,0,0-.21.28-.21.28-2.84-1.49-5.33-3.46-7.54-5.77,0,0,.14-.19.14-.19h0Z"/>
    <path class="st3" d="M108.58,124.83c2.83,1.5,5.4,3.35,7.61,5.67,0,0-.21.28-.21.28-2.84-1.49-5.33-3.46-7.54-5.77,0,0,.14-.19.14-.19h0Z"/>
  </g>
  <g>
    <g id="Block">
      <path class="st0" d="M219.97,23.25l-107.42,15.2L5.13,23.25c-2.71-.38-5.13,1.72-5.13,4.46v67.52c0,2.74,2.42,4.84,5.13,4.46l107.42-15.2,107.42,15.2c2.71.38,5.13-1.72,5.13-4.46V27.71c0-2.74-2.42-4.84-5.13-4.46Z"/>
    </g>
    <g id="SuperChamps">
      <path class="st2" d="M23.24,66.42v23.93c0,2.1-1.51,4.01-3.37,4.26-5.25.72-7.88,1.08-13.13,1.8-1.86.25-3.37-1.38-3.37-3.66v-36.75c1.71,4.05,8.75,8.76,8.75,10.68v18.05c0,.39.14.72.35.95.21.23.51.36.83.33.65-.06,1.18-.73,1.18-1.49v-3.52s0,0,0,0c0-4.51,0-6.76,0-11.27v-.33c0-.75,0-2.5,0-2.71-.01-2.12-1.68-3.9-4.03-6.27-.03-.03-.04-.04-.07-.07-.23-.23-.46-.46-.7-.69-2.35-2.31-6.3-6.33-6.3-13.87v-15.61c0-2.27,1.51-3.91,3.37-3.66,5.25.72,7.88,1.08,13.13,1.8,1.86.25,3.37,2.16,3.37,4.26v24.66c-2.92-5.37-8.75-9.2-8.75-10.78v-8.05c0-.38-.13-.74-.35-1.01-.21-.27-.51-.46-.83-.49-.65-.06-1.18.51-1.18,1.28h0s0,.01,0,.01v8.11c0,2.17.84,3.25,3.08,5.47.28.27.55.54.81.81.03.03.04.04.07.07,2.82,2.87,7.1,7.01,7.15,13.76h0ZM45.74,31.84v55.8c0,1.9-1.51,3.65-3.37,3.9-5.25.72-7.88,1.08-13.13,1.8-1.86.25-3.37-1.22-3.37-3.3V29.11c3.5.48,5.25.72,8.75,1.2v52.33c0,.35.13.66.35.86.21.21.51.32.83.29.65-.06,1.18-.68,1.18-1.37V30.64c3.5.48,5.25.72,8.75,1.2ZM64.87,34.46c-6.6-.9-9.9-1.36-16.5-2.26v58.52c3.5-.48,5.25-.72,8.75-1.2v-21.4c.1.16.15.25.25.41.82,1.35,1.24,2.02,2.06,3.35,2.17-.11,3.26-.17,5.43-.28,1.86-.1,3.37-1.55,3.37-3.26v-30.34c0-1.7-1.51-3.29-3.37-3.55ZM59.48,63.57c-.84-1.39-1.26-2.09-2.11-3.51-.1-.17-.15-.25-.25-.42v-18.41c.94.09,1.41.14,2.36.23v22.11ZM79.62,43.45v14.53c2.37-2.95,3.56-4.37,5.94-7.13v6.74c-2.37,2.84-3.56,4.32-5.94,7.36v14.53c2.96-.29,4.44-.44,7.41-.73v6.69c-6.46.88-9.7,1.33-16.16,2.21v-52.36c6.46.89,9.7,1.33,16.16,2.21v6.69c-2.96-.29-4.44-.44-7.41-.73ZM109.18,55.55v-12.58c0-1.34-1.51-2.64-3.37-2.89-6.6-.9-9.9-1.35-16.49-2.26v47.3c3.5-.48,5.25-.72,8.75-1.2v-17.18c.94-1.3,1.41-1.94,2.36-3.2v20.06c3.5-.48,5.25-.72,8.75-1.2v-17.84c0-1.05-.57-2.04-1.6-2.79-.95-.69-1.42-1.04-2.37-1.76.95-.7,1.42-1.04,2.37-1.71,1.02-.73,1.6-1.71,1.6-2.76ZM100.42,56.86c-.94,1.22-1.41,1.84-2.36,3.1v-14.67c.94.09,1.41.14,2.36.23v11.34ZM118.49,40.17c4-.55,6-.82,9.99-1.37,1.42-.19,2.56.85,2.56,2.32v18.86c-2.66.02-4,.04-6.66.06v-14.52c-.72.07-1.08.11-1.79.18v31.51c.72.07,1.08.11,1.79.18v-14.52c2.66.02,4,.03,6.66.06v18.87c0,1.48-1.15,2.52-2.56,2.32-4-.55-6-.82-9.99-1.37-1.41-.19-2.56-1.44-2.56-2.79v-37.01c0-1.34,1.15-2.59,2.56-2.79ZM148.14,36.12v50.7c-2.66-.37-4-.55-6.66-.91v-22.16c-.72,1.37-1.08,2.05-1.79,3.39v18.51c-2.67-.36-4-.55-6.66-.91v-46.56c2.66-.37,4-.55,6.66-.91v22.55c.72-1.37,1.08-2.06,1.79-3.46v-19.32c2.66-.36,4-.55,6.66-.91ZM162.73,34.11c-4,.55-6,.82-9.99,1.37-1.42.19-2.56,1.68-2.56,3.33v48.28c2.66.36,4,.55,6.66.91v-20.31c.72-1.47,1.08-2.22,1.79-3.72v24.28c2.66.36,4,.55,6.66.91v-52.18c0-1.78-1.15-3.06-2.56-2.87ZM158.63,55.87c-.72,1.53-1.08,2.29-1.79,3.79v-17.34c.72-.07,1.08-.11,1.79-.18v13.72ZM187.49,30.72v61.47c-2.46-.34-3.69-.51-6.15-.84v-51.45c-.82.08-1.23.12-2.04.2-.04,16.98-.08,33.97-.11,50.95-1.42-.19-2.13-.29-3.55-.49-.04-16.68-.07-33.36-.11-50.04-.82.04-1.23.05-2.05.09v49.65c-2.46-.34-3.69-.51-6.15-.84v-55.95c3.02-.41,4.53-.62,7.56-1.03,1.01.72,1.51,1.08,2.52,1.82,1.01-.99,1.51-1.49,2.52-2.51,3.02-.41,4.53-.62,7.56-1.04ZM202.05,28.73c-5.02.69-7.53,1.03-12.56,1.72v62.02c2.66.36,4,.55,6.66.91v-24.34c.08.19.11.29.19.48.63,1.6.94,2.4,1.57,4.02,1.65.09,2.48.13,4.14.21,1.42.07,2.56-1.59,2.56-3.71v-37.81c0-2.12-1.15-3.69-2.56-3.5ZM197.95,63.91c-.64-1.63-.96-2.44-1.6-4.05-.08-.19-.11-.28-.19-.47v-20.94c.72-.07,1.08-.11,1.79-.18v25.64ZM221.73,66.84v25.93c0,2.27-1.15,3.96-2.56,3.77-4-.55-6-.82-9.99-1.37-1.41-.19-2.56-2.09-2.56-4.23v-34.51c0,2.45,6.66,7.97,6.66,10.28v18.07c0,.39.1.74.26,1.01.16.27.39.45.63.47.5.05.9-.54.9-1.32v-3.58s0,0,0,0c0-4.59,0-6.88,0-11.47v-.34c0-.76,0-2.54,0-2.76-.01-2.16-1.28-4.03-3.07-6.36-.02-.03-.03-.04-.05-.07-.17-.22-.35-.45-.53-.67-1.79-2.24-4.8-5.88-4.8-12.99v-14.7c0-2.14,1.15-4.03,2.56-4.23,4-.55,6-.82,9.99-1.37,1.41-.19,2.56,1.49,2.56,3.77v26.3c-1.09-3.93-6.66-8.18-6.66-10.28v-8.19c0-.39-.1-.73-.26-.97-.16-.24-.39-.37-.63-.35-.49.05-.9.71-.9,1.48h0s0,.01,0,.01v8.12c0,2.18.64,3.15,2.34,5.26.21.26.42.52.62.78.02.03.03.04.05.07,2.15,2.78,5.4,7.12,5.44,14.44h0Z"/>
    </g>
    <g id="ChennaiBG">
      <path class="st3" d="M88.06,34.99c7.33-3.07,15.66-4.81,24.5-4.81s17.16,1.74,24.5,4.81l25.86-3.66c-13.01-10.19-30.77-16.48-50.36-16.48s-37.35,6.29-50.36,16.48l25.86,3.66Z"/>
    </g>
    <g id="ChennaiBGLines">
      <path class="st0" d="M60.48,31.08c13.44-10.34,31.82-16.73,52.07-16.73s38.63,6.39,52.07,16.73l-1.42.2-1.02.14c-12.89-9.95-30.38-16.08-49.63-16.08s-36.74,6.13-49.63,16.08l-1.73-.24-.71-.1ZM138.07,34.84c-.63-.28-1.27-.54-1.92-.79-.08-.03-.17-.07-.25-.1-.66-.25-1.32-.49-1.99-.72-.85-.3-1.71-.57-2.57-.83-.27-.08-.54-.15-.8-.23-.61-.18-1.23-.34-1.85-.5-.3-.08-.6-.15-.9-.22-.64-.15-1.28-.29-1.92-.42-.26-.05-.51-.11-.77-.16-.9-.17-1.8-.33-2.71-.47-.03,0-.07,0-.1-.01-.87-.13-1.75-.24-2.63-.33-.26-.03-.52-.05-.77-.07-.68-.06-1.35-.12-2.03-.16-.28-.02-.56-.04-.84-.05-.72-.04-1.45-.06-2.17-.08-.2,0-.41-.01-.61-.01-.95-.01-1.9,0-2.85.03,0,0,0,0-.01,0-.92.03-1.85.08-2.77.15-.22.02-.43.04-.65.05-.74.06-1.47.13-2.2.22-.23.03-.45.05-.68.08-.81.1-1.61.22-2.41.35-.12.02-.24.04-.35.06-1.88.32-3.75.73-5.59,1.22-.18.05-.35.1-.52.14-.75.21-1.49.42-2.23.66-.18.06-.37.11-.55.17-.83.27-1.65.55-2.46.86-.06.02-.11.04-.17.06-.92.35-1.83.72-2.73,1.11,0,0,0,0,0,0h0l1.96.28c.83-.33,1.67-.64,2.52-.93,13.47-4.7,28.58-4.7,42.05,0,.85.28,1.69.6,2.52.93l1.97-.28s0,0,0,0Z"/>
    </g>
    <path class="st4" d="M85.21,31.89c-3.72,1.43-5.31-.67-5.9-2.22-.05-.13-.08-.2-.13-.33-.59-1.55-.86-4.45,3.25-6.04.18-.07.27-.1.45-.17,4.34-1.64,5.49.53,5.83,1.87.01.05.02.08.03.13-1.24.38-1.85.59-3.08,1.02-.07-.16-.48-1.14-2.22-.48-1.62.62-1.45,1.82-1.24,2.45.02.05.03.07.04.12.22.64.83,1.65,2.37,1.06,1.65-.63,1.47-1.64,1.45-1.79,1.21-.43,1.81-.63,3.03-1l.04.14c.31,1.19.39,3.6-3.53,5.09-.16.06-.24.09-.41.16ZM88.51,21.4c1.24-.37,1.86-.54,3.11-.86.25,1.17.38,1.75.63,2.92,1.42-.36,2.13-.53,3.55-.82-.21-1.18-.31-1.77-.52-2.95,1.26-.26,1.89-.38,3.15-.59.49,3.48.74,5.21,1.23,8.69-1.15.19-1.72.3-2.87.54-.22-1.26-.33-1.89-.55-3.16-1.39.29-2.08.45-3.46.8.27,1.25.41,1.88.68,3.13-1.14.29-1.7.45-2.83.78-.85-3.39-1.28-5.09-2.13-8.48ZM107.61,18.1c.04.9.06,1.34.1,2.24-1.94.1-2.9.18-4.83.4.04.38.05.56.09.94,1.85-.21,2.78-.29,4.63-.39.04.92.06,1.38.11,2.3-1.81.1-2.71.17-4.52.38.04.41.06.61.1,1.02,1.87-.21,2.81-.29,4.68-.38.04.91.06,1.36.1,2.27-3,.15-4.5.31-7.47.76-.45-3.48-.68-5.22-1.14-8.7,3.24-.5,4.87-.66,8.14-.83ZM111.71,22.05c0,1.89,0,2.84.01,4.73-1.14,0-1.71.01-2.85.06-.12-3.51-.19-5.27-.31-8.78,1.3-.05,1.95-.07,3.26-.07,1.61,1.8,2.38,2.72,3.83,4.59.07-1.8.11-2.7.18-4.5,1.25.06,1.88.1,3.13.21-.25,3.5-.38,5.26-.63,8.76-1.11-.1-1.66-.13-2.78-.19-1.45-1.96-2.22-2.93-3.85-4.82ZM122.64,22.8c-.22,1.88-.33,2.81-.54,4.69-1.13-.16-1.7-.23-2.83-.34.29-3.5.44-5.25.73-8.75,1.3.13,1.95.21,3.24.39,1.39,2.01,2.04,3.03,3.27,5.09.28-1.77.43-2.66.71-4.43,1.24.24,1.85.37,3.08.65-.67,3.44-1,5.16-1.66,8.6-1.09-.25-1.64-.37-2.74-.58-1.21-2.15-1.86-3.22-3.25-5.32ZM135.93,29.41c-1.4-.47-2.1-.69-3.51-1.09-.31.45-.47.68-.77,1.14-1.13-.31-1.7-.46-2.85-.73,2-3.13,3.06-4.66,5.3-7.66,1.61.46,2.42.71,4.01,1.25.49,3.85.67,5.77.88,9.59-1.17-.46-1.76-.68-2.94-1.08-.04-.56-.07-.85-.12-1.41ZM135.4,24.15c-.67.9-1,1.35-1.66,2.27.79.23,1.18.36,1.97.61-.11-1.15-.18-1.73-.31-2.88ZM141.89,33.12c-1.09-.48-1.64-.71-2.74-1.15,1.09-3.31,1.63-4.96,2.72-8.27,1.21.48,1.82.73,3.02,1.26-1.2,3.26-1.79,4.89-2.99,8.16Z"/>
    <g id="LightningColour">
      <path class="st2" d="M56.98,108.15l24.6,9.51-73.06,13.69,46.21-16.66-23.26-6.46,56.28-13.65-30.76,13.57ZM170.03,108.15l-24.6,9.51,73.06,13.69-46.21-16.66,23.26-6.46-56.28-13.65,30.76,13.57Z"/>
    </g>
    <g id="LightningLine">
      <path class="st0" d="M8.52,131.84c-.22,0-.42-.15-.48-.37-.07-.25.07-.51.31-.6l44.74-16.12-21.75-6.04c-.22-.06-.37-.26-.37-.49,0-.23.16-.42.38-.48l56.28-13.65c.25-.06.51.08.59.33s-.04.51-.27.62l-29.66,13.08,23.47,9.07c.21.08.34.29.32.51s-.19.4-.41.45l-73.06,13.69s-.06,0-.09,0ZM33.46,108.26l21.41,5.94c.21.06.36.25.37.46,0,.22-.12.42-.33.49l-40.37,14.55,65.23-12.22-22.96-8.87c-.19-.07-.31-.25-.32-.46,0-.2.11-.39.3-.47l25.62-11.3-48.94,11.87ZM218.49,131.84s-.06,0-.09,0l-73.06-13.69c-.22-.04-.39-.22-.41-.45s.11-.43.32-.51l23.47-9.07-29.66-13.08c-.24-.1-.35-.37-.27-.62.08-.25.34-.38.59-.33l56.28,13.65c.22.05.38.25.38.48,0,.23-.15.43-.37.49l-21.75,6.04,44.74,16.12c.25.09.38.35.31.6-.06.22-.26.37-.48.37ZM147.25,117.49l65.23,12.22-40.37-14.55c-.2-.07-.34-.27-.33-.49,0-.22.16-.41.37-.46l21.41-5.94-48.94-11.87,25.62,11.3c.18.08.3.27.3.47s-.13.38-.32.46l-22.96,8.87Z"/>
    </g>
  </g>
</svg>