<?xml version="1.0" encoding="UTF-8"?>
<svg id="Layer_1" xmlns="http://www.w3.org/2000/svg" version="1.1" viewBox="0 0 81.99 69.78">
  <!-- Generator: Adobe Illustrator 30.0.0, SVG Export Plug-In . SVG Version: 2.1.1 Build 123)  -->
  <defs>
    <style>
      .st0 {
        fill: #c8ac3e;
      }
    </style>
  </defs>
  <g>
    <path class="st0" d="M53.74,20.56l1.05-1.36c.04-.05.07-.11.08-.15,0-.04.01-.09.01-.13,0-.1-.03-.2-.09-.27-.07-.08-.16-.12-.28-.12-.11,0-.19.03-.26.11-.07.07-.12.17-.13.3h-.38c0-.23.08-.42.23-.57.14-.15.32-.22.52-.22.23,0,.42.08.56.23.15.15.22.34.22.57,0,.18-.05.35-.16.49l-.87,1.12h1.03v.4h-1.54v-.37Z"/>
    <path class="st0" d="M56.16,19.32h.13c.13,0,.23-.04.31-.11.07-.07.11-.17.11-.28,0-.12-.04-.21-.11-.29-.07-.07-.17-.11-.28-.11-.08,0-.16.03-.23.08-.07.05-.12.14-.14.25h-.39c.02-.21.1-.38.24-.52.14-.14.31-.21.5-.21.24,0,.44.08.58.24.14.15.21.34.21.55,0,.11-.02.21-.06.31-.04.1-.12.19-.24.26.12.08.2.17.25.27.05.11.07.22.07.34,0,.26-.08.47-.23.62-.15.15-.35.23-.58.23-.18,0-.35-.06-.49-.18-.14-.12-.23-.3-.27-.53h.39c.03.09.08.17.15.23.06.06.15.09.25.09.11,0,.21-.04.29-.12.08-.08.12-.18.12-.32,0-.14-.04-.25-.12-.33-.08-.08-.18-.11-.3-.11h-.16v-.35Z"/>
  </g>
  <g>
    <g>
      <path class="st0" d="M60.34,33.03c.04.18-.03.19-.12.29-2.93,3.13-9.08,2.3-12.29,0-4.25-3.05-8.53-11.11-11.37-15.68C32.59,11.27,27.7.18,18.61,1.68c-.63.1-1.25.37-1.87.39,1.4-1.09,3.19-1.73,4.96-1.92,7.34-.79,10.76,4.41,14.19,9.82,3.15,4.96,5.96,10.14,9.26,15,3.46,5.09,8.22,11,15.19,8.05Z"/>
      <path class="st0" d="M60.87,19.5c.16-.73.46-1.44.66-2.18.36-1.34.6-2.78.62-4.16-1.91-.25-3.86-.17-5.75.17-3.33.59-6.57,2.26-8.83,4.78-.01.06.07.05.11.04.26-.08,1.44-1.03,1.83-1.27,3.1-1.86,6.17-2.42,9.73-2.35.44,0,.89-.01,1.33,0-.09,1.59-.4,3.17-.92,4.68-.57-.04-1.14-.07-1.71-.07-.06.06-.16.19-.19.38-.07.35.12.63.16.67.41.04.82.09,1.23.16-1.08,2.72-3,5.12-5.34,6.86-.35.26-.74.48-1.09.72-.09.06-.19,0-.14.2,3.38-1.41,6.08-4.19,7.64-7.48,1.33.25,2.54.89,3.77,1.43-2.18,3.89-6.14,6.61-10.56,7.31-.48.08-.98.07-1.45.17v-8.24c-.93.31-1.86.67-2.68,1.21l-.11,4.87c.28.53,2.31,3.05,2.75,3.07l.04-.76c1.92.16,3.89-.13,5.71-.75,3.63-1.25,6.52-3.97,8.25-7.37-.03-.36-4.37-2.16-5.04-2.08Z"/>
      <path class="st0" d="M53.38,20.35c.09-.14.09-.32,0-.44-.08-.12-.22-.15-.25-.15-.37.11-.74.24-1.11.39-1.33.54-2.61,1.34-3.71,2.27.06.11.18-.02.25-.05.88-.5,1.66-1.01,2.62-1.38.71-.28,1.44-.48,2.19-.62Z"/>
      <path class="st0" d="M29.28,28.87l-2.61-.45-.04-1.43c-2.59-1.35-4.43-3.8-5.81-6.33-.17-.11-1.49.41-1.76.51-.62.24-1.3.53-1.86.86-.05.19.91,1.51,1.1,1.76,2.92,3.81,7.84,6.02,12.65,5.6-.2.2-.74.26-1.03.29-1.51.15-3.32.01-4.8-.32-4.32-.95-8.03-3.91-9.95-7.86,1.46-1.07,3.3-1.65,5.06-2.09-.81-1.95-1.17-4.05-1.35-6.15l.12-.11c5.3-.59,10.98.99,14.46,5.17.01.06-.07.05-.11.04-.14-.03-.73-.6-.92-.74-3.47-2.55-7.63-3.34-11.89-3.11.09,1.61.44,3.21.98,4.73,3.33-.43,6.96.18,9.73,2.13.14.1.89.65.93.74.02.04.01.13-.04.11-2.94-2.02-6.77-2.47-10.24-1.89,1.02,2.51,2.66,4.65,4.76,6.35v-5.82c.88.17,1.84.26,2.65.64v7.37Z"/>
      <path class="st0" d="M31.85,24.18c-.3,6.85,6.77,12.3,13.18,9l1.18,1.08c-4.68,3-10.86,1.33-13.46-3.54-1.01-1.88-1.43-4.33-1.04-6.44.02-.12-.05-.13.15-.11Z"/>
      <path class="st0" d="M46.66,22.9l-.15-.04c.09-.11.08-.24.08-.38.03-5.12-1.39-9.45-4.73-13.34l-.6-.6c-.91,1.05-1.87,2.09-2.53,3.32-.11.02-.12-.01-.18-.08-.21-.22-.38-.85-.63-1.11.93-1.55,2.08-2.98,3.36-4.25.31-.05,2.56,3.01,2.86,3.48,2.38,3.76,3.56,8.59,2.54,12.99Z"/>
      <path class="st0" d="M23.53,35.44v-.37c2.57-.3,3.01-2.67,3.02-4.84.69.07,1.38.1,2.08.08.21,0,.41-.08.6-.08.17,0,.09,0,.11.12.33,1.92.05,3.71,2.25,4.55.23.09,1.05.15.81.47l-.08.07h-8.8Z"/>
      <path class="st0" d="M34.64,17.08l.75,1.41c.01.08-.18.3-.23.43-2.14,5.22-1.36,11.35,4.32,13.69.37.15.87.19,1.13.49-2.47-.35-4.76-1.73-6.14-3.8-2.39-3.59-1.87-8.42.01-12.11.04-.08-.04-.14.16-.11Z"/>
      <path class="st0" d="M29.28,14.28l-2.65-1.03-.07-6.68c.99,1,1.88,2.09,2.7,3.23,0,1.5-.05,2.98.02,4.48Z"/>
      <path class="st0" d="M51.95,16.32v3.25l-1.14.49-1.59.95v-3.14c0-.16.96-.69,1.16-.81.5-.28,1.02-.55,1.56-.74Z"/>
      <path class="st0" d="M29.28,16.47v3.17c-.87-.27-1.72-.68-2.65-.76v-3.25l2.65.83Z"/>
      <path class="st0" d="M39.48,31.74c-3.86-1.65-5.1-6.33-3.85-10.13l.89,1.26c-1,3.29.22,6.85,2.96,8.87Z"/>
      <path class="st0" d="M45.92.09l-.02.33c1.71.21,2.53,1.05,2.91,2.68.45,1.89.37,4.03.42,5.97v2.68s0,0,0,0v4.04c.48-.31,1.01-.57,1.49-.88.22-.14,1.15-.63,1.15-.75,0-1.38.03,0,.03-2.37l.04-3.72c.11-2.68-.38-7.26,3.26-7.66l.07-.42-9.36.09Z"/>
    </g>
    <g>
      <path class="st0" d="M17.02,39.65v14.48l-10.54-10.35v10.35h-.89v-11.16c0-1.13-.16-2.77-1.72-3.22v-.1c1.44,0,2.39.83,2.89,1.25l9.38,9.1v-10.35h.89Z"/>
      <path class="st0" d="M37.2,39.65v9.81c0,.89-.16,4.97-5.64,4.97,0,0-5.66.28-5.66-4.97v-7.79c0-.85-.55-1.58-1.76-1.92v-.1h3.94v9.81c0,4.35,3.68,4.1,3.68,4.1,1.15,0,4.55-.45,4.55-4.1v-9.81h.89Z"/>
      <path class="st0" d="M56.94,54.13h-2.45l-4.61-6.53c-.59.02-1.15.02-1.62.02v6.51h-2.18v-12.44c0-.91-.65-1.8-1.76-1.94v-.1h3.94c2.27,0,6.86-.06,6.86,4.06,0,2.31-1.4,3.3-3.01,3.72l4.83,6.71ZM52.1,46.02c.14-.16.28-.36.36-.55.12-.24.2-.49.26-.75.06-.32.08-.67.08-1.01-.1-3.15-2.53-3.36-2.97-3.36h-1.56v6.51h1.56c.26,0,.51-.02.77-.06.38-.06.75-.18,1.07-.38.16-.12.3-.24.44-.4Z"/>
      <path class="st0" d="M64.06,54.13l6.49-14.48,6.65,14.48h-2.39l-1.25-2.73h-7.3l-1.23,2.73h-.97ZM66.6,50.65h6.61l-3.34-7.28-3.26,7.28Z"/>
    </g>
  </g>
  <g>
    <path class="st0" d="M2.62,62.45h-1.54l-.27.77h-.81l1.41-3.79h.87l1.41,3.79h-.81l-.27-.77ZM2.41,61.87l-.56-1.62-.56,1.62h1.13Z"/>
    <path class="st0" d="M4.87,60v.99h1.36v.59h-1.36v1.03h1.52v.61h-2.29v-3.83h2.29v.61h-1.52Z"/>
    <path class="st0" d="M9.44,62.72c-.1.16-.24.3-.43.4-.19.1-.43.15-.7.15s-.51-.05-.73-.14c-.21-.09-.38-.23-.51-.4-.13-.17-.2-.38-.22-.61h.81c.02.16.08.29.19.39.11.1.25.15.43.15.16,0,.28-.04.37-.13s.13-.19.13-.33c0-.12-.03-.22-.1-.3s-.16-.14-.26-.19c-.1-.05-.25-.1-.43-.16-.24-.08-.43-.16-.59-.24-.15-.08-.28-.19-.39-.34s-.16-.34-.16-.58c0-.33.12-.59.36-.78.24-.19.55-.28.94-.28s.73.1.97.29c.24.2.38.46.41.78h-.83c-.02-.14-.08-.25-.17-.34-.09-.09-.22-.13-.39-.13-.14,0-.26.04-.34.11-.09.07-.13.18-.13.32,0,.11.03.21.1.28.07.07.15.13.26.18.1.05.24.1.42.16.25.09.45.17.6.24.15.08.28.19.39.34.11.15.16.35.16.6,0,.2-.05.38-.15.54Z"/>
    <path class="st0" d="M12.76,59.39v.61h-1.06v3.23h-.77v-3.23h-1.05v-.61h2.88Z"/>
    <path class="st0" d="M16.36,59.39v3.83h-.77v-1.67h-1.64v1.67h-.77v-3.83h.77v1.55h1.64v-1.55h.77Z"/>
    <path class="st0" d="M17.82,60v.99h1.36v.59h-1.36v1.03h1.52v.61h-2.29v-3.83h2.29v.61h-1.52Z"/>
    <path class="st0" d="M22.51,59.39v.61h-1.06v3.23h-.77v-3.23h-1.05v-.61h2.88Z"/>
    <path class="st0" d="M23.7,59.39v3.83h-.77v-3.83h.77Z"/>
    <path class="st0" d="M27.32,59.72c.31.25.52.58.62,1h-.8c-.08-.21-.21-.37-.39-.49-.18-.12-.39-.18-.63-.18-.2,0-.39.05-.55.15s-.29.25-.38.43c-.09.19-.14.41-.14.66s.05.47.14.66.22.33.38.43c.16.1.35.15.55.15.25,0,.46-.06.63-.18.18-.12.3-.28.39-.49h.8c-.1.42-.31.76-.62,1-.31.25-.71.37-1.19.37-.37,0-.69-.08-.97-.25-.28-.16-.5-.4-.65-.69-.15-.3-.23-.63-.23-1.01s.08-.72.23-1.02c.15-.3.37-.53.65-.69.28-.16.6-.25.97-.25.48,0,.87.12,1.19.37Z"/>
    <path class="st0" d="M32.3,63.23l-.59-.68c-.03.07-.05.13-.08.17-.07.17-.18.3-.34.4-.16.1-.35.15-.57.15-.24,0-.46-.05-.64-.15-.18-.1-.32-.24-.42-.42-.1-.18-.15-.38-.15-.6s.04-.41.13-.58c.09-.17.2-.3.35-.39.15-.09.31-.14.49-.15l-.07-.1c-.07-.1-.13-.2-.17-.3-.04-.1-.06-.21-.06-.33,0-.16.04-.3.12-.44.08-.14.2-.25.36-.33.16-.08.35-.12.58-.12.32,0,.57.07.75.22.18.14.29.33.34.56.04.11.05.22.05.35v.1h-.72c0-.09,0-.15-.01-.18,0-.13-.04-.23-.11-.3s-.16-.11-.29-.11c-.11,0-.2.03-.27.1-.07.07-.1.14-.1.24,0,.08.02.16.05.22.03.06.09.14.16.23l1.95,2.45h-.77ZM31.11,62.48c.1-.1.15-.22.15-.37s-.06-.29-.17-.4c-.11-.11-.25-.16-.4-.16s-.27.05-.37.14-.14.22-.14.39.05.3.16.4c.11.1.24.15.39.15s.28-.05.38-.14Z"/>
    <path class="st0" d="M39.65,59.39l-.94,3.83h-.94l-.72-2.78-.72,2.78h-.94l-.94-3.83h.83l.59,2.97.76-2.97h.84l.77,2.97.59-2.97h.83Z"/>
    <path class="st0" d="M40.94,60v.99h1.36v.59h-1.36v1.03h1.52v.61h-2.29v-3.83h2.29v.61h-1.52Z"/>
    <path class="st0" d="M43.79,62.64h1.29v.59h-2.05v-3.83h.77v3.25Z"/>
    <path class="st0" d="M46.3,62.64h1.29v.59h-2.05v-3.83h.77v3.25Z"/>
    <path class="st0" d="M51.29,63.23h-.77l-1.72-2.61v2.61h-.77v-3.83h.77l1.72,2.63v-2.63h.77v3.83Z"/>
    <path class="st0" d="M52.75,60v.99h1.36v.59h-1.36v1.03h1.52v.61h-2.29v-3.83h2.29v.61h-1.52Z"/>
    <path class="st0" d="M57.32,62.72c-.1.16-.24.3-.43.4-.19.1-.43.15-.7.15s-.51-.05-.73-.14-.38-.23-.51-.4c-.13-.17-.2-.38-.22-.61h.81c.02.16.08.29.19.39.11.1.25.15.43.15.16,0,.28-.04.37-.13s.13-.19.13-.33c0-.12-.03-.22-.1-.3s-.16-.14-.26-.19c-.11-.05-.25-.1-.43-.16-.24-.08-.43-.16-.59-.24-.15-.08-.28-.19-.39-.34-.11-.15-.16-.34-.16-.58,0-.33.12-.59.36-.78.24-.19.55-.28.94-.28s.73.1.97.29c.24.2.38.46.41.78h-.83c-.02-.14-.08-.25-.17-.34-.09-.09-.22-.13-.39-.13-.14,0-.26.04-.34.11-.09.07-.13.18-.13.32,0,.11.03.21.1.28.07.07.15.13.26.18.1.05.24.1.42.16.25.09.45.17.6.24.15.08.28.19.39.34.11.15.16.35.16.6,0,.2-.05.38-.15.54Z"/>
    <path class="st0" d="M60.52,62.72c-.1.16-.24.3-.43.4-.19.1-.43.15-.7.15s-.51-.05-.73-.14-.38-.23-.51-.4c-.13-.17-.2-.38-.22-.61h.81c.02.16.08.29.19.39.11.1.25.15.43.15.16,0,.28-.04.37-.13s.13-.19.13-.33c0-.12-.03-.22-.1-.3s-.16-.14-.26-.19c-.11-.05-.25-.1-.43-.16-.24-.08-.43-.16-.59-.24-.15-.08-.28-.19-.39-.34-.11-.15-.16-.34-.16-.58,0-.33.12-.59.36-.78.24-.19.55-.28.94-.28s.73.1.97.29c.24.2.38.46.41.78h-.83c-.02-.14-.08-.25-.17-.34-.09-.09-.22-.13-.39-.13-.14,0-.26.04-.34.11-.09.07-.13.18-.13.32,0,.11.03.21.1.28.07.07.15.13.26.18.1.05.24.1.42.16.25.09.45.17.6.24.15.08.28.19.39.34.11.15.16.35.16.6,0,.2-.05.38-.15.54Z"/>
    <path class="st0" d="M65.33,59.72c.31.25.52.58.62,1h-.8c-.08-.21-.21-.37-.39-.49-.18-.12-.39-.18-.63-.18-.2,0-.39.05-.55.15s-.29.25-.38.43c-.09.19-.14.41-.14.66s.05.47.14.66.22.33.38.43c.16.1.35.15.55.15.25,0,.46-.06.63-.18.18-.12.3-.28.39-.49h.8c-.1.42-.31.76-.62,1-.31.25-.71.37-1.19.37-.37,0-.69-.08-.97-.25s-.5-.4-.65-.69c-.15-.3-.23-.63-.23-1.01s.08-.72.23-1.02c.15-.3.37-.53.65-.69.28-.16.6-.25.97-.25.48,0,.87.12,1.19.37Z"/>
    <path class="st0" d="M67.3,60v.99h1.36v.59h-1.36v1.03h1.52v.61h-2.29v-3.83h2.29v.61h-1.52Z"/>
    <path class="st0" d="M72.63,63.23h-.77l-1.72-2.61v2.61h-.77v-3.83h.77l1.72,2.63v-2.63h.77v3.83Z"/>
    <path class="st0" d="M75.93,59.39v.61h-1.06v3.23h-.77v-3.23h-1.05v-.61h2.88Z"/>
    <path class="st0" d="M78.35,63.23l-.9-1.49h-.34v1.49h-.77v-3.83h1.46c.45,0,.78.11,1.02.33s.35.5.35.86c0,.29-.08.53-.24.73s-.39.33-.7.39l.96,1.53h-.85ZM77.12,61.21h.63c.44,0,.66-.19.66-.58,0-.18-.05-.33-.16-.43-.11-.1-.27-.15-.5-.15h-.63v1.17Z"/>
    <path class="st0" d="M80.47,60v.99h1.36v.59h-1.36v1.03h1.52v.61h-2.29v-3.83h2.29v.61h-1.52Z"/>
    <path class="st0" d="M6.96,69.23c-.1.16-.24.3-.43.4-.19.1-.43.15-.7.15s-.51-.05-.73-.14c-.21-.09-.38-.23-.51-.4-.13-.17-.2-.38-.22-.61h.81c.02.16.08.29.19.39.11.1.25.15.43.15.16,0,.28-.04.37-.13s.13-.19.13-.33c0-.12-.03-.22-.1-.3s-.16-.14-.26-.19c-.1-.05-.25-.1-.43-.16-.24-.08-.43-.16-.59-.24-.15-.08-.28-.19-.39-.34s-.16-.34-.16-.58c0-.33.12-.59.36-.78.24-.19.55-.28.94-.28s.73.1.97.29c.24.2.38.46.41.78h-.83c-.02-.14-.08-.25-.17-.34-.09-.09-.22-.13-.39-.13-.14,0-.26.04-.34.11-.09.07-.13.18-.13.32,0,.11.03.21.1.28.07.07.15.13.26.18.1.05.24.1.42.16.25.09.45.17.6.24.15.08.28.19.39.34.11.15.16.35.16.6,0,.2-.05.38-.15.54Z"/>
    <path class="st0" d="M9.16,67.79l1.62,1.95h-.93l-1.42-1.75v1.75h-.77v-3.83h.77v1.72l1.42-1.72h.92l-1.62,1.88Z"/>
    <path class="st0" d="M11.97,65.91v3.83h-.77v-3.83h.77Z"/>
    <path class="st0" d="M15.91,69.74h-.77l-1.72-2.61v2.61h-.77v-3.83h.77l1.72,2.63v-2.63h.77v3.83Z"/>
    <path class="st0" d="M25.19,65.91l-.94,3.83h-.94l-.72-2.78-.72,2.78h-.94l-.94-3.83h.83l.59,2.97.76-2.97h.84l.77,2.97.59-2.97h.83Z"/>
    <path class="st0" d="M26.47,66.52v.99h1.36v.59h-1.36v1.03h1.52v.61h-2.29v-3.83h2.29v.61h-1.52Z"/>
    <path class="st0" d="M29.33,69.15h1.29v.59h-2.05v-3.83h.77v3.25Z"/>
    <path class="st0" d="M31.83,69.15h1.29v.59h-2.05v-3.83h.77v3.25Z"/>
    <path class="st0" d="M36.82,69.74h-.77l-1.72-2.61v2.61h-.77v-3.83h.77l1.72,2.63v-2.63h.77v3.83Z"/>
    <path class="st0" d="M38.28,66.52v.99h1.36v.59h-1.36v1.03h1.52v.61h-2.29v-3.83h2.29v.61h-1.52Z"/>
    <path class="st0" d="M42.86,69.23c-.1.16-.24.3-.43.4-.19.1-.43.15-.7.15s-.51-.05-.73-.14-.38-.23-.51-.4c-.13-.17-.2-.38-.22-.61h.81c.02.16.08.29.19.39.11.1.25.15.43.15.16,0,.28-.04.37-.13.09-.09.13-.19.13-.33,0-.12-.03-.22-.1-.3s-.16-.14-.26-.19c-.11-.05-.25-.1-.43-.16-.24-.08-.43-.16-.59-.24-.15-.08-.28-.19-.39-.34-.11-.15-.16-.34-.16-.58,0-.33.12-.59.36-.78.24-.19.55-.28.94-.28s.73.1.97.29c.24.2.38.46.41.78h-.83c-.02-.14-.08-.25-.17-.34-.09-.09-.22-.13-.39-.13-.14,0-.26.04-.34.11-.09.07-.13.18-.13.32,0,.11.03.21.1.28.07.07.15.13.26.18.1.05.24.1.42.16.25.09.45.17.6.24.15.08.28.19.39.34.11.15.16.35.16.6,0,.2-.05.38-.15.54Z"/>
    <path class="st0" d="M46.05,69.23c-.1.16-.24.3-.43.4-.19.1-.43.15-.7.15s-.51-.05-.73-.14-.38-.23-.51-.4c-.13-.17-.2-.38-.22-.61h.81c.02.16.08.29.19.39.11.1.25.15.43.15.16,0,.28-.04.37-.13.09-.09.13-.19.13-.33,0-.12-.03-.22-.1-.3s-.16-.14-.26-.19c-.11-.05-.25-.1-.43-.16-.24-.08-.43-.16-.59-.24-.15-.08-.28-.19-.39-.34-.11-.15-.16-.34-.16-.58,0-.33.12-.59.36-.78.24-.19.55-.28.94-.28s.73.1.97.29c.24.2.38.46.41.78h-.83c-.02-.14-.08-.25-.17-.34-.09-.09-.22-.13-.39-.13-.14,0-.26.04-.34.11-.09.07-.13.18-.13.32,0,.11.03.21.1.28.07.07.15.13.26.18.1.05.24.1.42.16.25.09.45.17.6.24.15.08.28.19.39.34.11.15.16.35.16.6,0,.2-.05.38-.15.54Z"/>
    <path class="st0" d="M52.8,69.23c-.1.16-.24.3-.43.4-.19.1-.43.15-.7.15s-.51-.05-.73-.14-.38-.23-.51-.4c-.13-.17-.2-.38-.22-.61h.81c.02.16.08.29.19.39.11.1.25.15.43.15.16,0,.28-.04.37-.13s.13-.19.13-.33c0-.12-.03-.22-.1-.3s-.16-.14-.26-.19c-.11-.05-.25-.1-.43-.16-.24-.08-.43-.16-.59-.24-.15-.08-.28-.19-.39-.34-.11-.15-.16-.34-.16-.58,0-.33.12-.59.36-.78.24-.19.55-.28.94-.28s.73.1.97.29c.24.2.38.46.41.78h-.83c-.02-.14-.08-.25-.17-.34-.09-.09-.22-.13-.39-.13-.14,0-.26.04-.34.11-.09.07-.13.18-.13.32,0,.11.03.21.1.28.07.07.15.13.26.18.1.05.24.1.42.16.25.09.45.17.6.24.15.08.28.19.39.34.11.15.16.35.16.6,0,.2-.05.38-.15.54Z"/>
    <path class="st0" d="M54.28,69.15h1.29v.59h-2.05v-3.83h.77v3.25Z"/>
    <path class="st0" d="M56.79,65.91v3.83h-.77v-3.83h.77Z"/>
    <path class="st0" d="M61.61,65.95v3.79h-.76v-2.64l-.97,2.64h-.66l-.97-2.63v2.63h-.77v-3.79h.93l1.15,2.85,1.13-2.85h.92Z"/>
    <path class="st0" d="M69.04,65.91v3.83h-.77v-1.67h-1.64v1.67h-.77v-3.83h.77v1.55h1.64v-1.55h.77Z"/>
    <path class="st0" d="M72.07,68.97h-1.54l-.27.77h-.81l1.41-3.79h.87l1.41,3.79h-.81l-.27-.77ZM71.86,68.39l-.56-1.62-.56,1.62h1.13Z"/>
    <path class="st0" d="M74.32,65.91v3.83h-.77v-3.83h.77Z"/>
    <path class="st0" d="M77.01,69.74l-.9-1.49h-.34v1.49h-.77v-3.83h1.46c.45,0,.78.11,1.02.33s.35.5.35.86c0,.29-.08.53-.24.73s-.39.33-.7.39l.96,1.53h-.85ZM75.78,67.72h.63c.44,0,.66-.19.66-.58,0-.18-.05-.33-.16-.43-.11-.1-.27-.15-.5-.15h-.63v1.17Z"/>
  </g>
  <circle class="st0" cx="17.46" cy="68.02" r=".9"/>
  <circle class="st0" cx="48.28" cy="68.02" r=".9"/>
  <circle class="st0" cx="64.17" cy="68.02" r=".9"/>
</svg>