<?xml version="1.0" encoding="UTF-8"?>
<svg id="Layer_1" xmlns="http://www.w3.org/2000/svg" version="1.1" viewBox="0 0 121.43 143.32">
  <!-- Generator: Adobe Illustrator 30.0.0, SVG Export Plug-In . SVG Version: 2.1.1 Build 123)  -->
  <defs>
    <style>
      .st0 {
        fill: #3e3c3b;
      }

      .st1 {
        fill: #f4b11c;
      }

      .st1, .st2 {
        isolation: isolate;
      }

      .st3 {
        fill: #ffd780;
      }

      .st4 {
        fill: #e6a725;
      }

      .st2 {
        fill: #3e3d3b;
      }

      .st5 {
        fill: #232323;
      }

      .st6 {
        fill: #d69f29;
      }

      .st7 {
        fill: #f1af1c;
      }

      .st8 {
        fill: #343434;
      }
    </style>
  </defs>
  <path class="st7" d="M53.88,28.58h25.59l7.76-5.73,7.76,5.73h25.32L87.19,0l-33.31,28.58Z"/>
  <g>
    <path class="st0" d="M2.31,9.75h25.83v98.97H2.31V9.75Z"/>
    <path class="st0" d="M53.88,32.1h25.83v76.63h-25.83V32.1Z"/>
    <path class="st0" d="M94.66,32.1h25.83v76.63h-25.83V32.1Z"/>
    <path class="st0" d="M2.31,73.98v-19.87h77.4v19.87H2.31Z"/>
  </g>
  <path class="st8" d="M36.64,54.11h4.73v19.87h-4.73v-19.87Z"/>
  <path class="st5" d="M40.64,54.11h.74v19.87h-.74v-19.87Z"/>
  <path class="st8" d="M94.87,88.35v-4.73h25.61v4.73h-25.61Z"/>
  <path class="st5" d="M94.88,85.33v-1.72h25.61v1.72h-25.61Z"/>
  <path class="st8" d="M53.98,88.35v-4.73h25.61v4.73h-25.61Z"/>
  <path class="st5" d="M53.99,85.33v-1.72h25.61v1.72h-25.61Z"/>
  <path class="st8" d="M2.42,88.34v-4.73h25.72v4.73H2.42Z"/>
  <path class="st5" d="M2.41,85.33v-1.72h25.72v1.72H2.41Z"/>
  <path class="st4" d="M87.19,0l-2.21,1.9v22.61l2.25-1.66,2.49,1.84V2.18l-2.53-2.18Z"/>
  <path class="st3" d="M84.98,1.9l.15-.13v22.64l-.15.1V1.9Z"/>
  <path class="st6" d="M89.07,1.62l.65.56v22.51l-.65-.49V1.62Z"/>
  <g>
    <path class="st1" d="M12.08,142.85h-3.37v-10.44H3.37v10.44H0v-22.81h3.37v9.34h5.34v-9.34h3.37v22.81Z"/>
    <path class="st1" d="M21.86,142.85h-3.25v-22.81h3.25v22.81Z"/>
    <path class="st2" d="M47.08,142.85h-9.58v-22.81h3.4v20.09h6.18v2.72Z"/>
    <path class="st2" d="M56.67,142.85h-3.25v-22.81h3.25v22.81Z"/>
    <path class="st2" d="M65.66,120.03l2.69,13.69.81,5.84h.08c.42-2.96.7-4.91.84-5.84l2.69-13.69h3.28l-4.47,22.81h-4.84l-4.44-22.81h3.37Z"/>
    <path class="st2" d="M84.98,142.85h-3.25v-22.81h3.25v22.81Z"/>
    <path class="st2" d="M103.82,142.85h-3.53l-6.19-15.38v15.38h-2.93v-22.81h3.52l6.2,15.72v-15.72h2.93v22.81Z"/>
    <path class="st2" d="M118.03,136.97v-3.6h-3.25v-2.72h6.65v6.38c0,2.1-.58,3.67-1.74,4.71-1.16,1.05-2.71,1.57-4.64,1.57s-3.45-.52-4.6-1.57c-1.16-1.05-1.73-2.62-1.73-4.71v-11.21c0-2.1.58-3.66,1.72-4.7,1.15-1.04,2.69-1.56,4.61-1.56s3.48.52,4.64,1.56c1.16,1.04,1.74,2.6,1.74,4.7v1.28h-3.4v-1.22c0-1.15-.25-2.04-.76-2.66-.51-.63-1.25-.94-2.21-.94s-1.68.31-2.19.94c-.51.62-.77,1.51-.77,2.66v11.09c0,1.15.26,2.04.77,2.68s1.24.95,2.19.95,1.7-.32,2.21-.95c.51-.64.76-1.53.76-2.68Z"/>
  </g>
</svg>